<svg width="26" height="19" viewBox="0 0 26 19" fill="none" xmlns="http://www.w3.org/2000/svg">
<mask id="path-1-inside-1_13971_24344" fill="white">
<rect width="25.875" height="19" rx="0.225"/>
</mask>
<rect width="25.875" height="19" rx="0.225" fill="white" stroke="#EBEBEB" stroke-width="2.25" mask="url(#path-1-inside-1_13971_24344)"/>
<path fill-rule="evenodd" clip-rule="evenodd" d="M6.16699 7.06151C6.51448 7.0929 6.86198 6.87317 7.07916 6.59458C7.29273 6.30815 7.4339 5.92362 7.3977 5.53125C7.09002 5.54694 6.70995 5.75098 6.49277 6.03741C6.29368 6.28461 6.12355 6.68483 6.16699 7.06151ZM10.3008 12.1102V5.99306H12.4183C13.5115 5.99306 14.2753 6.80919 14.2753 8.00201C14.2753 9.19482 13.497 10.0188 12.3894 10.0188H11.1768V12.1102H10.3008ZM7.39618 7.14136C7.09004 7.12226 6.81071 7.24116 6.58508 7.3372C6.43988 7.399 6.31693 7.45134 6.22338 7.45134C6.11841 7.45134 5.99038 7.3962 5.84663 7.3343C5.65827 7.25319 5.44292 7.16045 5.2171 7.1649C4.69948 7.17275 4.21805 7.49057 3.95381 7.99674C3.41085 9.00906 3.81264 10.5079 4.3375 11.3319C4.5945 11.74 4.90218 12.1873 5.30759 12.1716C5.48595 12.1643 5.61425 12.1053 5.74702 12.0442C5.89989 11.9739 6.05869 11.9009 6.30664 11.9009C6.54599 11.9009 6.69785 11.972 6.84362 12.0403C6.98222 12.1052 7.11533 12.1676 7.31292 12.1637C7.73281 12.1559 7.99705 11.7557 8.25406 11.3476C8.5314 10.9096 8.65328 10.4822 8.67178 10.4173L8.67394 10.4098C8.6735 10.4094 8.67007 10.4077 8.66403 10.4047C8.57132 10.3586 7.86268 10.007 7.85588 9.06399C7.84906 8.27249 8.41796 7.87146 8.50751 7.80833L8.50752 7.80832L8.50756 7.8083C8.51298 7.80448 8.51664 7.8019 8.5183 7.80055C8.15632 7.21984 7.59164 7.15706 7.39618 7.14136ZM15.8788 12.1613C16.429 12.1613 16.9394 11.8592 17.1711 11.3805H17.1892V12.1142H18V9.0694C18 8.18656 17.3484 7.61762 16.3458 7.61762C15.4155 7.61762 14.7278 8.19441 14.7024 8.98701H15.4915C15.5567 8.61033 15.8788 8.36313 16.3204 8.36313C16.8562 8.36313 17.1566 8.63387 17.1566 9.13218V9.46962L16.0634 9.54025C15.0463 9.60696 14.4961 10.0582 14.4961 10.8429C14.4961 11.6355 15.0644 12.1613 15.8788 12.1613ZM16.1114 11.4425C15.6445 11.4425 15.3477 11.1993 15.3477 10.8265C15.3477 10.442 15.6336 10.2183 16.1802 10.183L17.1539 10.1163V10.4616C17.1539 11.0345 16.7051 11.4425 16.1114 11.4425ZM20.6891 12.3524C20.3379 13.4236 19.9361 13.7768 19.0819 13.7768C19.0167 13.7768 18.7996 13.7689 18.7489 13.7532V13.0195C18.8032 13.0273 18.9371 13.0352 19.0059 13.0352C19.3932 13.0352 19.6104 12.8586 19.7443 12.3995L19.8239 12.1288L18.3398 7.67535H19.2556L20.2873 11.2891H20.3054L21.337 7.67535H22.2274L20.6891 12.3524ZM11.1797 6.80122H12.1896C12.9497 6.80122 13.3841 7.24067 13.3841 8.01365C13.3841 8.78663 12.9497 9.23001 12.186 9.23001H11.1797V6.80122Z" fill="black"/>
</svg>
