<svg width="386" height="192" viewBox="0 0 386 192" fill="none" xmlns="http://www.w3.org/2000/svg">
<g filter="url(#filter0_i_8814_27030)">
<g clip-path="url(#clip0_8814_27030)">
<rect x="1" y="1" width="384" height="190" rx="22" fill="#FAFAFA"/>
<mask id="mask0_8814_27030" style="mask-type:alpha" maskUnits="userSpaceOnUse" x="-41" y="-268" width="450" height="451">
<path d="M409 157L104.6 157C95.6392 157 91.1587 157 87.7361 155.256C84.7255 153.722 82.2779 151.274 80.7439 148.264C79 144.841 79 140.361 79 131.4V92" stroke="black" stroke-width="1.5"/>
<path d="M79 -268L79 65" stroke="black" stroke-width="1.5"/>
<path d="M95 84L-41 84" stroke="black" stroke-width="1.5"/>
<path d="M95 104L-41 104" stroke="black" stroke-width="1.5"/>
</mask>
<g mask="url(#mask0_8814_27030)">
<g filter="url(#filter1_f_8814_27030)">
<rect x="1" y="1" width="408" height="182" fill="url(#paint0_radial_8814_27030)"/>
</g>
<g filter="url(#filter2_f_8814_27030)">
<rect x="43.1406" y="168" width="111.474" height="31" transform="rotate(-136.711 43.1406 168)" fill="#0068FF" fill-opacity="0.5"/>
</g>
<path d="M275 157H183" stroke="url(#paint1_linear_8814_27030)" stroke-width="1.5" stroke-linecap="round"/>
</g>
<g filter="url(#filter3_dddd_8814_27030)">
<path d="M53.3496 91.6C53.3496 82.6392 53.3496 78.1587 55.0935 74.7362C56.6275 71.7256 59.0752 69.2779 62.0858 67.7439C65.5083 66 69.9888 66 78.9496 66H87.7496C96.7104 66 101.191 66 104.613 67.7439C107.624 69.2779 110.072 71.7256 111.606 74.7362C113.35 78.1587 113.35 82.6392 113.35 91.6V100.4C113.35 109.361 113.35 113.841 111.606 117.264C110.072 120.274 107.624 122.722 104.613 124.256C101.191 126 96.7104 126 87.7496 126H78.9496C69.9888 126 65.5083 126 62.0858 124.256C59.0752 122.722 56.6275 120.274 55.0935 117.264C53.3496 113.841 53.3496 109.361 53.3496 100.4V91.6Z" fill="#0068FF"/>
<path d="M53.3496 91.6C53.3496 82.6392 53.3496 78.1587 55.0935 74.7362C56.6275 71.7256 59.0752 69.2779 62.0858 67.7439C65.5083 66 69.9888 66 78.9496 66H87.7496C96.7104 66 101.191 66 104.613 67.7439C107.624 69.2779 110.072 71.7256 111.606 74.7362C113.35 78.1587 113.35 82.6392 113.35 91.6V100.4C113.35 109.361 113.35 113.841 111.606 117.264C110.072 120.274 107.624 122.722 104.613 124.256C101.191 126 96.7104 126 87.7496 126H78.9496C69.9888 126 65.5083 126 62.0858 124.256C59.0752 122.722 56.6275 120.274 55.0935 117.264C53.3496 113.841 53.3496 109.361 53.3496 100.4V91.6Z" fill="url(#paint2_radial_8814_27030)"/>
<path d="M54.0996 91.6C54.0996 87.1072 54.1002 83.7827 54.3151 81.1523C54.5293 78.5307 54.9527 76.6646 55.7618 75.0766C57.2238 72.2072 59.5568 69.8742 62.4263 68.4122C64.0142 67.6031 65.8803 67.1797 68.5019 66.9655C71.1323 66.7506 74.4568 66.75 78.9496 66.75H87.7496C92.2424 66.75 95.5669 66.7506 98.1973 66.9655C100.819 67.1797 102.685 67.6031 104.273 68.4122C107.142 69.8742 109.475 72.2072 110.937 75.0766C111.747 76.6646 112.17 78.5307 112.384 81.1523C112.599 83.7827 112.6 87.1072 112.6 91.6V100.4C112.6 104.893 112.599 108.217 112.384 110.848C112.17 113.469 111.747 115.335 110.937 116.923C109.475 119.793 107.142 122.126 104.273 123.588C102.685 124.397 100.819 124.82 98.1973 125.035C95.5669 125.249 92.2424 125.25 87.7496 125.25H78.9496C74.4568 125.25 71.1323 125.249 68.5019 125.035C65.8803 124.82 64.0142 124.397 62.4263 123.588C59.5568 122.126 57.2238 119.793 55.7618 116.923C54.9527 115.335 54.5293 113.469 54.3151 110.848C54.1002 108.217 54.0996 104.893 54.0996 100.4V91.6Z" stroke="url(#paint3_radial_8814_27030)" stroke-width="1.5"/>
<path d="M101.237 82.502L100.504 82.641C97.7127 83.1759 90.2853 85.3153 82.138 93.4132C80.5843 94.9322 79.2706 96.6438 78.1717 98.4623C75.418 95.435 71.679 93.1672 69.0264 92.1188L65.3506 98.6442L65.9316 98.826C66.3485 98.9651 69.898 100.602 72.3738 103.276C73.4474 104.431 74.8495 106.485 75.5822 108.753L75.6832 109.106L81.5948 109.481L82.1506 109.502L82.2516 109.053C82.7443 106.517 83.6411 101.8 87.898 97.5852C93.2285 92.29 96.9422 90.7068 100.883 89.9473L101.351 89.8617L101.224 82.5127L101.237 82.502Z" fill="white"/>
</g>
<mask id="mask1_8814_27030" style="mask-type:luminance" maskUnits="userSpaceOnUse" x="131" y="63" width="203" height="47">
<path d="M131.798 63.5H333.098V109.25H131.798V63.5Z" fill="white"/>
</mask>
<g mask="url(#mask1_8814_27030)">
<path d="M148.347 86.4488L141.838 85.6238C138.547 85.2273 138.28 84.3306 138.28 83.2829C138.28 81.0869 141.297 80.3092 144.125 80.3092C148.129 80.3092 150.7 81.7686 150.839 84.108L150.863 84.5533H156.434L156.393 84.0454C156.142 81.0381 154.235 75.9934 144.159 75.9843C137.01 75.9843 132.741 78.8879 132.732 83.7603C132.732 87.8366 136.307 89.7886 139.663 90.2491L147.223 91.2099C151.032 91.7086 151.34 92.6602 151.34 93.7719C151.34 95.7147 148.848 96.8326 144.482 96.8326C141.958 96.8326 140.051 96.3568 138.814 95.4204C137.585 94.4932 137.406 93.3586 137.406 92.7639V92.2881H131.81L131.851 92.8035C132.272 98.3484 136.566 101.156 144.612 101.173H144.636C152.705 101.173 157.154 98.26 157.161 92.9697C157.161 89.3601 154.37 87.2967 148.356 86.4809L148.347 86.4488ZM158.611 76.7666L158.581 100.377L164.137 100.383L164.167 76.7742L158.611 76.7666ZM161.39 68.1016C159.514 68.1016 157.986 69.3627 157.986 70.9167V71.1866C157.986 72.7421 159.514 74.0033 161.39 74.0109C163.266 74.0109 164.795 72.7498 164.795 71.1943V70.9259C164.795 69.3704 163.266 68.1107 161.39 68.1031V68.1016ZM178.281 96.5886C175.444 96.5886 175.056 95.6278 175.056 94.5969L175.071 81.1113H180.634V76.7956H175.071V69.8218H169.515V76.7819H165.886V81.1052H169.524L169.509 95.3365C169.509 98.0022 170.688 101.176 176.341 101.183H176.68C178.508 101.183 180.029 101.159 181.54 100.874L181.936 100.802V96.218L181.378 96.3125C180.149 96.5108 179.204 96.6069 178.298 96.6069L178.282 96.5916L178.281 96.5886Z" fill="#0E213D" fill-opacity="0.9"/>
<path d="M194.407 76.0276C186.143 76.0276 180.798 80.9625 180.79 88.5936C180.79 96.2414 186.128 101.182 194.408 101.19H194.416C198.701 101.19 204.135 99.1054 206.537 93.2494L206.803 92.5997H201.191L201.062 92.8697C199.543 96.1225 196.113 96.6059 194.196 96.6059C190.68 96.6059 186.968 94.4633 186.402 90.3702L207.183 90.3946V89.3545C207.183 83.2149 203.853 76.0352 194.416 76.026H194.407V76.0276ZM194.205 80.1359V80.6132C197.972 80.6132 200.731 82.6918 201.532 86.0712L186.596 86.056C187.428 82.7772 190.413 80.6117 194.213 80.6117V80.1359H194.205ZM234.304 76.845L225.739 76.8373L214.192 85.9919L214.209 68.3477H208.653L208.621 100.431L214.177 100.438L214.184 92.0202L217.848 89.292L227.26 100.455H234.772L222.287 85.905L234.304 76.845Z" fill="#0E213D" fill-opacity="0.9"/>
<path d="M244.932 76.0801C236.636 76.0801 231.274 81.015 231.267 88.6461C231.267 92.1215 232.471 95.2615 234.67 97.4834C237.095 99.9433 240.645 101.235 244.932 101.244H244.947C249.249 101.244 254.707 99.1579 257.109 93.3034L257.376 92.6523H251.749L251.619 92.9222C250.091 96.175 246.646 96.6584 244.722 96.6584C241.188 96.6584 237.46 94.5173 236.894 90.4227L257.765 90.4471V89.4071C257.765 83.2674 254.425 76.0877 244.947 76.0801H244.932ZM237.08 86.107C237.913 82.8313 240.912 80.6658 244.72 80.6658V80.19L244.737 80.6658C248.514 80.6658 251.279 82.7443 252.08 86.1237L237.08 86.1085V86.107ZM272.789 76.106C264.42 76.106 259.009 81.0409 259.003 88.672C259.003 96.3199 264.403 101.261 272.78 101.268H272.797C277.131 101.268 282.638 99.1838 285.056 93.3294L285.331 92.6705H279.662L279.533 92.9405C277.997 96.1918 274.52 96.6767 272.571 96.6767C269.004 96.6767 265.245 94.5341 264.672 90.441L285.718 90.4654V89.4238C285.718 83.2842 282.348 76.1045 272.789 76.0953V76.1045V76.106ZM264.864 86.1329C265.706 82.8572 268.737 80.6917 272.579 80.6917V80.2159L272.594 80.6917C276.404 80.6917 279.193 82.7703 280.01 86.1497L264.873 86.1344H264.864V86.1329ZM310.847 79.6562C308.421 77.5548 305.025 76.3958 301.281 76.3958C297.796 76.3958 294.521 77.5395 292.564 79.3863V76.9112H287.008L286.976 109.255H292.532L292.54 98.3069C294.504 100.18 297.731 101.305 301.281 101.314C309.254 101.314 314.826 96.1963 314.834 88.8748C314.834 85.1142 313.458 81.933 310.847 79.6715V79.6562ZM300.683 80.9738V80.4965L300.698 80.9738C306.827 80.9738 309.011 85.0425 309.003 88.8504C309.003 93.7762 305.889 96.7118 300.674 96.7118C298.167 96.7118 296.058 95.9828 294.569 94.6103C293.066 93.2226 292.273 91.2233 292.273 88.8352C292.273 85.0349 294.489 80.9738 300.674 80.9738H300.683Z" fill="#0E213D" fill-opacity="0.9"/>
</g>
<path d="M138.517 125.716C134.683 125.716 132.199 123.052 132.199 118.93C132.199 114.844 134.773 112.126 138.625 112.126C141.739 112.126 144.061 113.944 144.511 116.77H142.081C141.631 115.24 140.317 114.34 138.571 114.34C136.141 114.34 134.611 116.104 134.611 118.912C134.611 121.702 136.159 123.502 138.571 123.502C140.353 123.502 141.721 122.566 142.153 121.108H144.547C144.043 123.88 141.631 125.716 138.517 125.716ZM158.619 118.912C158.619 122.908 155.991 125.716 152.211 125.716C148.449 125.716 145.857 122.926 145.857 118.912C145.857 114.916 148.467 112.108 152.229 112.108C155.991 112.108 158.619 114.898 158.619 118.912ZM156.189 118.912C156.189 116.104 154.641 114.322 152.229 114.322C149.817 114.322 148.269 116.104 148.269 118.912C148.269 121.72 149.817 123.502 152.229 123.502C154.641 123.502 156.189 121.684 156.189 118.912ZM163.068 125.5H160.764V112.342H165.786C168.774 112.342 170.52 113.854 170.52 116.446C170.52 118.21 169.692 119.47 168.144 120.1L170.646 125.5H168.126L165.894 120.586H163.068V125.5ZM163.068 114.394V118.552H165.786C167.244 118.552 168.108 117.778 168.108 116.446C168.108 115.132 167.244 114.394 165.786 114.394H163.068ZM180.994 125.5H172.822V112.342H180.994V114.466H175.126V117.85H180.382V119.884H175.126V123.376H180.994V125.5ZM195.544 120.118H190.648V125.5H188.344V112.342H196.48V114.466H190.648V118.048H195.544V120.118ZM206.729 125.5H198.557V112.342H206.729V114.466H200.861V117.85H206.117V119.884H200.861V123.376H206.729V125.5ZM210.361 125.5H207.967L212.719 112.342H215.077L219.829 125.5H217.399L216.337 122.458H211.423L210.361 125.5ZM213.601 116.266L212.107 120.514H215.671L214.159 116.266C214.051 115.924 213.925 115.528 213.889 115.258C213.835 115.51 213.727 115.906 213.601 116.266ZM219.149 114.466V112.342H229.157V114.466H225.305V125.5H223.001V114.466H219.149ZM230.828 120.694V112.342H233.132V120.55C233.132 122.44 234.158 123.484 236.03 123.484C237.902 123.484 238.946 122.422 238.946 120.55V112.342H241.25V120.694C241.25 123.772 239.234 125.716 236.03 125.716C232.844 125.716 230.828 123.79 230.828 120.694ZM246.388 125.5H244.084V112.342H249.106C252.094 112.342 253.84 113.854 253.84 116.446C253.84 118.21 253.012 119.47 251.464 120.1L253.966 125.5H251.446L249.214 120.586H246.388V125.5ZM246.388 114.394V118.552H249.106C250.564 118.552 251.428 117.778 251.428 116.446C251.428 115.132 250.564 114.394 249.106 114.394H246.388ZM264.315 125.5H256.143V112.342H264.315V114.466H258.447V117.85H263.703V119.884H258.447V123.376H264.315V125.5ZM266.056 116.014C266.056 113.71 267.964 112.108 270.736 112.108C273.4 112.108 275.092 113.584 275.164 115.96H272.86C272.806 114.826 271.996 114.16 270.7 114.16C269.278 114.16 268.36 114.844 268.36 115.942C268.36 116.878 268.864 117.4 269.962 117.652L272.032 118.102C274.282 118.588 275.38 119.74 275.38 121.702C275.38 124.15 273.472 125.734 270.574 125.734C267.766 125.734 265.93 124.24 265.876 121.882H268.18C268.198 122.998 269.098 123.664 270.574 123.664C272.104 123.664 273.076 122.998 273.076 121.9C273.076 121.018 272.626 120.496 271.546 120.262L269.458 119.794C267.226 119.308 266.056 118.03 266.056 116.014Z" fill="#0068FF"/>
<path d="M138.517 125.716C134.683 125.716 132.199 123.052 132.199 118.93C132.199 114.844 134.773 112.126 138.625 112.126C141.739 112.126 144.061 113.944 144.511 116.77H142.081C141.631 115.24 140.317 114.34 138.571 114.34C136.141 114.34 134.611 116.104 134.611 118.912C134.611 121.702 136.159 123.502 138.571 123.502C140.353 123.502 141.721 122.566 142.153 121.108H144.547C144.043 123.88 141.631 125.716 138.517 125.716ZM158.619 118.912C158.619 122.908 155.991 125.716 152.211 125.716C148.449 125.716 145.857 122.926 145.857 118.912C145.857 114.916 148.467 112.108 152.229 112.108C155.991 112.108 158.619 114.898 158.619 118.912ZM156.189 118.912C156.189 116.104 154.641 114.322 152.229 114.322C149.817 114.322 148.269 116.104 148.269 118.912C148.269 121.72 149.817 123.502 152.229 123.502C154.641 123.502 156.189 121.684 156.189 118.912ZM163.068 125.5H160.764V112.342H165.786C168.774 112.342 170.52 113.854 170.52 116.446C170.52 118.21 169.692 119.47 168.144 120.1L170.646 125.5H168.126L165.894 120.586H163.068V125.5ZM163.068 114.394V118.552H165.786C167.244 118.552 168.108 117.778 168.108 116.446C168.108 115.132 167.244 114.394 165.786 114.394H163.068ZM180.994 125.5H172.822V112.342H180.994V114.466H175.126V117.85H180.382V119.884H175.126V123.376H180.994V125.5ZM195.544 120.118H190.648V125.5H188.344V112.342H196.48V114.466H190.648V118.048H195.544V120.118ZM206.729 125.5H198.557V112.342H206.729V114.466H200.861V117.85H206.117V119.884H200.861V123.376H206.729V125.5ZM210.361 125.5H207.967L212.719 112.342H215.077L219.829 125.5H217.399L216.337 122.458H211.423L210.361 125.5ZM213.601 116.266L212.107 120.514H215.671L214.159 116.266C214.051 115.924 213.925 115.528 213.889 115.258C213.835 115.51 213.727 115.906 213.601 116.266ZM219.149 114.466V112.342H229.157V114.466H225.305V125.5H223.001V114.466H219.149ZM230.828 120.694V112.342H233.132V120.55C233.132 122.44 234.158 123.484 236.03 123.484C237.902 123.484 238.946 122.422 238.946 120.55V112.342H241.25V120.694C241.25 123.772 239.234 125.716 236.03 125.716C232.844 125.716 230.828 123.79 230.828 120.694ZM246.388 125.5H244.084V112.342H249.106C252.094 112.342 253.84 113.854 253.84 116.446C253.84 118.21 253.012 119.47 251.464 120.1L253.966 125.5H251.446L249.214 120.586H246.388V125.5ZM246.388 114.394V118.552H249.106C250.564 118.552 251.428 117.778 251.428 116.446C251.428 115.132 250.564 114.394 249.106 114.394H246.388ZM264.315 125.5H256.143V112.342H264.315V114.466H258.447V117.85H263.703V119.884H258.447V123.376H264.315V125.5ZM266.056 116.014C266.056 113.71 267.964 112.108 270.736 112.108C273.4 112.108 275.092 113.584 275.164 115.96H272.86C272.806 114.826 271.996 114.16 270.7 114.16C269.278 114.16 268.36 114.844 268.36 115.942C268.36 116.878 268.864 117.4 269.962 117.652L272.032 118.102C274.282 118.588 275.38 119.74 275.38 121.702C275.38 124.15 273.472 125.734 270.574 125.734C267.766 125.734 265.93 124.24 265.876 121.882H268.18C268.198 122.998 269.098 123.664 270.574 123.664C272.104 123.664 273.076 122.998 273.076 121.9C273.076 121.018 272.626 120.496 271.546 120.262L269.458 119.794C267.226 119.308 266.056 118.03 266.056 116.014Z" fill="url(#paint4_radial_8814_27030)"/>
</g>
<rect x="0.5" y="0.5" width="385" height="191" rx="22.5" stroke="url(#paint5_radial_8814_27030)" stroke-opacity="0.08"/>
</g>
<defs>
<filter id="filter0_i_8814_27030" x="0" y="0" width="386" height="194" filterUnits="userSpaceOnUse" color-interpolation-filters="sRGB">
<feFlood flood-opacity="0" result="BackgroundImageFix"/>
<feBlend mode="normal" in="SourceGraphic" in2="BackgroundImageFix" result="shape"/>
<feColorMatrix in="SourceAlpha" type="matrix" values="0 0 0 0 0 0 0 0 0 0 0 0 0 0 0 0 0 0 127 0" result="hardAlpha"/>
<feOffset dy="2"/>
<feGaussianBlur stdDeviation="4"/>
<feComposite in2="hardAlpha" operator="arithmetic" k2="-1" k3="1"/>
<feColorMatrix type="matrix" values="0 0 0 0 0.827143 0 0 0 0 0.86381 0 0 0 0 0.952857 0 0 0 1 0"/>
<feBlend mode="normal" in2="shape" result="effect1_innerShadow_8814_27030"/>
</filter>
<filter id="filter1_f_8814_27030" x="-108.2" y="-108.2" width="626.4" height="400.4" filterUnits="userSpaceOnUse" color-interpolation-filters="sRGB">
<feFlood flood-opacity="0" result="BackgroundImageFix"/>
<feBlend mode="normal" in="SourceGraphic" in2="BackgroundImageFix" result="shape"/>
<feGaussianBlur stdDeviation="54.6" result="effect1_foregroundBlur_8814_27030"/>
</filter>
<filter id="filter2_f_8814_27030" x="-105.202" y="1.8" width="236.798" height="233.4" filterUnits="userSpaceOnUse" color-interpolation-filters="sRGB">
<feFlood flood-opacity="0" result="BackgroundImageFix"/>
<feBlend mode="normal" in="SourceGraphic" in2="BackgroundImageFix" result="shape"/>
<feGaussianBlur stdDeviation="33.6" result="effect1_foregroundBlur_8814_27030"/>
</filter>
<filter id="filter3_dddd_8814_27030" x="44.3496" y="64.5" width="78" height="91.5" filterUnits="userSpaceOnUse" color-interpolation-filters="sRGB">
<feFlood flood-opacity="0" result="BackgroundImageFix"/>
<feColorMatrix in="SourceAlpha" type="matrix" values="0 0 0 0 0 0 0 0 0 0 0 0 0 0 0 0 0 0 127 0" result="hardAlpha"/>
<feOffset dy="1.5"/>
<feGaussianBlur stdDeviation="1.5"/>
<feColorMatrix type="matrix" values="0 0 0 0 0 0 0 0 0 0.407843 0 0 0 0 1 0 0 0 0.1 0"/>
<feBlend mode="normal" in2="BackgroundImageFix" result="effect1_dropShadow_8814_27030"/>
<feColorMatrix in="SourceAlpha" type="matrix" values="0 0 0 0 0 0 0 0 0 0 0 0 0 0 0 0 0 0 127 0" result="hardAlpha"/>
<feOffset dy="6"/>
<feGaussianBlur stdDeviation="3"/>
<feColorMatrix type="matrix" values="0 0 0 0 0 0 0 0 0 0.407843 0 0 0 0 1 0 0 0 0.09 0"/>
<feBlend mode="normal" in2="effect1_dropShadow_8814_27030" result="effect2_dropShadow_8814_27030"/>
<feColorMatrix in="SourceAlpha" type="matrix" values="0 0 0 0 0 0 0 0 0 0 0 0 0 0 0 0 0 0 127 0" result="hardAlpha"/>
<feOffset dy="12"/>
<feGaussianBlur stdDeviation="3.75"/>
<feColorMatrix type="matrix" values="0 0 0 0 0 0 0 0 0 0.407843 0 0 0 0 1 0 0 0 0.05 0"/>
<feBlend mode="normal" in2="effect2_dropShadow_8814_27030" result="effect3_dropShadow_8814_27030"/>
<feColorMatrix in="SourceAlpha" type="matrix" values="0 0 0 0 0 0 0 0 0 0 0 0 0 0 0 0 0 0 127 0" result="hardAlpha"/>
<feOffset dy="21"/>
<feGaussianBlur stdDeviation="4.5"/>
<feColorMatrix type="matrix" values="0 0 0 0 0 0 0 0 0 0.407843 0 0 0 0 1 0 0 0 0.01 0"/>
<feBlend mode="normal" in2="effect3_dropShadow_8814_27030" result="effect4_dropShadow_8814_27030"/>
<feBlend mode="normal" in="SourceGraphic" in2="effect4_dropShadow_8814_27030" result="shape"/>
</filter>
<radialGradient id="paint0_radial_8814_27030" cx="0" cy="0" r="1" gradientUnits="userSpaceOnUse" gradientTransform="translate(207.57 92.4171) rotate(-88.2822) scale(214.513 229.922)">
<stop stop-color="#F2F2F2"/>
<stop offset="1" stop-color="#BEC7D3" stop-opacity="0"/>
</radialGradient>
<linearGradient id="paint1_linear_8814_27030" x1="275" y1="156.5" x2="183" y2="156.5" gradientUnits="userSpaceOnUse">
<stop stop-color="white" stop-opacity="0"/>
<stop offset="1" stop-color="#0068FF"/>
</linearGradient>
<radialGradient id="paint2_radial_8814_27030" cx="0" cy="0" r="1" gradientUnits="userSpaceOnUse" gradientTransform="translate(83.3496 66) rotate(90) scale(60 66.9488)">
<stop stop-color="#5297FF"/>
<stop offset="1" stop-color="#3386FF"/>
</radialGradient>
<radialGradient id="paint3_radial_8814_27030" cx="0" cy="0" r="1" gradientUnits="userSpaceOnUse" gradientTransform="translate(82.5684 66) rotate(90) scale(60 40.633)">
<stop stop-color="#A8CBFF"/>
<stop offset="1" stop-color="#0068FF"/>
</radialGradient>
<radialGradient id="paint4_radial_8814_27030" cx="0" cy="0" r="1" gradientUnits="userSpaceOnUse" gradientTransform="translate(203.997 105.5) rotate(90) scale(26 161.793)">
<stop stop-color="#0068FF"/>
<stop offset="1" stop-color="#5297FF"/>
</radialGradient>
<radialGradient id="paint5_radial_8814_27030" cx="0" cy="0" r="1" gradientUnits="userSpaceOnUse" gradientTransform="translate(188 1) rotate(90) scale(190 260.051)">
<stop stop-color="#A8CBFF"/>
<stop offset="1" stop-color="#0068FF"/>
</radialGradient>
<clipPath id="clip0_8814_27030">
<rect x="1" y="1" width="384" height="190" rx="22" fill="white"/>
</clipPath>
</defs>
</svg>
