<svg width="288" height="233" viewBox="0 0 288 233" fill="none" xmlns="http://www.w3.org/2000/svg">
<g clip-path="url(#clip0_8918_34378)">
<path d="M0.5 8.4082C0.5 4.26607 3.85786 0.908203 8 0.908203H280C284.142 0.908203 287.5 4.26607 287.5 8.4082V35.4082C287.5 39.5503 284.142 42.9082 280 42.9082H8C3.85787 42.9082 0.5 39.5503 0.5 35.4082V8.4082Z" fill="white"/>
<path d="M0.5 8.4082C0.5 4.26607 3.85786 0.908203 8 0.908203H280C284.142 0.908203 287.5 4.26607 287.5 8.4082V35.4082C287.5 39.5503 284.142 42.9082 280 42.9082H8C3.85787 42.9082 0.5 39.5503 0.5 35.4082V8.4082Z" stroke="#EFEFEF"/>
<path d="M29.3762 27.5615C26.4922 27.5615 24.5742 25.4895 24.5742 22.3535C24.5742 19.2315 26.5482 17.1175 29.4462 17.1175C31.7282 17.1175 33.4782 18.4755 33.8562 20.5475H32.3862C32.0082 19.2315 30.8742 18.4335 29.4042 18.4335C27.3602 18.4335 26.0162 19.9735 26.0162 22.3395C26.0162 24.7055 27.3602 26.2455 29.4042 26.2455C30.8882 26.2455 32.0642 25.4475 32.4422 24.2015H33.8982C33.4642 26.2175 31.6582 27.5615 29.3762 27.5615ZM40.0885 20.5615H41.3905V27.4075H40.2145L40.0745 26.3715C39.6825 27.0855 38.7725 27.5755 37.7645 27.5755C36.1685 27.5755 35.2725 26.4975 35.2725 24.8175V20.5615H36.5885V24.3835C36.5885 25.8535 37.2185 26.4135 38.2265 26.4135C39.4305 26.4135 40.0885 25.6435 40.0885 24.1735V20.5615ZM42.6031 25.4195H43.8631C43.8631 26.1195 44.3951 26.5395 45.2631 26.5395C46.1871 26.5395 46.7191 26.1615 46.7191 25.5315C46.7191 25.0695 46.4951 24.7895 45.7811 24.6075L44.5771 24.3275C43.3591 24.0335 42.7851 23.4315 42.7851 22.4235C42.7851 21.1635 43.8491 20.3655 45.3611 20.3655C46.8591 20.3655 47.8391 21.2055 47.8671 22.5075H46.6071C46.5791 21.8215 46.1171 21.3875 45.3191 21.3875C44.4931 21.3875 44.0311 21.7515 44.0311 22.3815C44.0311 22.8435 44.3671 23.1515 45.0391 23.3195L46.2431 23.6135C47.4051 23.8935 47.9791 24.4255 47.9791 25.4475C47.9791 26.7495 46.8591 27.5755 45.2351 27.5755C43.6251 27.5755 42.6031 26.7215 42.6031 25.4195ZM51.3705 27.4075H50.0545V21.6675H48.7105V20.5615H50.0545V18.4195H51.3705V20.5615H52.7145V21.6675H51.3705V27.4075ZM53.3792 23.9775C53.3792 21.8635 54.8912 20.3795 56.9492 20.3795C58.9932 20.3795 60.5052 21.8635 60.5052 23.9775C60.5052 26.0915 58.9932 27.5755 56.9492 27.5755C54.8912 27.5755 53.3792 26.0915 53.3792 23.9775ZM54.7092 23.9775C54.7092 25.4055 55.6192 26.3995 56.9492 26.3995C58.2652 26.3995 59.1892 25.4055 59.1892 23.9775C59.1892 22.5495 58.2652 21.5555 56.9492 21.5555C55.6192 21.5555 54.7092 22.5495 54.7092 23.9775ZM63.278 27.4075H61.962V20.5615H63.138L63.264 21.4575C63.614 20.8135 64.342 20.3655 65.308 20.3655C66.372 20.3655 67.128 20.8975 67.478 21.7515C67.8 20.8975 68.626 20.3655 69.69 20.3655C71.258 20.3655 72.21 21.3455 72.21 22.9275V27.4075H70.922V23.2495C70.922 22.1715 70.32 21.5555 69.396 21.5555C68.402 21.5555 67.744 22.2555 67.744 23.3475V27.4075H66.442V23.2355C66.442 22.1575 65.854 21.5695 64.93 21.5695C63.936 21.5695 63.278 22.2555 63.278 23.3475V27.4075ZM77.4144 23.9915C77.4144 21.8495 78.7724 20.3655 80.7744 20.3655C82.4964 20.3655 83.7004 21.3455 83.9384 22.8715H82.6224C82.3984 22.0035 81.6984 21.5415 80.8164 21.5415C79.5704 21.5415 78.7164 22.4935 78.7164 23.9775C78.7164 25.4475 79.5144 26.3995 80.7604 26.3995C81.6984 26.3995 82.3984 25.9095 82.6364 25.0975H83.9524C83.6864 26.5815 82.4124 27.5755 80.7604 27.5755C78.7444 27.5755 77.4144 26.1475 77.4144 23.9915ZM87.3429 27.5755C85.8729 27.5755 85.0049 26.7495 85.0049 25.5035C85.0049 24.2435 85.9429 23.4595 87.5529 23.3335L89.7089 23.1655V22.9695C89.7089 21.8215 89.0229 21.4155 88.0989 21.4155C86.9929 21.4155 86.3629 21.9055 86.3629 22.7315H85.2149C85.2149 21.3035 86.3909 20.3655 88.1549 20.3655C89.8489 20.3655 90.9969 21.2615 90.9969 23.1095V27.4075H89.8769L89.7369 26.3015C89.3869 27.0855 88.4489 27.5755 87.3429 27.5755ZM87.7209 26.5535C88.9669 26.5535 89.7229 25.7415 89.7229 24.4535V24.0895L87.9729 24.2295C86.8109 24.3415 86.3349 24.7895 86.3349 25.4615C86.3349 26.1895 86.8669 26.5535 87.7209 26.5535ZM96.7392 20.5055V21.7095H96.1512C94.9054 21.7095 94.1354 22.4655 94.1354 23.7815V27.4075H92.8194V20.5755H94.0514L94.1354 21.6115C94.4154 20.8975 95.1014 20.4215 96.0392 20.4215C96.2772 20.4215 96.4732 20.4495 96.7392 20.5055ZM100.471 27.5755C98.4832 27.5755 97.2792 26.0915 97.2792 24.0055C97.2792 21.9055 98.4972 20.3655 100.527 20.3655C101.577 20.3655 102.459 20.8275 102.921 21.6675V17.1035H104.223V27.4075H103.047L102.935 26.1615C102.487 27.0995 101.563 27.5755 100.471 27.5755ZM100.737 26.3855C102.081 26.3855 102.907 25.3915 102.907 23.9635C102.907 22.5635 102.081 21.5555 100.737 21.5555C99.3932 21.5555 98.6092 22.5635 98.6092 23.9635C98.6092 25.3775 99.3932 26.3855 100.737 26.3855ZM105.562 25.4195H106.822C106.822 26.1195 107.354 26.5395 108.222 26.5395C109.146 26.5395 109.678 26.1615 109.678 25.5315C109.678 25.0695 109.454 24.7895 108.74 24.6075L107.536 24.3275C106.318 24.0335 105.744 23.4315 105.744 22.4235C105.744 21.1635 106.808 20.3655 108.32 20.3655C109.818 20.3655 110.798 21.2055 110.826 22.5075H109.566C109.538 21.8215 109.076 21.3875 108.278 21.3875C107.452 21.3875 106.99 21.7515 106.99 22.3815C106.99 22.8435 107.326 23.1515 107.998 23.3195L109.202 23.6135C110.364 23.8935 110.938 24.4255 110.938 25.4475C110.938 26.7495 109.818 27.5755 108.194 27.5755C106.584 27.5755 105.562 26.7215 105.562 25.4195Z" fill="#0E213D" fill-opacity="0.7"/>
<mask id="mask0_8918_34378" style="mask-type:luminance" maskUnits="userSpaceOnUse" x="0" y="51" width="141" height="28">
<path d="M135 51.4082H6C2.68629 51.4082 0 54.0945 0 57.4082V72.7233C0 76.037 2.68629 78.7233 6 78.7233H135C138.314 78.7233 141 76.037 141 72.7233V57.4082C141 54.0945 138.314 51.4082 135 51.4082Z" fill="white"/>
</mask>
<g mask="url(#mask0_8918_34378)">
<path d="M135 51.4082H6C2.68629 51.4082 0 54.0945 0 57.4082V72.7233C0 76.037 2.68629 78.7233 6 78.7233H135C138.314 78.7233 141 76.037 141 72.7233V57.4082C141 54.0945 138.314 51.4082 135 51.4082Z" fill="white"/>
<mask id="mask1_8918_34378" style="mask-type:luminance" maskUnits="userSpaceOnUse" x="13" y="60" width="10" height="10">
<path d="M22.6226 60.5137H13.5176V69.6187H22.6226V60.5137Z" fill="white"/>
</mask>
<g mask="url(#mask1_8918_34378)">
<path d="M22.6226 65.0662C22.6226 67.5805 20.5844 69.6187 18.0701 69.6187C15.5558 69.6187 13.5176 67.5805 13.5176 65.0662C13.5176 62.5519 15.5558 60.5137 18.0701 60.5137C20.5844 60.5137 22.6226 62.5519 22.6226 65.0662Z" fill="#87CF5C"/>
<path fill-rule="evenodd" clip-rule="evenodd" d="M20.2077 63.617C20.3644 63.7266 20.3926 63.9298 20.2707 64.0708L18.3505 66.2925C18.0517 66.6383 17.4894 66.6832 17.1276 66.3901L15.9129 65.4064C15.7654 65.2869 15.7534 65.0824 15.8862 64.9496C16.019 64.8168 16.2462 64.8061 16.3938 64.9256L17.6084 65.9093C17.6601 65.9512 17.7404 65.9448 17.7831 65.8954L19.7033 63.6737C19.8252 63.5327 20.051 63.5073 20.2077 63.617Z" fill="white"/>
</g>
<path d="M76.6924 62.0664H31.6924C30.0355 62.0664 28.6924 63.4096 28.6924 65.0664C28.6924 66.7233 30.0355 68.0664 31.6924 68.0664H76.6924C78.3492 68.0664 79.6924 66.7233 79.6924 65.0664C79.6924 63.4096 78.3492 62.0664 76.6924 62.0664Z" fill="#EFEFEF"/>
</g>
<path d="M135 51.9082H6C2.96243 51.9082 0.5 54.3706 0.5 57.4082V72.7233C0.5 75.7609 2.96243 78.2233 6 78.2233H135C138.038 78.2233 140.5 75.7609 140.5 72.7233V57.4082C140.5 54.3706 138.038 51.9082 135 51.9082Z" stroke="#EFEFEF"/>
<path d="M282 51.9082H153C149.962 51.9082 147.5 54.3706 147.5 57.4082V72.7233C147.5 75.7609 149.962 78.2233 153 78.2233H282C285.038 78.2233 287.5 75.7609 287.5 72.7233V57.4082C287.5 54.3706 285.038 51.9082 282 51.9082Z" fill="white"/>
<path d="M282 51.9082H153C149.962 51.9082 147.5 54.3706 147.5 57.4082V72.7233C147.5 75.7609 149.962 78.2233 153 78.2233H282C285.038 78.2233 287.5 75.7609 287.5 72.7233V57.4082C287.5 54.3706 285.038 51.9082 282 51.9082Z" stroke="#EFEFEF"/>
<mask id="mask2_8918_34378" style="mask-type:luminance" maskUnits="userSpaceOnUse" x="160" y="60" width="10" height="10">
<path d="M169.623 60.5137H160.518V69.6187H169.623V60.5137Z" fill="white"/>
</mask>
<g mask="url(#mask2_8918_34378)">
<path d="M169.623 65.0662C169.623 67.5805 167.584 69.6187 165.07 69.6187C162.556 69.6187 160.518 67.5805 160.518 65.0662C160.518 62.5519 162.556 60.5137 165.07 60.5137C167.584 60.5137 169.623 62.5519 169.623 65.0662Z" fill="#87CF5C"/>
<path fill-rule="evenodd" clip-rule="evenodd" d="M167.207 63.617C167.363 63.7266 167.392 63.9298 167.27 64.0708L165.35 66.2925C165.051 66.6383 164.488 66.6832 164.127 66.3901L162.912 65.4064C162.764 65.2869 162.752 65.0824 162.885 64.9496C163.018 64.8168 163.245 64.8061 163.393 64.9256L164.607 65.9093C164.659 65.9512 164.739 65.9448 164.782 65.8954L166.702 63.6737C166.824 63.5327 167.05 63.5073 167.207 63.617Z" fill="white"/>
</g>
<path d="M230.692 62.0664H178.692C177.036 62.0664 175.692 63.4096 175.692 65.0664C175.692 66.7233 177.036 68.0664 178.692 68.0664H230.692C232.349 68.0664 233.692 66.7233 233.692 65.0664C233.692 63.4096 232.349 62.0664 230.692 62.0664Z" fill="#EFEFEF"/>
<mask id="mask3_8918_34378" style="mask-type:luminance" maskUnits="userSpaceOnUse" x="0" y="84" width="141" height="29">
<path d="M135 84.7227H6C2.68629 84.7227 0 87.4089 0 90.7227V106.034C0 109.348 2.68629 112.034 6 112.034H135C138.314 112.034 141 109.348 141 106.034V90.7227C141 87.4089 138.314 84.7227 135 84.7227Z" fill="white"/>
</mask>
<g mask="url(#mask3_8918_34378)">
<path d="M135 84.7227H6C2.68629 84.7227 0 87.4089 0 90.7227V106.034C0 109.348 2.68629 112.034 6 112.034H135C138.314 112.034 141 109.348 141 106.034V90.7227C141 87.4089 138.314 84.7227 135 84.7227Z" fill="white"/>
<mask id="mask4_8918_34378" style="mask-type:luminance" maskUnits="userSpaceOnUse" x="13" y="93" width="10" height="10">
<path d="M22.6188 93.8281H13.5166V102.93H22.6188V93.8281Z" fill="white"/>
</mask>
<g mask="url(#mask4_8918_34378)">
<path d="M18.0677 102.93C20.5812 102.93 22.6188 100.893 22.6188 98.3792C22.6188 95.8657 20.5812 93.8281 18.0677 93.8281C15.5542 93.8281 13.5166 95.8657 13.5166 98.3792C13.5166 100.893 15.5542 102.93 18.0677 102.93Z" fill="#75ACFF"/>
<path d="M18.5235 96.1035C18.5235 96.3549 18.3197 96.5587 18.0684 96.5587C17.817 96.5587 17.6133 96.3549 17.6133 96.1035C17.6133 95.8522 17.817 95.6484 18.0684 95.6484C18.3197 95.6484 18.5235 95.8522 18.5235 96.1035Z" fill="white"/>
<path fill-rule="evenodd" clip-rule="evenodd" d="M17.2715 97.4683C17.2715 97.2798 17.4243 97.127 17.6128 97.127H18.0679C18.2564 97.127 18.4093 97.2798 18.4093 97.4683V100.654C18.4093 100.843 18.2564 100.995 18.0679 100.995C17.8794 100.995 17.7266 100.843 17.7266 100.654V97.8096H17.6128C17.4243 97.8096 17.2715 97.6568 17.2715 97.4683Z" fill="white"/>
</g>
<path d="M90.6885 95.3789H31.6885C30.0316 95.3789 28.6885 96.7221 28.6885 98.3789C28.6885 100.036 30.0316 101.379 31.6885 101.379H90.6885C92.3453 101.379 93.6885 100.036 93.6885 98.3789C93.6885 96.7221 92.3453 95.3789 90.6885 95.3789Z" fill="#EFEFEF"/>
</g>
<path d="M135 85.2227H6C2.96243 85.2227 0.5 87.6851 0.5 90.7227V106.034C0.5 109.072 2.96243 111.534 6 111.534H135C138.038 111.534 140.5 109.072 140.5 106.034V90.7227C140.5 87.6851 138.038 85.2227 135 85.2227Z" stroke="#EFEFEF"/>
<path d="M282 85.2227H153C149.962 85.2227 147.5 87.6851 147.5 90.7227V105.723C147.5 108.76 149.962 111.223 153 111.223H282C285.038 111.223 287.5 108.76 287.5 105.723V90.7227C287.5 87.6851 285.038 85.2227 282 85.2227Z" fill="#FAFAFA"/>
<path d="M282 85.2227H153C149.962 85.2227 147.5 87.6851 147.5 90.7227V105.723C147.5 108.76 149.962 111.223 153 111.223H282C285.038 111.223 287.5 108.76 287.5 105.723V90.7227C287.5 87.6851 285.038 85.2227 282 85.2227Z" stroke="#D6D6D6" stroke-dasharray="8 8"/>
<g filter="url(#filter0_dd_8918_34378)">
<path d="M0 144.035C0 139.617 3.58172 136.035 8 136.035H280C284.418 136.035 288 139.617 288 144.035V224.48C288 228.898 284.418 232.48 280 232.48H8C3.58173 232.48 0 228.898 0 224.48V144.035Z" fill="white"/>
<path d="M0.5 144.035C0.5 139.893 3.85787 136.535 8 136.535H280C284.142 136.535 287.5 139.893 287.5 144.035V224.48C287.5 228.622 284.142 231.98 280 231.98H8C3.85787 231.98 0.5 228.622 0.5 224.48V144.035Z" stroke="#EFEFEF"/>
<mask id="mask5_8918_34378" style="mask-type:luminance" maskUnits="userSpaceOnUse" x="24" y="148" width="240" height="65">
<path d="M264 148.035H24V212.48H264V148.035Z" fill="white"/>
</mask>
<g mask="url(#mask5_8918_34378)">
<path d="M26.7298 162.034H25.2598V151.189H26.7298L32.2798 159.574V151.189H33.7498V162.034H32.2798L26.7298 153.649V162.034ZM35.5554 158.359C35.5554 156.094 37.1754 154.504 39.3804 154.504C41.5704 154.504 43.1904 156.094 43.1904 158.359C43.1904 160.624 41.5704 162.214 39.3804 162.214C37.1754 162.214 35.5554 160.624 35.5554 158.359ZM36.9804 158.359C36.9804 159.889 37.9554 160.954 39.3804 160.954C40.7904 160.954 41.7804 159.889 41.7804 158.359C41.7804 156.829 40.7904 155.764 39.3804 155.764C37.9554 155.764 36.9804 156.829 36.9804 158.359ZM46.748 162.034H45.338V155.884H43.898V154.699H45.338V152.404H46.748V154.699H48.188V155.884H46.748V162.034ZM52.5452 162.214C50.3852 162.214 48.9002 160.654 48.9002 158.374C48.9002 156.079 50.3552 154.489 52.4852 154.489C54.5702 154.489 55.9352 155.929 55.9352 158.104V158.629L50.2652 158.644C50.3702 160.189 51.1802 161.044 52.5752 161.044C53.6702 161.044 54.3902 160.594 54.6302 159.754H55.9502C55.5902 161.329 54.3602 162.214 52.5452 162.214ZM52.4852 155.674C51.2552 155.674 50.4752 156.409 50.2952 157.699H54.5252C54.5252 156.484 53.7302 155.674 52.4852 155.674ZM56.91 159.904H58.26C58.26 160.654 58.83 161.104 59.76 161.104C60.75 161.104 61.32 160.699 61.32 160.024C61.32 159.529 61.08 159.229 60.315 159.034L59.025 158.734C57.72 158.419 57.105 157.774 57.105 156.694C57.105 155.344 58.245 154.489 59.865 154.489C61.47 154.489 62.52 155.389 62.55 156.784H61.2C61.17 156.049 60.675 155.584 59.82 155.584C58.935 155.584 58.44 155.974 58.44 156.649C58.44 157.144 58.8 157.474 59.52 157.654L60.81 157.969C62.055 158.269 62.67 158.839 62.67 159.934C62.67 161.329 61.47 162.214 59.73 162.214C58.005 162.214 56.91 161.299 56.91 159.904Z" fill="#0E213D" fill-opacity="0.7"/>
<path d="M215 176.627H28C25.7909 176.627 24 178.418 24 180.627C24 182.836 25.7909 184.627 28 184.627H215C217.209 184.627 219 182.836 219 180.627C219 178.418 217.209 176.627 215 176.627Z" fill="#EFEFEF"/>
<path d="M230 190.553H28C25.7909 190.553 24 192.344 24 194.553C24 196.762 25.7909 198.553 28 198.553H230C232.209 198.553 234 196.762 234 194.553C234 192.344 232.209 190.553 230 190.553Z" fill="#EFEFEF"/>
<path d="M183 204.479H28C25.7909 204.479 24 206.269 24 208.479C24 210.688 25.7909 212.479 28 212.479H183C185.209 212.479 187 210.688 187 208.479C187 206.269 185.209 204.479 183 204.479Z" fill="#EFEFEF"/>
</g>
</g>
</g>
<defs>
<filter id="filter0_dd_8918_34378" x="-4" y="133.035" width="337" height="149.445" filterUnits="userSpaceOnUse" color-interpolation-filters="sRGB">
<feFlood flood-opacity="0" result="BackgroundImageFix"/>
<feColorMatrix in="SourceAlpha" type="matrix" values="0 0 0 0 0 0 0 0 0 0 0 0 0 0 0 0 0 0 127 0" result="hardAlpha"/>
<feOffset dx="7" dy="8"/>
<feGaussianBlur stdDeviation="5.5"/>
<feColorMatrix type="matrix" values="0 0 0 0 0.768627 0 0 0 0 0.768627 0 0 0 0 0.768627 0 0 0 0.09 0"/>
<feBlend mode="normal" in2="BackgroundImageFix" result="effect1_dropShadow_8918_34378"/>
<feColorMatrix in="SourceAlpha" type="matrix" values="0 0 0 0 0 0 0 0 0 0 0 0 0 0 0 0 0 0 127 0" result="hardAlpha"/>
<feOffset dx="28" dy="33"/>
<feGaussianBlur stdDeviation="8.5"/>
<feColorMatrix type="matrix" values="0 0 0 0 0.768627 0 0 0 0 0.768627 0 0 0 0 0.768627 0 0 0 0.01 0"/>
<feBlend mode="normal" in2="effect1_dropShadow_8918_34378" result="effect2_dropShadow_8918_34378"/>
<feBlend mode="normal" in="SourceGraphic" in2="effect2_dropShadow_8918_34378" result="shape"/>
</filter>
<clipPath id="clip0_8918_34378">
<rect width="288" height="233" fill="white"/>
</clipPath>
</defs>
</svg>
