<svg width="718" height="155" viewBox="0 0 718 155" fill="none" xmlns="http://www.w3.org/2000/svg">
<g filter="url(#filter0_dd_8814_27125)">
<path d="M13 10C13 7.79086 14.7909 6 17 6H70.7526C72.9617 6 74.7526 7.79086 74.7526 10V24C74.7526 26.2091 72.9617 28 70.7526 28H17C14.7909 28 13 26.2091 13 24V10Z" fill="#F7F7F7"/>
<circle cx="22.5258" cy="17.0004" r="3.52578" fill="#A6A6A6"/>
<path d="M31.6336 21V13.7273H34.1762C34.6829 13.7273 35.1007 13.8149 35.4298 13.9901C35.7588 14.1629 36.0039 14.3961 36.1649 14.6896C36.3258 14.9808 36.4063 15.304 36.4063 15.6591C36.4063 15.9716 36.3507 16.2296 36.2394 16.4332C36.1305 16.6368 35.9861 16.7978 35.8062 16.9162C35.6286 17.0346 35.4357 17.1222 35.2274 17.179V17.25C35.4499 17.2642 35.6736 17.3423 35.8985 17.4844C36.1234 17.6264 36.3116 17.83 36.4632 18.0952C36.6147 18.3603 36.6904 18.6847 36.6904 19.0682C36.6904 19.4328 36.6076 19.7607 36.4419 20.0518C36.2761 20.343 36.0145 20.5739 35.657 20.7443C35.2996 20.9148 34.8344 21 34.2615 21H31.6336ZM32.5143 20.2188H34.2615C34.8367 20.2188 35.2451 20.1075 35.4866 19.8849C35.7304 19.66 35.8524 19.3878 35.8524 19.0682C35.8524 18.822 35.7896 18.5947 35.6642 18.3864C35.5387 18.1757 35.3599 18.0076 35.1279 17.8821C34.8959 17.7543 34.6213 17.6903 34.3041 17.6903H32.5143V20.2188ZM32.5143 16.9233H34.1478C34.413 16.9233 34.6521 16.8712 34.8651 16.767C35.0806 16.6629 35.251 16.5161 35.3765 16.3267C35.5044 16.1373 35.5683 15.9148 35.5683 15.6591C35.5683 15.3395 35.457 15.0684 35.2345 14.8459C35.0119 14.621 34.6592 14.5085 34.1762 14.5085H32.5143V16.9233ZM39.629 21.1278C39.2834 21.1278 38.9697 21.0627 38.6879 20.9325C38.4062 20.8 38.1825 20.6094 38.0168 20.3608C37.8511 20.1098 37.7682 19.8068 37.7682 19.4517C37.7682 19.1392 37.8298 18.8859 37.9529 18.6918C38.076 18.4953 38.2405 18.3414 38.4465 18.2301C38.6524 18.1188 38.8797 18.036 39.1283 17.9815C39.3792 17.9247 39.6314 17.8797 39.8847 17.8466C40.2161 17.804 40.4848 17.772 40.6908 17.7507C40.8991 17.727 41.0506 17.688 41.1453 17.6335C41.2424 17.5791 41.2909 17.4844 41.2909 17.3494V17.321C41.2909 16.9706 41.195 16.6984 41.0033 16.5043C40.8139 16.3101 40.5262 16.2131 40.1404 16.2131C39.7403 16.2131 39.4266 16.3007 39.1993 16.4759C38.972 16.651 38.8122 16.8381 38.7199 17.0369L37.9244 16.7528C38.0665 16.4214 38.2559 16.1634 38.4926 15.9787C38.7317 15.7917 38.9922 15.6615 39.2739 15.5881C39.558 15.5123 39.8373 15.4744 40.1119 15.4744C40.2871 15.4744 40.4884 15.4957 40.7156 15.5384C40.9453 15.5786 41.1666 15.6626 41.3797 15.7905C41.5951 15.9183 41.7739 16.1113 41.9159 16.3693C42.058 16.6274 42.129 16.973 42.129 17.4062V21H41.2909V20.2614H41.2483C41.1915 20.3797 41.0968 20.5064 40.9642 20.6413C40.8316 20.7763 40.6553 20.8911 40.4351 20.9858C40.2149 21.0805 39.9462 21.1278 39.629 21.1278ZM39.7568 20.375C40.0883 20.375 40.3676 20.3099 40.5949 20.1797C40.8245 20.0495 40.9974 19.8814 41.1134 19.6754C41.2317 19.4695 41.2909 19.2528 41.2909 19.0256V18.2585C41.2554 18.3011 41.1773 18.3402 41.0566 18.3757C40.9382 18.4089 40.8009 18.4384 40.6446 18.4645C40.4907 18.4882 40.3404 18.5095 40.1936 18.5284C40.0492 18.545 39.932 18.5592 39.8421 18.571C39.6243 18.5994 39.4207 18.6456 39.2313 18.7095C39.0442 18.7711 38.8927 18.8646 38.7767 18.9901C38.6631 19.1132 38.6063 19.2812 38.6063 19.4943C38.6063 19.7855 38.714 20.0057 38.9294 20.1548C39.1472 20.3016 39.423 20.375 39.7568 20.375ZM45.8746 21.1136C45.3632 21.1136 44.9229 20.9929 44.5535 20.7514C44.1842 20.5099 43.9001 20.1773 43.7013 19.7536C43.5024 19.3298 43.403 18.8456 43.403 18.3011C43.403 17.7472 43.5048 17.2583 43.7084 16.8345C43.9143 16.4084 44.2008 16.0758 44.5677 15.8366C44.9371 15.5952 45.3679 15.4744 45.8604 15.4744C46.2439 15.4744 46.5895 15.5455 46.8973 15.6875C47.205 15.8295 47.4572 16.0284 47.6537 16.2841C47.8502 16.5398 47.9721 16.8381 48.0194 17.179H47.1814C47.1175 16.9304 46.9754 16.7102 46.7552 16.5185C46.5374 16.3243 46.2439 16.2273 45.8746 16.2273C45.5479 16.2273 45.2614 16.3125 45.0152 16.483C44.7713 16.651 44.5808 16.889 44.4434 17.1967C44.3085 17.5021 44.241 17.8608 44.241 18.2727C44.241 18.6941 44.3073 19.0611 44.4399 19.3736C44.5748 19.6861 44.7642 19.9287 45.0081 20.1016C45.2543 20.2744 45.5431 20.3608 45.8746 20.3608C46.0924 20.3608 46.29 20.3229 46.4676 20.2472C46.6452 20.1714 46.7955 20.0625 46.9186 19.9205C47.0417 19.7784 47.1293 19.608 47.1814 19.4091H48.0194C47.9721 19.7311 47.8549 20.0211 47.6679 20.2791C47.4832 20.5348 47.2382 20.7384 46.9328 20.8899C46.6298 21.0391 46.277 21.1136 45.8746 21.1136ZM50.0258 19.0114L50.0116 17.9744H50.1821L52.5684 15.5455H53.6054L51.0628 18.1165H50.9917L50.0258 19.0114ZM49.2446 21V13.7273H50.0827V21H49.2446ZM52.7105 21L50.5798 18.3011L51.1764 17.7188L53.7758 21H52.7105ZM55.5221 13.7273V21H54.684V13.7273H55.5221ZM59.273 21.1136C58.7806 21.1136 58.3485 20.9964 57.9768 20.7621C57.6075 20.5277 57.3187 20.1998 57.1104 19.7784C56.9044 19.357 56.8014 18.8646 56.8014 18.3011C56.8014 17.733 56.9044 17.237 57.1104 16.8132C57.3187 16.3894 57.6075 16.0604 57.9768 15.826C58.3485 15.5916 58.7806 15.4744 59.273 15.4744C59.7654 15.4744 60.1963 15.5916 60.5656 15.826C60.9373 16.0604 61.2261 16.3894 61.4321 16.8132C61.6404 17.237 61.7446 17.733 61.7446 18.3011C61.7446 18.8646 61.6404 19.357 61.4321 19.7784C61.2261 20.1998 60.9373 20.5277 60.5656 20.7621C60.1963 20.9964 59.7654 21.1136 59.273 21.1136ZM59.273 20.3608C59.647 20.3608 59.9548 20.2649 60.1963 20.0732C60.4378 19.8814 60.6165 19.6293 60.7325 19.3168C60.8485 19.0043 60.9065 18.6657 60.9065 18.3011C60.9065 17.9366 60.8485 17.5968 60.7325 17.282C60.6165 16.9671 60.4378 16.7126 60.1963 16.5185C59.9548 16.3243 59.647 16.2273 59.273 16.2273C58.8989 16.2273 58.5912 16.3243 58.3497 16.5185C58.1082 16.7126 57.9295 16.9671 57.8135 17.282C57.6975 17.5968 57.6395 17.9366 57.6395 18.3011C57.6395 18.6657 57.6975 19.0043 57.8135 19.3168C57.9295 19.6293 58.1082 19.8814 58.3497 20.0732C58.5912 20.2649 58.8989 20.3608 59.273 20.3608ZM65.2256 23.1591C64.8208 23.1591 64.4727 23.107 64.1816 23.0028C63.8904 22.901 63.6477 22.7661 63.4536 22.598C63.2618 22.4323 63.1091 22.2547 62.9955 22.0653L63.6631 21.5966C63.7388 21.696 63.8347 21.8097 63.9507 21.9375C64.0667 22.0677 64.2253 22.1802 64.4266 22.2749C64.6302 22.3719 64.8965 22.4205 65.2256 22.4205C65.6659 22.4205 66.0293 22.3139 66.3158 22.1009C66.6022 21.8878 66.7455 21.554 66.7455 21.0994V19.9915H66.6744C66.6129 20.0909 66.5253 20.214 66.4117 20.3608C66.3004 20.5052 66.1394 20.6342 65.9287 20.7479C65.7204 20.8591 65.4387 20.9148 65.0835 20.9148C64.6432 20.9148 64.2478 20.8106 63.8975 20.6023C63.5494 20.3939 63.2736 20.0909 63.07 19.6932C62.8688 19.2955 62.7682 18.8125 62.7682 18.2443C62.7682 17.6856 62.8664 17.1991 63.0629 16.7848C63.2594 16.3681 63.5329 16.0462 63.8833 15.8189C64.2336 15.5893 64.6385 15.4744 65.0977 15.4744C65.4529 15.4744 65.7346 15.5336 65.9429 15.652C66.1536 15.768 66.3146 15.9006 66.4259 16.0497C66.5395 16.1965 66.6271 16.3172 66.6887 16.4119H66.7739V15.5455H67.5835V21.1562C67.5835 21.625 67.477 22.0062 67.2639 22.2997C67.0532 22.5956 66.7691 22.8123 66.4117 22.9496C66.0566 23.0893 65.6612 23.1591 65.2256 23.1591ZM65.1972 20.1619C65.5334 20.1619 65.8174 20.085 66.0494 19.9311C66.2815 19.7772 66.4578 19.5559 66.5786 19.267C66.6993 18.9782 66.7597 18.6326 66.7597 18.2301C66.7597 17.8371 66.7005 17.4903 66.5821 17.1896C66.4637 16.889 66.2886 16.6534 66.0566 16.483C65.8245 16.3125 65.5381 16.2273 65.1972 16.2273C64.8421 16.2273 64.5461 16.3172 64.3094 16.4972C64.075 16.6771 63.8986 16.9186 63.7803 17.2216C63.6643 17.5246 63.6063 17.8608 63.6063 18.2301C63.6063 18.6089 63.6655 18.9439 63.7838 19.2351C63.9046 19.5239 64.0821 19.7512 64.3165 19.9169C64.5532 20.0803 64.8468 20.1619 65.1972 20.1619Z" fill="#0E213D" fill-opacity="0.7"/>
<path d="M191 10C191 7.79086 192.791 6 195 6H209C211.209 6 213 7.79086 213 10V24C213 26.2091 211.209 28 209 28H195C192.791 28 191 26.2091 191 24V10Z" fill="#F7F7F7"/>
<path d="M201.672 14.188H199.92V13.408H202.5V22H201.672V14.188Z" fill="#495057"/>
<path d="M17.9377 109.393C15.9822 108.582 14.418 107.018 13.607 105.062L14.0689 104.871C13.7025 103.987 13.5 103.018 13.5 102V98.375H13V91.125H13.5V83.875H13V76.625H13.5V69.375H13V62.125H13.5V54.875H13V47.625H13.5V44C13.5 42.9821 13.7025 42.0128 14.0689 41.1292L13.607 40.9377C14.418 38.9822 15.9822 37.418 17.9377 36.607L18.1292 37.0689C19.0128 36.7025 19.9821 36.5 21 36.5H24.8333V36H32.5V36.5H40.1667V36H47.8333V36.5H55.5V36H63.1667V36.5H70.8333V36H78.5V36.5H86.1667V36H93.8333V36.5H101.5V36H109.167V36.5H116.833V36H124.5V36.5H132.167V36H139.833V36.5H147.5V36H155.167V36.5H162.833V36H170.5V36.5H178.167V36H185.833V36.5H193.5V36H201.167V36.5H205C206.018 36.5 206.987 36.7025 207.871 37.0689L208.062 36.607C210.018 37.418 211.582 38.9822 212.393 40.9377L211.931 41.1292C212.298 42.0128 212.5 42.9821 212.5 44V47.625H213V54.875H212.5V62.125H213V69.375H212.5V76.625H213V83.875H212.5V91.125H213V98.375H212.5V102C212.5 103.018 212.298 103.987 211.931 104.871L212.393 105.062C211.582 107.018 210.018 108.582 208.062 109.393L207.871 108.931C206.987 109.298 206.018 109.5 205 109.5H201.167V110H193.5V109.5H185.833V110H178.167V109.5H170.5V110H162.833V109.5H155.167V110H147.5V109.5H139.833V110H132.167V109.5H124.5V110H116.833V109.5H109.167V110H101.5V109.5H93.8333V110H86.1667V109.5H78.5V110H70.8333V109.5H63.1667V110H55.5V109.5H47.8333V110H40.1667V109.5H32.5V110H24.8333V109.5H21C19.9821 109.5 19.0128 109.298 18.1292 108.931L17.9377 109.393Z" fill="#FAFAFA"/>
<path d="M17.9377 109.393C15.9822 108.582 14.418 107.018 13.607 105.062L14.0689 104.871C13.7025 103.987 13.5 103.018 13.5 102V98.375H13V91.125H13.5V83.875H13V76.625H13.5V69.375H13V62.125H13.5V54.875H13V47.625H13.5V44C13.5 42.9821 13.7025 42.0128 14.0689 41.1292L13.607 40.9377C14.418 38.9822 15.9822 37.418 17.9377 36.607L18.1292 37.0689C19.0128 36.7025 19.9821 36.5 21 36.5H24.8333V36H32.5V36.5H40.1667V36H47.8333V36.5H55.5V36H63.1667V36.5H70.8333V36H78.5V36.5H86.1667V36H93.8333V36.5H101.5V36H109.167V36.5H116.833V36H124.5V36.5H132.167V36H139.833V36.5H147.5V36H155.167V36.5H162.833V36H170.5V36.5H178.167V36H185.833V36.5H193.5V36H201.167V36.5H205C206.018 36.5 206.987 36.7025 207.871 37.0689L208.062 36.607C210.018 37.418 211.582 38.9822 212.393 40.9377L211.931 41.1292C212.298 42.0128 212.5 42.9821 212.5 44V47.625H213V54.875H212.5V62.125H213V69.375H212.5V76.625H213V83.875H212.5V91.125H213V98.375H212.5V102C212.5 103.018 212.298 103.987 211.931 104.871L212.393 105.062C211.582 107.018 210.018 108.582 208.062 109.393L207.871 108.931C206.987 109.298 206.018 109.5 205 109.5H201.167V110H193.5V109.5H185.833V110H178.167V109.5H170.5V110H162.833V109.5H155.167V110H147.5V109.5H139.833V110H132.167V109.5H124.5V110H116.833V109.5H109.167V110H101.5V109.5H93.8333V110H86.1667V109.5H78.5V110H70.8333V109.5H63.1667V110H55.5V109.5H47.8333V110H40.1667V109.5H32.5V110H24.8333V109.5H21C19.9821 109.5 19.0128 109.298 18.1292 108.931L17.9377 109.393Z" stroke="#D6D6D6" stroke-dasharray="8 8"/>
</g>
<path d="M245 10C245 7.79086 246.791 6 249 6H317.753C319.962 6 321.753 7.79086 321.753 10V24C321.753 26.2091 319.962 28 317.753 28H249C246.791 28 245 26.2091 245 24V10Z" fill="#F0F6FF"/>
<circle cx="254.526" cy="17.0004" r="3.52578" fill="#488AFE"/>
<path d="M264.514 13.7273V21H263.634V13.7273H264.514ZM267.005 17.7188V21H266.166V15.5455H266.976V16.3977H267.047C267.175 16.1207 267.369 15.8982 267.63 15.7301C267.89 15.5597 268.226 15.4744 268.638 15.4744C269.007 15.4744 269.331 15.5502 269.608 15.7017C269.884 15.8509 270.1 16.0781 270.254 16.3835C270.408 16.6866 270.485 17.0701 270.485 17.5341V21H269.647V17.5909C269.647 17.1624 269.535 16.8286 269.313 16.5895C269.09 16.348 268.785 16.2273 268.397 16.2273C268.129 16.2273 267.89 16.2853 267.679 16.4013C267.471 16.5173 267.306 16.6866 267.186 16.9091C267.065 17.1316 267.005 17.4015 267.005 17.7188ZM274.829 23.0455V15.5455H275.638V16.4119H275.738C275.799 16.3172 275.884 16.1965 275.993 16.0497C276.105 15.9006 276.263 15.768 276.469 15.652C276.678 15.5336 276.959 15.4744 277.314 15.4744C277.774 15.4744 278.178 15.5893 278.529 15.8189C278.879 16.0485 279.153 16.3741 279.349 16.7955C279.546 17.2169 279.644 17.714 279.644 18.2869C279.644 18.8646 279.546 19.3653 279.349 19.7891C279.153 20.2105 278.88 20.5372 278.532 20.7692C278.184 20.9988 277.783 21.1136 277.329 21.1136C276.978 21.1136 276.698 21.0556 276.487 20.9396C276.276 20.8213 276.114 20.6875 276 20.5384C275.887 20.3868 275.799 20.2614 275.738 20.1619H275.667V23.0455H274.829ZM275.652 18.2727C275.652 18.6847 275.713 19.0481 275.834 19.3629C275.954 19.6754 276.131 19.9205 276.363 20.098C276.595 20.2732 276.879 20.3608 277.215 20.3608C277.565 20.3608 277.858 20.2685 278.092 20.0838C278.329 19.8968 278.506 19.6458 278.625 19.331C278.745 19.0137 278.806 18.661 278.806 18.2727C278.806 17.8892 278.747 17.5436 278.628 17.2358C278.512 16.9257 278.336 16.6806 278.099 16.5007C277.865 16.3184 277.57 16.2273 277.215 16.2273C276.874 16.2273 276.588 16.3137 276.356 16.4865C276.124 16.657 275.948 16.8961 275.83 17.2038C275.712 17.5092 275.652 17.8655 275.652 18.2727ZM280.922 21V15.5455H281.732V16.3693H281.789C281.888 16.0994 282.068 15.8804 282.329 15.7124C282.589 15.5443 282.883 15.4602 283.209 15.4602C283.271 15.4602 283.348 15.4614 283.44 15.4638C283.532 15.4661 283.602 15.4697 283.65 15.4744V16.3267C283.621 16.3196 283.556 16.3089 283.454 16.2947C283.355 16.2782 283.249 16.2699 283.138 16.2699C282.873 16.2699 282.636 16.3255 282.428 16.4368C282.222 16.5457 282.059 16.6972 281.938 16.8913C281.82 17.0831 281.76 17.3021 281.76 17.5483V21H280.922ZM286.693 21.1136C286.2 21.1136 285.768 20.9964 285.397 20.7621C285.027 20.5277 284.739 20.1998 284.53 19.7784C284.324 19.357 284.221 18.8646 284.221 18.3011C284.221 17.733 284.324 17.237 284.53 16.8132C284.739 16.3894 285.027 16.0604 285.397 15.826C285.768 15.5916 286.2 15.4744 286.693 15.4744C287.185 15.4744 287.616 15.5916 287.986 15.826C288.357 16.0604 288.646 16.3894 288.852 16.8132C289.06 17.237 289.165 17.733 289.165 18.3011C289.165 18.8646 289.06 19.357 288.852 19.7784C288.646 20.1998 288.357 20.5277 287.986 20.7621C287.616 20.9964 287.185 21.1136 286.693 21.1136ZM286.693 20.3608C287.067 20.3608 287.375 20.2649 287.616 20.0732C287.858 19.8814 288.036 19.6293 288.152 19.3168C288.268 19.0043 288.326 18.6657 288.326 18.3011C288.326 17.9366 288.268 17.5968 288.152 17.282C288.036 16.9671 287.858 16.7126 287.616 16.5185C287.375 16.3243 287.067 16.2273 286.693 16.2273C286.319 16.2273 286.011 16.3243 285.77 16.5185C285.528 16.7126 285.349 16.9671 285.233 17.282C285.117 17.5968 285.059 17.9366 285.059 18.3011C285.059 18.6657 285.117 19.0043 285.233 19.3168C285.349 19.6293 285.528 19.8814 285.77 20.0732C286.011 20.2649 286.319 20.3608 286.693 20.3608ZM292.646 23.1591C292.241 23.1591 291.893 23.107 291.601 23.0028C291.31 22.901 291.068 22.7661 290.873 22.598C290.682 22.4323 290.529 22.2547 290.415 22.0653L291.083 21.5966C291.159 21.696 291.255 21.8097 291.371 21.9375C291.487 22.0677 291.645 22.1802 291.847 22.2749C292.05 22.3719 292.316 22.4205 292.646 22.4205C293.086 22.4205 293.449 22.3139 293.736 22.1009C294.022 21.8878 294.165 21.554 294.165 21.0994V19.9915H294.094C294.033 20.0909 293.945 20.214 293.832 20.3608C293.72 20.5052 293.559 20.6342 293.349 20.7479C293.14 20.8591 292.859 20.9148 292.503 20.9148C292.063 20.9148 291.668 20.8106 291.317 20.6023C290.969 20.3939 290.694 20.0909 290.49 19.6932C290.289 19.2955 290.188 18.8125 290.188 18.2443C290.188 17.6856 290.286 17.1991 290.483 16.7848C290.679 16.3681 290.953 16.0462 291.303 15.8189C291.654 15.5893 292.058 15.4744 292.518 15.4744C292.873 15.4744 293.155 15.5336 293.363 15.652C293.574 15.768 293.735 15.9006 293.846 16.0497C293.959 16.1965 294.047 16.3172 294.109 16.4119H294.194V15.5455H295.003V21.1562C295.003 21.625 294.897 22.0062 294.684 22.2997C294.473 22.5956 294.189 22.8123 293.832 22.9496C293.476 23.0893 293.081 23.1591 292.646 23.1591ZM292.617 20.1619C292.953 20.1619 293.237 20.085 293.469 19.9311C293.701 19.7772 293.878 19.5559 293.998 19.267C294.119 18.9782 294.18 18.6326 294.18 18.2301C294.18 17.8371 294.12 17.4903 294.002 17.1896C293.884 16.889 293.708 16.6534 293.476 16.483C293.244 16.3125 292.958 16.2273 292.617 16.2273C292.262 16.2273 291.966 16.3172 291.729 16.4972C291.495 16.6771 291.319 16.9186 291.2 17.2216C291.084 17.5246 291.026 17.8608 291.026 18.2301C291.026 18.6089 291.085 18.9439 291.204 19.2351C291.324 19.5239 291.502 19.7512 291.736 19.9169C291.973 20.0803 292.267 20.1619 292.617 20.1619ZM296.538 21V15.5455H297.347V16.3693H297.404C297.503 16.0994 297.683 15.8804 297.944 15.7124C298.204 15.5443 298.498 15.4602 298.824 15.4602C298.886 15.4602 298.963 15.4614 299.055 15.4638C299.148 15.4661 299.217 15.4697 299.265 15.4744V16.3267C299.236 16.3196 299.171 16.3089 299.07 16.2947C298.97 16.2782 298.865 16.2699 298.753 16.2699C298.488 16.2699 298.252 16.3255 298.043 16.4368C297.837 16.5457 297.674 16.6972 297.553 16.8913C297.435 17.0831 297.376 17.3021 297.376 17.5483V21H296.538ZM302.379 21.1136C301.854 21.1136 301.4 20.9976 301.019 20.7656C300.64 20.5312 300.348 20.2045 300.142 19.7855C299.938 19.3641 299.837 18.8741 299.837 18.3153C299.837 17.7566 299.938 17.2642 300.142 16.8381C300.348 16.4096 300.634 16.0758 301.001 15.8366C301.371 15.5952 301.802 15.4744 302.294 15.4744C302.578 15.4744 302.859 15.5218 303.136 15.6165C303.413 15.7112 303.665 15.8651 303.892 16.0781C304.119 16.2888 304.3 16.5682 304.435 16.9162C304.57 17.2642 304.638 17.6927 304.638 18.2017V18.5568H300.433V17.8324H303.785C303.785 17.5246 303.724 17.25 303.601 17.0085C303.48 16.767 303.307 16.5765 303.082 16.4368C302.86 16.2971 302.597 16.2273 302.294 16.2273C301.96 16.2273 301.671 16.3101 301.427 16.4759C301.186 16.6392 301 16.8523 300.87 17.1151C300.74 17.3778 300.675 17.6596 300.675 17.9602V18.4432C300.675 18.8551 300.746 19.2043 300.888 19.4908C301.032 19.7749 301.232 19.9915 301.488 20.1406C301.744 20.2874 302.041 20.3608 302.379 20.3608C302.599 20.3608 302.798 20.33 302.976 20.2685C303.156 20.2045 303.311 20.1098 303.441 19.9844C303.571 19.8565 303.672 19.6979 303.743 19.5085L304.552 19.7358C304.467 20.0104 304.324 20.2519 304.123 20.4602C303.922 20.6662 303.673 20.8272 303.377 20.9432C303.081 21.0568 302.748 21.1136 302.379 21.1136ZM309.776 16.767L309.023 16.9801C308.976 16.8546 308.906 16.7327 308.814 16.6143C308.724 16.4936 308.601 16.3942 308.445 16.3161C308.288 16.2379 308.088 16.1989 307.844 16.1989C307.511 16.1989 307.232 16.2758 307.01 16.4297C306.79 16.5812 306.68 16.7741 306.68 17.0085C306.68 17.2169 306.755 17.3814 306.907 17.5021C307.058 17.6229 307.295 17.7235 307.617 17.804L308.427 18.0028C308.914 18.1212 309.278 18.3023 309.517 18.5462C309.756 18.7876 309.876 19.099 309.876 19.4801C309.876 19.7926 309.786 20.072 309.606 20.3182C309.428 20.5644 309.18 20.7585 308.86 20.9006C308.54 21.0426 308.169 21.1136 307.745 21.1136C307.189 21.1136 306.728 20.9929 306.364 20.7514C305.999 20.5099 305.768 20.1572 305.671 19.6932L306.467 19.4943C306.542 19.7879 306.686 20.008 306.896 20.1548C307.109 20.3016 307.387 20.375 307.731 20.375C308.121 20.375 308.431 20.2921 308.661 20.1264C308.893 19.9583 309.009 19.7571 309.009 19.5227C309.009 19.3333 308.943 19.1747 308.81 19.0469C308.678 18.9167 308.474 18.8196 308.199 18.7557L307.29 18.5426C306.791 18.4242 306.424 18.2408 306.19 17.9922C305.958 17.7412 305.842 17.4276 305.842 17.0511C305.842 16.7434 305.928 16.4711 306.101 16.2344C306.276 15.9976 306.514 15.8118 306.815 15.6768C307.118 15.5419 307.461 15.4744 307.844 15.4744C308.384 15.4744 308.808 15.5928 309.116 15.8295C309.426 16.0663 309.646 16.3788 309.776 16.767ZM315.001 16.767L314.248 16.9801C314.201 16.8546 314.131 16.7327 314.038 16.6143C313.948 16.4936 313.825 16.3942 313.669 16.3161C313.513 16.2379 313.313 16.1989 313.069 16.1989C312.735 16.1989 312.457 16.2758 312.234 16.4297C312.014 16.5812 311.904 16.7741 311.904 17.0085C311.904 17.2169 311.98 17.3814 312.131 17.5021C312.283 17.6229 312.52 17.7235 312.842 17.804L313.651 18.0028C314.139 18.1212 314.502 18.3023 314.742 18.5462C314.981 18.7876 315.1 19.099 315.1 19.4801C315.1 19.7926 315.01 20.072 314.83 20.3182C314.653 20.5644 314.404 20.7585 314.085 20.9006C313.765 21.0426 313.393 21.1136 312.97 21.1136C312.413 21.1136 311.953 20.9929 311.588 20.7514C311.224 20.5099 310.993 20.1572 310.896 19.6932L311.691 19.4943C311.767 19.7879 311.91 20.008 312.121 20.1548C312.334 20.3016 312.612 20.375 312.955 20.375C313.346 20.375 313.656 20.2921 313.886 20.1264C314.118 19.9583 314.234 19.7571 314.234 19.5227C314.234 19.3333 314.167 19.1747 314.035 19.0469C313.902 18.9167 313.699 18.8196 313.424 18.7557L312.515 18.5426C312.015 18.4242 311.649 18.2408 311.414 17.9922C311.182 17.7412 311.066 17.4276 311.066 17.0511C311.066 16.7434 311.153 16.4711 311.325 16.2344C311.501 15.9976 311.738 15.8118 312.039 15.6768C312.342 15.5419 312.685 15.4744 313.069 15.4744C313.609 15.4744 314.033 15.5928 314.34 15.8295C314.65 16.0663 314.871 16.3788 315.001 16.767Z" fill="#0E213D" fill-opacity="0.7"/>
<path d="M423 10C423 7.79086 424.791 6 427 6H441C443.209 6 445 7.79086 445 10V24C445 26.2091 443.209 28 441 28H427C424.791 28 423 26.2091 423 24V10Z" fill="#F0F6FF"/>
<path d="M433.672 14.188H431.92V13.408H434.5V22H433.672V14.188Z" fill="#495057"/>
<g filter="url(#filter1_dd_8814_27125)">
<path d="M245 44C245 39.5817 248.582 36 253 36H437C441.418 36 445 39.5817 445 44V102C445 106.418 441.418 110 437 110H253C248.582 110 245 106.418 245 102V44Z" fill="url(#paint0_linear_8814_27125)"/>
<path d="M245 44C245 39.5817 248.582 36 253 36H437C441.418 36 445 39.5817 445 44V102C445 106.418 441.418 110 437 110H253C248.582 110 245 106.418 245 102V44Z" fill="#F5F9FF"/>
<path d="M249.938 109.393C247.982 108.582 246.418 107.018 245.607 105.062L246.069 104.871C245.702 103.987 245.5 103.018 245.5 102V98.375H245V91.125H245.5V83.875H245V76.625H245.5V69.375H245V62.125H245.5V54.875H245V47.625H245.5V44C245.5 42.9821 245.702 42.0128 246.069 41.1292L245.607 40.9377C246.418 38.9822 247.982 37.418 249.938 36.607L250.129 37.0689C251.013 36.7025 251.982 36.5 253 36.5H256.833V36H264.5V36.5H272.167V36H279.833V36.5H287.5V36H295.167V36.5H302.833V36H310.5V36.5H318.167V36H325.833V36.5H333.5V36H341.167V36.5H348.833V36H356.5V36.5H364.167V36H371.833V36.5H379.5V36H387.167V36.5H394.833V36H402.5V36.5H410.167V36H417.833V36.5H425.5V36H433.167V36.5H437C438.018 36.5 438.987 36.7025 439.871 37.0689L440.062 36.607C442.018 37.418 443.582 38.9822 444.393 40.9377L443.931 41.1292C444.298 42.0128 444.5 42.9821 444.5 44V47.625H445V54.875H444.5V62.125H445V69.375H444.5V76.625H445V83.875H444.5V91.125H445V98.375H444.5V102C444.5 103.018 444.298 103.987 443.931 104.871L444.393 105.062C443.582 107.018 442.018 108.582 440.062 109.393L439.871 108.931C438.987 109.298 438.018 109.5 437 109.5H433.167V110H425.5V109.5H417.833V110H410.167V109.5H402.5V110H394.833V109.5H387.167V110H379.5V109.5H371.833V110H364.167V109.5H356.5V110H348.833V109.5H341.167V110H333.5V109.5H325.833V110H318.167V109.5H310.5V110H302.833V109.5H295.167V110H287.5V109.5H279.833V110H272.167V109.5H264.5V110H256.833V109.5H253C251.982 109.5 251.013 109.298 250.129 108.931L249.938 109.393Z" stroke="#4C8CFE" stroke-opacity="0.6" stroke-dasharray="8 8"/>
</g>
<path d="M477 10C477 7.79086 478.791 6 481 6H542.753C544.962 6 546.753 7.79086 546.753 10V24C546.753 26.2091 544.962 28 542.753 28H481C478.791 28 477 26.2091 477 24V10Z" fill="#F1F9F1"/>
<circle cx="486.526" cy="17.0004" r="3.52578" fill="#66BB6A"/>
<path d="M501.486 16H500.605C500.553 15.7467 500.462 15.5241 500.332 15.3324C500.204 15.1406 500.048 14.9796 499.863 14.8494C499.681 14.7169 499.478 14.6174 499.256 14.5511C499.033 14.4848 498.801 14.4517 498.56 14.4517C498.119 14.4517 497.72 14.563 497.363 14.7855C497.008 15.008 496.725 15.3359 496.514 15.7692C496.306 16.2024 496.202 16.7339 496.202 17.3636C496.202 17.9934 496.306 18.5249 496.514 18.9581C496.725 19.3913 497.008 19.7192 497.363 19.9418C497.72 20.1643 498.119 20.2756 498.56 20.2756C498.801 20.2756 499.033 20.2424 499.256 20.1761C499.478 20.1098 499.681 20.0116 499.863 19.8814C500.048 19.7488 500.204 19.5866 500.332 19.3949C500.462 19.2008 500.553 18.9782 500.605 18.7273H501.486C501.42 19.099 501.299 19.4316 501.124 19.7251C500.948 20.0187 500.731 20.2685 500.47 20.4744C500.21 20.678 499.917 20.8331 499.593 20.9396C499.271 21.0462 498.927 21.0994 498.56 21.0994C497.939 21.0994 497.388 20.9479 496.905 20.6449C496.422 20.3419 496.042 19.911 495.765 19.3523C495.488 18.7936 495.35 18.1307 495.35 17.3636C495.35 16.5966 495.488 15.9337 495.765 15.375C496.042 14.8163 496.422 14.3854 496.905 14.0824C497.388 13.7794 497.939 13.6278 498.56 13.6278C498.927 13.6278 499.271 13.6811 499.593 13.7876C499.917 13.8942 500.21 14.0504 500.47 14.2564C500.731 14.46 500.948 14.7086 501.124 15.0021C501.299 15.2933 501.42 15.6259 501.486 16ZM505.011 21.1136C504.519 21.1136 504.087 20.9964 503.715 20.7621C503.346 20.5277 503.057 20.1998 502.849 19.7784C502.643 19.357 502.54 18.8646 502.54 18.3011C502.54 17.733 502.643 17.237 502.849 16.8132C503.057 16.3894 503.346 16.0604 503.715 15.826C504.087 15.5916 504.519 15.4744 505.011 15.4744C505.504 15.4744 505.935 15.5916 506.304 15.826C506.676 16.0604 506.964 16.3894 507.17 16.8132C507.379 17.237 507.483 17.733 507.483 18.3011C507.483 18.8646 507.379 19.357 507.17 19.7784C506.964 20.1998 506.676 20.5277 506.304 20.7621C505.935 20.9964 505.504 21.1136 505.011 21.1136ZM505.011 20.3608C505.385 20.3608 505.693 20.2649 505.935 20.0732C506.176 19.8814 506.355 19.6293 506.471 19.3168C506.587 19.0043 506.645 18.6657 506.645 18.3011C506.645 17.9366 506.587 17.5968 506.471 17.282C506.355 16.9671 506.176 16.7126 505.935 16.5185C505.693 16.3243 505.385 16.2273 505.011 16.2273C504.637 16.2273 504.329 16.3243 504.088 16.5185C503.847 16.7126 503.668 16.9671 503.552 17.282C503.436 17.5968 503.378 17.9366 503.378 18.3011C503.378 18.6657 503.436 19.0043 503.552 19.3168C503.668 19.6293 503.847 19.8814 504.088 20.0732C504.329 20.2649 504.637 20.3608 505.011 20.3608ZM508.762 21V15.5455H509.572V16.3977H509.643C509.756 16.1065 509.94 15.8804 510.193 15.7195C510.447 15.5561 510.751 15.4744 511.106 15.4744C511.466 15.4744 511.765 15.5561 512.004 15.7195C512.246 15.8804 512.434 16.1065 512.569 16.3977H512.626C512.765 16.116 512.975 15.8923 513.254 15.7266C513.534 15.5585 513.869 15.4744 514.259 15.4744C514.747 15.4744 515.146 15.6271 515.456 15.9325C515.766 16.2356 515.921 16.7079 515.921 17.3494V21H515.083V17.3494C515.083 16.947 514.973 16.6593 514.753 16.4865C514.533 16.3137 514.274 16.2273 513.975 16.2273C513.592 16.2273 513.295 16.3433 513.084 16.5753C512.873 16.8049 512.768 17.0961 512.768 17.4489V21H511.916V17.2642C511.916 16.9541 511.815 16.7043 511.614 16.5149C511.412 16.3232 511.153 16.2273 510.836 16.2273C510.618 16.2273 510.415 16.2853 510.225 16.4013C510.038 16.5173 509.887 16.6783 509.771 16.8842C509.657 17.0878 509.6 17.3234 509.6 17.5909V21H508.762ZM517.454 23.0455V15.5455H518.263V16.4119H518.363C518.424 16.3172 518.509 16.1965 518.618 16.0497C518.73 15.9006 518.888 15.768 519.094 15.652C519.303 15.5336 519.584 15.4744 519.939 15.4744C520.399 15.4744 520.803 15.5893 521.154 15.8189C521.504 16.0485 521.778 16.3741 521.974 16.7955C522.171 17.2169 522.269 17.714 522.269 18.2869C522.269 18.8646 522.171 19.3653 521.974 19.7891C521.778 20.2105 521.505 20.5372 521.157 20.7692C520.809 20.9988 520.408 21.1136 519.954 21.1136C519.603 21.1136 519.323 21.0556 519.112 20.9396C518.901 20.8213 518.739 20.6875 518.625 20.5384C518.512 20.3868 518.424 20.2614 518.363 20.1619H518.292V23.0455H517.454ZM518.277 18.2727C518.277 18.6847 518.338 19.0481 518.459 19.3629C518.579 19.6754 518.756 19.9205 518.988 20.098C519.22 20.2732 519.504 20.3608 519.84 20.3608C520.19 20.3608 520.483 20.2685 520.717 20.0838C520.954 19.8968 521.131 19.6458 521.25 19.331C521.37 19.0137 521.431 18.661 521.431 18.2727C521.431 17.8892 521.372 17.5436 521.253 17.2358C521.137 16.9257 520.961 16.6806 520.724 16.5007C520.49 16.3184 520.195 16.2273 519.84 16.2273C519.499 16.2273 519.213 16.3137 518.981 16.4865C518.749 16.657 518.573 16.8961 518.455 17.2038C518.337 17.5092 518.277 17.8655 518.277 18.2727ZM524.385 13.7273V21H523.547V13.7273H524.385ZM528.207 21.1136C527.682 21.1136 527.228 20.9976 526.847 20.7656C526.468 20.5312 526.176 20.2045 525.97 19.7855C525.766 19.3641 525.665 18.8741 525.665 18.3153C525.665 17.7566 525.766 17.2642 525.97 16.8381C526.176 16.4096 526.463 16.0758 526.829 15.8366C527.199 15.5952 527.63 15.4744 528.122 15.4744C528.406 15.4744 528.687 15.5218 528.964 15.6165C529.241 15.7112 529.493 15.8651 529.72 16.0781C529.947 16.2888 530.128 16.5682 530.263 16.9162C530.398 17.2642 530.466 17.6927 530.466 18.2017V18.5568H526.261V17.8324H529.614C529.614 17.5246 529.552 17.25 529.429 17.0085C529.308 16.767 529.135 16.5765 528.91 16.4368C528.688 16.2971 528.425 16.2273 528.122 16.2273C527.788 16.2273 527.499 16.3101 527.256 16.4759C527.014 16.6392 526.828 16.8523 526.698 17.1151C526.568 17.3778 526.503 17.6596 526.503 17.9602V18.4432C526.503 18.8551 526.574 19.2043 526.716 19.4908C526.86 19.7749 527.06 19.9915 527.316 20.1406C527.572 20.2874 527.869 20.3608 528.207 20.3608C528.427 20.3608 528.626 20.33 528.804 20.2685C528.984 20.2045 529.139 20.1098 529.269 19.9844C529.399 19.8565 529.5 19.6979 529.571 19.5085L530.381 19.7358C530.295 20.0104 530.152 20.2519 529.951 20.4602C529.75 20.6662 529.501 20.8272 529.205 20.9432C528.909 21.0568 528.577 21.1136 528.207 21.1136ZM534.113 15.5455V16.2557H531.286V15.5455H534.113ZM532.11 14.2386H532.948V19.4375C532.948 19.6742 532.982 19.8518 533.051 19.9702C533.122 20.0862 533.212 20.1643 533.321 20.2045C533.432 20.2424 533.549 20.2614 533.672 20.2614C533.765 20.2614 533.841 20.2566 533.9 20.2472C533.959 20.2353 534.006 20.2259 534.042 20.2188L534.212 20.9716C534.155 20.9929 534.076 21.0142 533.974 21.0355C533.873 21.0592 533.744 21.071 533.587 21.071C533.351 21.071 533.119 21.0201 532.891 20.9183C532.666 20.8165 532.479 20.6615 532.33 20.4531C532.183 20.2448 532.11 19.982 532.11 19.6648V14.2386ZM537.602 21.1136C537.076 21.1136 536.623 20.9976 536.242 20.7656C535.863 20.5312 535.571 20.2045 535.365 19.7855C535.161 19.3641 535.059 18.8741 535.059 18.3153C535.059 17.7566 535.161 17.2642 535.365 16.8381C535.571 16.4096 535.857 16.0758 536.224 15.8366C536.593 15.5952 537.024 15.4744 537.517 15.4744C537.801 15.4744 538.081 15.5218 538.358 15.6165C538.635 15.7112 538.887 15.8651 539.115 16.0781C539.342 16.2888 539.523 16.5682 539.658 16.9162C539.793 17.2642 539.86 17.6927 539.86 18.2017V18.5568H535.656V17.8324H539.008C539.008 17.5246 538.947 17.25 538.823 17.0085C538.703 16.767 538.53 16.5765 538.305 16.4368C538.082 16.2971 537.82 16.2273 537.517 16.2273C537.183 16.2273 536.894 16.3101 536.65 16.4759C536.409 16.6392 536.223 16.8523 536.093 17.1151C535.962 17.3778 535.897 17.6596 535.897 17.9602V18.4432C535.897 18.8551 535.968 19.2043 536.11 19.4908C536.255 19.7749 536.455 19.9915 536.71 20.1406C536.966 20.2874 537.263 20.3608 537.602 20.3608C537.822 20.3608 538.021 20.33 538.198 20.2685C538.378 20.2045 538.533 20.1098 538.664 19.9844C538.794 19.8565 538.894 19.6979 538.965 19.5085L539.775 19.7358C539.69 20.0104 539.547 20.2519 539.345 20.4602C539.144 20.6662 538.896 20.8272 538.6 20.9432C538.304 21.0568 537.971 21.1136 537.602 21.1136Z" fill="#0E213D" fill-opacity="0.7"/>
<path d="M655 10C655 7.79086 656.791 6 659 6H673C675.209 6 677 7.79086 677 10V24C677 26.2091 675.209 28 673 28H659C656.791 28 655 26.2091 655 24V10Z" fill="#F5FAF7"/>
<path d="M655 10C655 7.79086 656.791 6 659 6H673C675.209 6 677 7.79086 677 10V24C677 26.2091 675.209 28 673 28H659C656.791 28 655 26.2091 655 24V10Z" fill="url(#paint1_linear_8814_27125)" fill-opacity="0.87"/>
<path d="M655 10C655 7.79086 656.791 6 659 6H673C675.209 6 677 7.79086 677 10V24C677 26.2091 675.209 28 673 28H659C656.791 28 655 26.2091 655 24V10Z" fill="#F1F9F1"/>
<path d="M665.672 14.188H663.92V13.408H666.5V22H665.672V14.188Z" fill="#495057"/>
<g filter="url(#filter2_dd_8814_27125)">
<path d="M477 44C477 39.5817 480.582 36 485 36H669C673.418 36 677 39.5817 677 44V102C677 106.418 673.418 110 669 110H485C480.582 110 477 106.418 477 102V44Z" fill="#F8FCF8"/>
<path d="M481.938 109.393C479.982 108.582 478.418 107.018 477.607 105.062L478.069 104.871C477.702 103.987 477.5 103.018 477.5 102V98.375H477V91.125H477.5V83.875H477V76.625H477.5V69.375H477V62.125H477.5V54.875H477V47.625H477.5V44C477.5 42.9821 477.702 42.0128 478.069 41.1292L477.607 40.9377C478.418 38.9822 479.982 37.418 481.938 36.607L482.129 37.0689C483.013 36.7025 483.982 36.5 485 36.5H488.833V36H496.5V36.5H504.167V36H511.833V36.5H519.5V36H527.167V36.5H534.833V36H542.5V36.5H550.167V36H557.833V36.5H565.5V36H573.167V36.5H580.833V36H588.5V36.5H596.167V36H603.833V36.5H611.5V36H619.167V36.5H626.833V36H634.5V36.5H642.167V36H649.833V36.5H657.5V36H665.167V36.5H669C670.018 36.5 670.987 36.7025 671.871 37.0689L672.062 36.607C674.018 37.418 675.582 38.9822 676.393 40.9377L675.931 41.1292C676.298 42.0128 676.5 42.9821 676.5 44V47.625H677V54.875H676.5V62.125H677V69.375H676.5V76.625H677V83.875H676.5V91.125H677V98.375H676.5V102C676.5 103.018 676.298 103.987 675.931 104.871L676.393 105.062C675.582 107.018 674.018 108.582 672.062 109.393L671.871 108.931C670.987 109.298 670.018 109.5 669 109.5H665.167V110H657.5V109.5H649.833V110H642.167V109.5H634.5V110H626.833V109.5H619.167V110H611.5V109.5H603.833V110H596.167V109.5H588.5V110H580.833V109.5H573.167V110H565.5V109.5H557.833V110H550.167V109.5H542.5V110H534.833V109.5H527.167V110H519.5V109.5H511.833V110H504.167V109.5H496.5V110H488.833V109.5H485C483.982 109.5 483.013 109.298 482.129 108.931L481.938 109.393Z" stroke="#6CAD45" stroke-opacity="0.6" stroke-dasharray="8 8"/>
</g>
<g filter="url(#filter3_dddd_8814_27125)">
<path d="M11.1696 9.19427C11.708 4.80893 15.6996 1.69041 20.0849 2.22886L200.063 24.3274C204.449 24.8659 207.567 28.8574 207.029 33.2428L200.043 90.137C199.505 94.5224 195.513 97.6409 191.128 97.1024L11.1493 75.0039C6.76391 74.4654 3.64539 70.4739 4.18384 66.0885L11.1696 9.19427Z" fill="#FCFCFC"/>
<path d="M11.4909 9.23373C12.0076 5.02584 15.8376 2.03351 20.0454 2.55017L200.024 24.6487C204.232 25.1654 207.224 28.9954 206.707 33.2033L199.722 90.0976C199.205 94.3055 195.375 97.2978 191.167 96.7811L11.1887 74.6825C6.98082 74.1659 3.98849 70.3359 4.50515 66.128L11.4909 9.23373Z" stroke="url(#paint2_radial_8814_27125)" stroke-width="0.64745"/>
<path d="M11.4909 9.23373C12.0076 5.02584 15.8376 2.03351 20.0454 2.55017L200.024 24.6487C204.232 25.1654 207.224 28.9954 206.707 33.2033L199.722 90.0976C199.205 94.3055 195.375 97.2978 191.167 96.7811L11.1887 74.6825C6.98082 74.1659 3.98849 70.3359 4.50515 66.128L11.4909 9.23373Z" stroke="url(#paint3_radial_8814_27125)" stroke-width="0.64745"/>
<rect x="25.6738" y="18.5703" width="100" height="6" rx="3" transform="rotate(7 25.6738 18.5703)" fill="#EFEFEF"/>
<rect x="24.4551" y="28.4961" width="129" height="6" rx="3" transform="rotate(7 24.4551 28.4961)" fill="#EFEFEF"/>
<rect x="22.4619" y="44.7324" width="32.3592" height="15.8847" rx="2.5898" transform="rotate(7 22.4619 44.7324)" fill="#EFEFEF"/>
<path d="M27.0216 57.3238L27.908 50.1053L28.7821 50.2126L28.3874 53.4271L32.2363 53.8997L32.631 50.6852L33.5051 50.7925L32.6188 58.0111L31.7447 57.9037L32.1411 54.6751L28.2922 54.2025L27.8958 57.4311L27.0216 57.3238ZM34.256 58.2121L34.9208 52.7982L35.7526 52.9003L35.0878 58.3142L34.256 58.2121ZM35.4545 51.9478C35.2924 51.9279 35.1593 51.8555 35.0554 51.7306C34.9538 51.6061 34.9126 51.4662 34.9316 51.3112C34.9506 51.1561 35.0245 51.0304 35.1532 50.9341C35.2843 50.8381 35.4309 50.8 35.593 50.8199C35.7551 50.8398 35.887 50.9121 35.9886 51.0366C36.0925 51.1615 36.1349 51.3015 36.1159 51.4566C36.0969 51.6117 36.0218 51.7372 35.8908 51.8332C35.7621 51.9295 35.6166 51.9677 35.4545 51.9478ZM38.5335 60.9126C38.1317 60.8633 37.7927 60.7692 37.5163 60.6303C37.2397 60.4937 37.0153 60.3302 36.8431 60.1397C36.673 59.9519 36.5431 59.757 36.4533 59.5552L37.1731 59.1713C37.2362 59.2792 37.3175 59.4037 37.4171 59.5447C37.5163 59.6881 37.6601 59.8191 37.8482 59.9376C38.0385 60.0587 38.2969 60.1394 38.6236 60.1795C39.0606 60.2331 39.4343 60.1717 39.7446 59.9951C40.0549 59.8185 40.2377 59.5047 40.2931 59.0535L40.4281 57.9538L40.3576 57.9452C40.2844 58.0364 40.1825 58.1479 40.0518 58.2797C39.9238 58.4095 39.7483 58.5179 39.5253 58.605C39.3049 58.6901 39.0185 58.711 38.6661 58.6677C38.229 58.614 37.8493 58.4625 37.5269 58.213C37.2069 57.9638 36.9701 57.6294 36.8165 57.2098C36.6652 56.7905 36.6242 56.2989 36.6934 55.735C36.7615 55.1804 36.9183 54.7095 37.1638 54.3223C37.4097 53.9326 37.7203 53.6464 38.0958 53.4635C38.4715 53.2783 38.8873 53.2137 39.3432 53.2696C39.6956 53.3129 39.9681 53.406 40.1604 53.5489C40.3554 53.6897 40.499 53.8409 40.5913 54.0025C40.6862 54.162 40.7584 54.2925 40.808 54.394L40.8926 54.4044L40.9982 53.5444L41.8018 53.6431L41.118 59.212C41.0609 59.6773 40.9087 60.0426 40.6614 60.308C40.4162 60.5761 40.1079 60.7565 39.7363 60.8492C39.3668 60.9445 38.9659 60.9657 38.5335 60.9126ZM38.8706 57.9343C39.2043 57.9753 39.4956 57.9335 39.7447 57.8091C39.9937 57.6846 40.1957 57.4864 40.3508 57.2144C40.5058 56.9425 40.6078 56.6068 40.6569 56.2073C40.7048 55.8173 40.6883 55.4658 40.6075 55.1529C40.5266 54.8401 40.3814 54.5849 40.1719 54.3875C39.9624 54.19 39.6885 54.0705 39.3501 54.029C38.9977 53.9857 38.693 54.0389 38.4361 54.1887C38.1815 54.3387 37.977 54.5569 37.8226 54.8432C37.6705 55.1298 37.572 55.4564 37.527 55.823C37.4808 56.199 37.4987 56.5387 37.5807 56.8421C37.6654 57.1435 37.8139 57.3907 38.0263 57.5838C38.2414 57.7748 38.5228 57.8916 38.8706 57.9343ZM43.8914 56.0893L43.4915 59.3461L42.6597 59.2439L43.546 52.0254L44.3778 52.1275L44.0524 54.7781L44.1229 54.7867C44.2841 54.5227 44.5017 54.324 44.7757 54.1907C45.0523 54.0553 45.4033 54.0137 45.8286 54.0659C46.1975 54.1112 46.5115 54.2249 46.7706 54.407C47.03 54.5867 47.2174 54.8375 47.3329 55.1594C47.4511 55.4792 47.4816 55.8718 47.4245 56.337L47.0021 59.7771L46.1703 59.675L46.5857 56.2913C46.6385 55.8613 46.5677 55.5151 46.3734 55.2527C46.1816 54.9882 45.8895 54.8319 45.4971 54.7837C45.2246 54.7503 44.9731 54.7778 44.7428 54.8664C44.5148 54.9553 44.325 55.1026 44.1734 55.3081C44.0241 55.514 43.9301 55.7744 43.8914 56.0893Z" fill="#0E213D" fill-opacity="0.7"/>
</g>
<defs>
<filter id="filter0_dd_8814_27125" x="9" y="4" width="245" height="153" filterUnits="userSpaceOnUse" color-interpolation-filters="sRGB">
<feFlood flood-opacity="0" result="BackgroundImageFix"/>
<feColorMatrix in="SourceAlpha" type="matrix" values="0 0 0 0 0 0 0 0 0 0 0 0 0 0 0 0 0 0 127 0" result="hardAlpha"/>
<feOffset dx="6" dy="8"/>
<feGaussianBlur stdDeviation="5"/>
<feColorMatrix type="matrix" values="0 0 0 0 0.529412 0 0 0 0 0.529412 0 0 0 0 0.529412 0 0 0 0.09 0"/>
<feBlend mode="normal" in2="BackgroundImageFix" result="effect1_dropShadow_8814_27125"/>
<feColorMatrix in="SourceAlpha" type="matrix" values="0 0 0 0 0 0 0 0 0 0 0 0 0 0 0 0 0 0 127 0" result="hardAlpha"/>
<feOffset dx="25" dy="31"/>
<feGaussianBlur stdDeviation="8"/>
<feColorMatrix type="matrix" values="0 0 0 0 0.529412 0 0 0 0 0.529412 0 0 0 0 0.529412 0 0 0 0.01 0"/>
<feBlend mode="normal" in2="effect1_dropShadow_8814_27125" result="effect2_dropShadow_8814_27125"/>
<feBlend mode="normal" in="SourceGraphic" in2="effect2_dropShadow_8814_27125" result="shape"/>
</filter>
<filter id="filter1_dd_8814_27125" x="241" y="34" width="245" height="123" filterUnits="userSpaceOnUse" color-interpolation-filters="sRGB">
<feFlood flood-opacity="0" result="BackgroundImageFix"/>
<feColorMatrix in="SourceAlpha" type="matrix" values="0 0 0 0 0 0 0 0 0 0 0 0 0 0 0 0 0 0 127 0" result="hardAlpha"/>
<feOffset dx="6" dy="8"/>
<feGaussianBlur stdDeviation="5"/>
<feColorMatrix type="matrix" values="0 0 0 0 0.298039 0 0 0 0 0.54902 0 0 0 0 0.996078 0 0 0 0.09 0"/>
<feBlend mode="normal" in2="BackgroundImageFix" result="effect1_dropShadow_8814_27125"/>
<feColorMatrix in="SourceAlpha" type="matrix" values="0 0 0 0 0 0 0 0 0 0 0 0 0 0 0 0 0 0 127 0" result="hardAlpha"/>
<feOffset dx="25" dy="31"/>
<feGaussianBlur stdDeviation="8"/>
<feColorMatrix type="matrix" values="0 0 0 0 0.298039 0 0 0 0 0.54902 0 0 0 0 0.996078 0 0 0 0.01 0"/>
<feBlend mode="normal" in2="effect1_dropShadow_8814_27125" result="effect2_dropShadow_8814_27125"/>
<feBlend mode="normal" in="SourceGraphic" in2="effect2_dropShadow_8814_27125" result="shape"/>
</filter>
<filter id="filter2_dd_8814_27125" x="473" y="34" width="245" height="123" filterUnits="userSpaceOnUse" color-interpolation-filters="sRGB">
<feFlood flood-opacity="0" result="BackgroundImageFix"/>
<feColorMatrix in="SourceAlpha" type="matrix" values="0 0 0 0 0 0 0 0 0 0 0 0 0 0 0 0 0 0 127 0" result="hardAlpha"/>
<feOffset dx="6" dy="8"/>
<feGaussianBlur stdDeviation="5"/>
<feColorMatrix type="matrix" values="0 0 0 0 0.4 0 0 0 0 0.733333 0 0 0 0 0.415686 0 0 0 0.09 0"/>
<feBlend mode="normal" in2="BackgroundImageFix" result="effect1_dropShadow_8814_27125"/>
<feColorMatrix in="SourceAlpha" type="matrix" values="0 0 0 0 0 0 0 0 0 0 0 0 0 0 0 0 0 0 127 0" result="hardAlpha"/>
<feOffset dx="25" dy="31"/>
<feGaussianBlur stdDeviation="8"/>
<feColorMatrix type="matrix" values="0 0 0 0 0.4 0 0 0 0 0.733333 0 0 0 0 0.415686 0 0 0 0.01 0"/>
<feBlend mode="normal" in2="effect1_dropShadow_8814_27125" result="effect2_dropShadow_8814_27125"/>
<feBlend mode="normal" in="SourceGraphic" in2="effect2_dropShadow_8814_27125" result="shape"/>
</filter>
<filter id="filter3_dddd_8814_27125" x="-0.791016" y="-0.746094" width="224.795" height="128.824" filterUnits="userSpaceOnUse" color-interpolation-filters="sRGB">
<feFlood flood-opacity="0" result="BackgroundImageFix"/>
<feColorMatrix in="SourceAlpha" type="matrix" values="0 0 0 0 0 0 0 0 0 0 0 0 0 0 0 0 0 0 127 0" result="hardAlpha"/>
<feOffset dy="1"/>
<feGaussianBlur stdDeviation="1.5"/>
<feColorMatrix type="matrix" values="0 0 0 0 0.670588 0 0 0 0 0.670588 0 0 0 0 0.670588 0 0 0 0.1 0"/>
<feBlend mode="normal" in2="BackgroundImageFix" result="effect1_dropShadow_8814_27125"/>
<feColorMatrix in="SourceAlpha" type="matrix" values="0 0 0 0 0 0 0 0 0 0 0 0 0 0 0 0 0 0 127 0" result="hardAlpha"/>
<feOffset dx="2" dy="5"/>
<feGaussianBlur stdDeviation="3"/>
<feColorMatrix type="matrix" values="0 0 0 0 0.670588 0 0 0 0 0.670588 0 0 0 0 0.670588 0 0 0 0.09 0"/>
<feBlend mode="normal" in2="effect1_dropShadow_8814_27125" result="effect2_dropShadow_8814_27125"/>
<feColorMatrix in="SourceAlpha" type="matrix" values="0 0 0 0 0 0 0 0 0 0 0 0 0 0 0 0 0 0 127 0" result="hardAlpha"/>
<feOffset dx="4" dy="12"/>
<feGaussianBlur stdDeviation="3.5"/>
<feColorMatrix type="matrix" values="0 0 0 0 0.670588 0 0 0 0 0.670588 0 0 0 0 0.670588 0 0 0 0.05 0"/>
<feBlend mode="normal" in2="effect2_dropShadow_8814_27125" result="effect3_dropShadow_8814_27125"/>
<feColorMatrix in="SourceAlpha" type="matrix" values="0 0 0 0 0 0 0 0 0 0 0 0 0 0 0 0 0 0 127 0" result="hardAlpha"/>
<feOffset dx="7" dy="21"/>
<feGaussianBlur stdDeviation="4.5"/>
<feColorMatrix type="matrix" values="0 0 0 0 0.670588 0 0 0 0 0.670588 0 0 0 0 0.670588 0 0 0 0.01 0"/>
<feBlend mode="normal" in2="effect3_dropShadow_8814_27125" result="effect4_dropShadow_8814_27125"/>
<feBlend mode="normal" in="SourceGraphic" in2="effect4_dropShadow_8814_27125" result="shape"/>
</filter>
<linearGradient id="paint0_linear_8814_27125" x1="345" y1="36" x2="345" y2="110" gradientUnits="userSpaceOnUse">
<stop stop-color="white"/>
<stop offset="1" stop-color="#F5F9FF"/>
</linearGradient>
<linearGradient id="paint1_linear_8814_27125" x1="666" y1="6" x2="666" y2="28" gradientUnits="userSpaceOnUse">
<stop stop-color="white"/>
<stop offset="1" stop-color="#F5FAF7"/>
</linearGradient>
<radialGradient id="paint2_radial_8814_27125" cx="0" cy="0" r="1" gradientUnits="userSpaceOnUse" gradientTransform="translate(55.6135 56.2707) rotate(-1.2447) scale(86.799 163.301)">
<stop stop-color="#E6E6E6"/>
<stop offset="1" stop-color="white" stop-opacity="0"/>
</radialGradient>
<radialGradient id="paint3_radial_8814_27125" cx="0" cy="0" r="1" gradientUnits="userSpaceOnUse" gradientTransform="translate(207.216 74.2613) rotate(-163.367) scale(28.4415 53.879)">
<stop stop-color="#FCFCFC"/>
<stop offset="1" stop-color="white" stop-opacity="0"/>
</radialGradient>
</defs>
</svg>
