<svg width="230" height="127" viewBox="0 0 230 127" fill="none" xmlns="http://www.w3.org/2000/svg">
<g filter="url(#filter0_dddd_8814_27197)">
<rect x="14" y="4" width="80" height="80" rx="40" fill="#F5F5F5"/>
<rect x="14.5" y="4.5" width="79" height="79" rx="39.5" stroke="url(#paint0_linear_8814_27197)" stroke-opacity="0.5"/>
<g opacity="0.8" filter="url(#filter1_dddd_8814_27197)">
<g clip-path="url(#clip0_8814_27197)">
<rect x="22.4248" y="12.4258" width="63.1497" height="63.1497" rx="31.5748" fill="#F7F7F7"/>
<g filter="url(#filter2_dddd_8814_27197)">
<g opacity="0.4">
<path d="M40.3984 35.8404C40.3984 32.836 42.7624 30.4004 45.6784 30.4004H61.5184C64.4345 30.4004 66.7984 32.836 66.7984 35.8404V52.1604C66.7984 55.1648 64.4345 57.6004 61.5184 57.6004H45.6784C42.7624 57.6004 40.3984 55.1648 40.3984 52.1604V35.8404Z" fill="#66A4FF"/>
<path d="M40.3984 35.8404C40.3984 32.836 42.7624 30.4004 45.6784 30.4004H61.5184C64.4345 30.4004 66.7984 32.836 66.7984 35.8404V52.1604C66.7984 55.1648 64.4345 57.6004 61.5184 57.6004H45.6784C42.7624 57.6004 40.3984 55.1648 40.3984 52.1604V35.8404Z" fill="#A2C6FB"/>
</g>
<path d="M45.6784 57.6945H61.5184C64.4345 57.6945 66.7984 55.3066 66.7984 52.3611V47.0278L62.9189 44.2063C60.9031 42.7402 58.1481 42.8918 56.3017 44.5703L50.8952 49.4853C49.0488 51.1638 46.2938 51.3153 44.2779 49.8492L40.3984 47.0278V52.3611C40.3984 55.3066 42.7624 57.6945 45.6784 57.6945Z" fill="#66A4FF"/>
<path d="M45.6784 57.6945H61.5184C64.4345 57.6945 66.7984 55.3066 66.7984 52.3611V47.0278L62.9189 44.2063C60.9031 42.7402 58.1481 42.8918 56.3017 44.5703L50.8952 49.4853C49.0488 51.1638 46.2938 51.3153 44.2779 49.8492L40.3984 47.0278V52.3611C40.3984 55.3066 42.7624 57.6945 45.6784 57.6945Z" fill="url(#paint1_radial_8814_27197)"/>
<circle cx="49.3333" cy="39.3333" r="3.33333" fill="#66A4FF"/>
<circle cx="49.3333" cy="39.3333" r="3.33333" fill="url(#paint2_radial_8814_27197)"/>
</g>
</g>
<rect x="22.9248" y="12.9258" width="62.1497" height="62.1497" rx="31.0748" stroke="#D4D4D4"/>
<rect x="22.9248" y="12.9258" width="62.1497" height="62.1497" rx="31.0748" stroke="url(#paint3_linear_8814_27197)"/>
</g>
</g>
<path d="M111.069 31.888H108.507V35.5H107.135V25.378H111.069C113.057 25.378 114.331 26.68 114.331 28.626C114.331 30.516 113.043 31.888 111.069 31.888ZM110.831 26.61H108.507V30.656H110.775C112.133 30.656 112.889 29.858 112.889 28.612C112.889 27.338 112.119 26.61 110.831 26.61ZM114.899 32.07C114.899 29.956 116.411 28.472 118.469 28.472C120.513 28.472 122.025 29.956 122.025 32.07C122.025 34.184 120.513 35.668 118.469 35.668C116.411 35.668 114.899 34.184 114.899 32.07ZM116.229 32.07C116.229 33.498 117.139 34.492 118.469 34.492C119.785 34.492 120.709 33.498 120.709 32.07C120.709 30.642 119.785 29.648 118.469 29.648C117.139 29.648 116.229 30.642 116.229 32.07ZM124.637 35.5L122.397 28.654H123.755L124.889 32.21C125.043 32.714 125.183 33.232 125.309 33.834C125.421 33.232 125.603 32.658 125.757 32.21L126.905 28.654H128.249L129.383 32.21C129.495 32.546 129.719 33.344 129.831 33.834C129.943 33.288 130.069 32.812 130.265 32.21L131.413 28.654H132.785L130.447 35.5H129.201L128.011 31.832C127.787 31.146 127.647 30.614 127.577 30.236C127.507 30.572 127.381 31.02 127.129 31.846L125.939 35.5H124.637ZM136.552 35.668C134.536 35.668 133.15 34.212 133.15 32.084C133.15 29.942 134.508 28.458 136.496 28.458C138.442 28.458 139.716 29.802 139.716 31.832V32.322L134.424 32.336C134.522 33.778 135.278 34.576 136.58 34.576C137.602 34.576 138.274 34.156 138.498 33.372H139.73C139.394 34.842 138.246 35.668 136.552 35.668ZM136.496 29.564C135.348 29.564 134.62 30.25 134.452 31.454H138.4C138.4 30.32 137.658 29.564 136.496 29.564ZM145.106 28.598V29.802H144.518C143.272 29.802 142.502 30.558 142.502 31.874V35.5H141.186V28.668H142.418L142.502 29.704C142.782 28.99 143.468 28.514 144.406 28.514C144.644 28.514 144.84 28.542 145.106 28.598ZM149.049 35.668C147.033 35.668 145.647 34.212 145.647 32.084C145.647 29.942 147.005 28.458 148.993 28.458C150.939 28.458 152.213 29.802 152.213 31.832V32.322L146.921 32.336C147.019 33.778 147.775 34.576 149.077 34.576C150.099 34.576 150.771 34.156 150.995 33.372H152.227C151.891 34.842 150.743 35.668 149.049 35.668ZM148.993 29.564C147.845 29.564 147.117 30.25 146.949 31.454H150.897C150.897 30.32 150.155 29.564 148.993 29.564ZM156.426 35.668C154.438 35.668 153.234 34.184 153.234 32.098C153.234 29.998 154.452 28.458 156.482 28.458C157.532 28.458 158.414 28.92 158.876 29.76V25.196H160.178V35.5H159.002L158.89 34.254C158.442 35.192 157.518 35.668 156.426 35.668ZM156.692 34.478C158.036 34.478 158.862 33.484 158.862 32.056C158.862 30.656 158.036 29.648 156.692 29.648C155.348 29.648 154.564 30.656 154.564 32.056C154.564 33.47 155.348 34.478 156.692 34.478ZM167.095 35.5H165.905V25.196H167.221V29.83C167.669 28.934 168.593 28.458 169.713 28.458C171.673 28.458 172.849 29.998 172.849 32.112C172.849 34.184 171.617 35.668 169.629 35.668C168.551 35.668 167.641 35.192 167.193 34.254L167.095 35.5ZM167.235 32.056C167.235 33.484 168.047 34.478 169.391 34.478C170.735 34.478 171.533 33.47 171.533 32.056C171.533 30.656 170.735 29.648 169.391 29.648C168.047 29.648 167.235 30.656 167.235 32.056ZM173.409 38.566V37.488H174.291C174.921 37.488 175.425 37.39 175.747 36.522L175.985 35.864L173.227 28.654H174.613L176.601 34.17L178.631 28.654H179.989L176.755 37.04C176.293 38.216 175.607 38.706 174.557 38.706C174.123 38.706 173.759 38.65 173.409 38.566Z" fill="url(#paint4_linear_8814_27197)" fill-opacity="0.9"/>
<path d="M111.059 55.62L106.159 47.04H108.359L111.579 52.82C111.779 53.16 111.899 53.44 112.059 53.78C112.239 53.42 112.279 53.3 112.539 52.82L115.739 47.04H117.879L113.019 55.62V61.5H111.059V55.62ZM116.835 56.6C116.835 53.58 118.995 51.46 121.935 51.46C124.855 51.46 127.015 53.58 127.015 56.6C127.015 59.62 124.855 61.74 121.935 61.74C118.995 61.74 116.835 59.62 116.835 56.6ZM118.735 56.6C118.735 58.64 120.035 60.06 121.935 60.06C123.815 60.06 125.135 58.64 125.135 56.6C125.135 54.56 123.815 53.14 121.935 53.14C120.035 53.14 118.735 54.56 118.735 56.6ZM135.622 51.72H137.482V61.5H135.802L135.602 60.02C135.042 61.04 133.742 61.74 132.302 61.74C130.022 61.74 128.742 60.2 128.742 57.8V51.72H130.622V57.18C130.622 59.28 131.522 60.08 132.962 60.08C134.682 60.08 135.622 58.98 135.622 56.88V51.72ZM145.81 51.64V53.36H144.97C143.19 53.36 142.09 54.44 142.09 56.32V61.5H140.21V51.74H141.97L142.09 53.22C142.49 52.2 143.47 51.52 144.81 51.52C145.15 51.52 145.43 51.56 145.81 51.64ZM153.362 61.5V47.04H158.882C161.702 47.04 163.422 48.48 163.422 50.86C163.422 52.52 162.702 53.64 161.262 54.24C162.862 54.76 163.682 55.92 163.682 57.64C163.682 60.04 161.942 61.5 159.082 61.5H153.362ZM158.762 48.78H155.322V53.42H158.882C160.502 53.42 161.422 52.54 161.422 51.04C161.422 49.6 160.462 48.78 158.762 48.78ZM159.042 55.12H155.322V59.76H159.042C160.722 59.76 161.662 58.9 161.662 57.4C161.662 55.96 160.702 55.12 159.042 55.12ZM172.575 51.72H174.435V61.5H172.755L172.555 60.02C171.995 61.04 170.695 61.74 169.255 61.74C166.975 61.74 165.695 60.2 165.695 57.8V51.72H167.575V57.18C167.575 59.28 168.475 60.08 169.915 60.08C171.635 60.08 172.575 58.98 172.575 56.88V51.72ZM176.167 58.66H177.967C177.967 59.66 178.727 60.26 179.967 60.26C181.287 60.26 182.047 59.72 182.047 58.82C182.047 58.16 181.727 57.76 180.707 57.5L178.987 57.1C177.247 56.68 176.427 55.82 176.427 54.38C176.427 52.58 177.947 51.44 180.107 51.44C182.247 51.44 183.647 52.64 183.687 54.5H181.887C181.847 53.52 181.187 52.9 180.047 52.9C178.867 52.9 178.207 53.42 178.207 54.32C178.207 54.98 178.687 55.42 179.647 55.66L181.367 56.08C183.027 56.48 183.847 57.24 183.847 58.7C183.847 60.56 182.247 61.74 179.927 61.74C177.627 61.74 176.167 60.52 176.167 58.66ZM186.852 49.4C186.172 49.4 185.612 48.84 185.612 48.16C185.612 47.46 186.172 46.92 186.852 46.92C187.532 46.92 188.092 47.46 188.092 48.16C188.092 48.84 187.532 49.4 186.852 49.4ZM185.932 61.5V51.72H187.812V61.5H185.932ZM192.422 61.5H190.542V51.72H192.242L192.442 53.22C193.062 52.1 194.302 51.44 195.682 51.44C198.262 51.44 199.442 53.02 199.442 55.52V61.5H197.562V55.94C197.562 53.96 196.642 53.16 195.202 53.16C193.442 53.16 192.422 54.42 192.422 56.32V61.5ZM206.266 61.74C203.386 61.74 201.406 59.66 201.406 56.62C201.406 53.56 203.346 51.44 206.186 51.44C208.966 51.44 210.786 53.36 210.786 56.26V56.96L203.226 56.98C203.366 59.04 204.446 60.18 206.306 60.18C207.766 60.18 208.726 59.58 209.046 58.46H210.806C210.326 60.56 208.686 61.74 206.266 61.74ZM206.186 53.02C204.546 53.02 203.506 54 203.266 55.72H208.906C208.906 54.1 207.846 53.02 206.186 53.02ZM212.085 58.66H213.885C213.885 59.66 214.645 60.26 215.885 60.26C217.205 60.26 217.965 59.72 217.965 58.82C217.965 58.16 217.645 57.76 216.625 57.5L214.905 57.1C213.165 56.68 212.345 55.82 212.345 54.38C212.345 52.58 213.865 51.44 216.025 51.44C218.165 51.44 219.565 52.64 219.605 54.5H217.805C217.765 53.52 217.105 52.9 215.965 52.9C214.785 52.9 214.125 53.42 214.125 54.32C214.125 54.98 214.605 55.42 215.565 55.66L217.285 56.08C218.945 56.48 219.765 57.24 219.765 58.7C219.765 60.56 218.165 61.74 215.845 61.74C213.545 61.74 212.085 60.52 212.085 58.66ZM221.05 58.66H222.85C222.85 59.66 223.61 60.26 224.85 60.26C226.17 60.26 226.93 59.72 226.93 58.82C226.93 58.16 226.61 57.76 225.59 57.5L223.87 57.1C222.13 56.68 221.31 55.82 221.31 54.38C221.31 52.58 222.83 51.44 224.99 51.44C227.13 51.44 228.53 52.64 228.57 54.5H226.77C226.73 53.52 226.07 52.9 224.93 52.9C223.75 52.9 223.09 53.42 223.09 54.32C223.09 54.98 223.57 55.42 224.53 55.66L226.25 56.08C227.91 56.48 228.73 57.24 228.73 58.7C228.73 60.56 227.13 61.74 224.81 61.74C222.51 61.74 221.05 60.52 221.05 58.66Z" fill="url(#paint5_linear_8814_27197)" fill-opacity="0.9"/>
<defs>
<filter id="filter0_dddd_8814_27197" x="0" y="0" width="130" height="168" filterUnits="userSpaceOnUse" color-interpolation-filters="sRGB">
<feFlood flood-opacity="0" result="BackgroundImageFix"/>
<feColorMatrix in="SourceAlpha" type="matrix" values="0 0 0 0 0 0 0 0 0 0 0 0 0 0 0 0 0 0 127 0" result="hardAlpha"/>
<feOffset dx="1" dy="4"/>
<feGaussianBlur stdDeviation="4"/>
<feColorMatrix type="matrix" values="0 0 0 0 0.678431 0 0 0 0 0.678431 0 0 0 0 0.678431 0 0 0 0.1 0"/>
<feBlend mode="normal" in2="BackgroundImageFix" result="effect1_dropShadow_8814_27197"/>
<feColorMatrix in="SourceAlpha" type="matrix" values="0 0 0 0 0 0 0 0 0 0 0 0 0 0 0 0 0 0 127 0" result="hardAlpha"/>
<feOffset dx="3" dy="15"/>
<feGaussianBlur stdDeviation="7.5"/>
<feColorMatrix type="matrix" values="0 0 0 0 0.678431 0 0 0 0 0.678431 0 0 0 0 0.678431 0 0 0 0.09 0"/>
<feBlend mode="normal" in2="effect1_dropShadow_8814_27197" result="effect2_dropShadow_8814_27197"/>
<feColorMatrix in="SourceAlpha" type="matrix" values="0 0 0 0 0 0 0 0 0 0 0 0 0 0 0 0 0 0 127 0" result="hardAlpha"/>
<feOffset dx="7" dy="34"/>
<feGaussianBlur stdDeviation="10.5"/>
<feColorMatrix type="matrix" values="0 0 0 0 0.678431 0 0 0 0 0.678431 0 0 0 0 0.678431 0 0 0 0.05 0"/>
<feBlend mode="normal" in2="effect2_dropShadow_8814_27197" result="effect3_dropShadow_8814_27197"/>
<feColorMatrix in="SourceAlpha" type="matrix" values="0 0 0 0 0 0 0 0 0 0 0 0 0 0 0 0 0 0 127 0" result="hardAlpha"/>
<feOffset dx="12" dy="60"/>
<feGaussianBlur stdDeviation="12"/>
<feColorMatrix type="matrix" values="0 0 0 0 0.678431 0 0 0 0 0.678431 0 0 0 0 0.678431 0 0 0 0.01 0"/>
<feBlend mode="normal" in2="effect3_dropShadow_8814_27197" result="effect4_dropShadow_8814_27197"/>
<feBlend mode="normal" in="SourceGraphic" in2="effect4_dropShadow_8814_27197" result="shape"/>
</filter>
<filter id="filter1_dddd_8814_27197" x="16.4248" y="10.4258" width="79.1494" height="93.1504" filterUnits="userSpaceOnUse" color-interpolation-filters="sRGB">
<feFlood flood-opacity="0" result="BackgroundImageFix"/>
<feColorMatrix in="SourceAlpha" type="matrix" values="0 0 0 0 0 0 0 0 0 0 0 0 0 0 0 0 0 0 127 0" result="hardAlpha"/>
<feOffset dy="1"/>
<feGaussianBlur stdDeviation="1.5"/>
<feColorMatrix type="matrix" values="0 0 0 0 0.580392 0 0 0 0 0.580392 0 0 0 0 0.580392 0 0 0 0.1 0"/>
<feBlend mode="normal" in2="BackgroundImageFix" result="effect1_dropShadow_8814_27197"/>
<feColorMatrix in="SourceAlpha" type="matrix" values="0 0 0 0 0 0 0 0 0 0 0 0 0 0 0 0 0 0 127 0" result="hardAlpha"/>
<feOffset dy="5"/>
<feGaussianBlur stdDeviation="2.5"/>
<feColorMatrix type="matrix" values="0 0 0 0 0.580392 0 0 0 0 0.580392 0 0 0 0 0.580392 0 0 0 0.09 0"/>
<feBlend mode="normal" in2="effect1_dropShadow_8814_27197" result="effect2_dropShadow_8814_27197"/>
<feColorMatrix in="SourceAlpha" type="matrix" values="0 0 0 0 0 0 0 0 0 0 0 0 0 0 0 0 0 0 127 0" result="hardAlpha"/>
<feOffset dx="1" dy="11"/>
<feGaussianBlur stdDeviation="3.5"/>
<feColorMatrix type="matrix" values="0 0 0 0 0.580392 0 0 0 0 0.580392 0 0 0 0 0.580392 0 0 0 0.05 0"/>
<feBlend mode="normal" in2="effect2_dropShadow_8814_27197" result="effect3_dropShadow_8814_27197"/>
<feColorMatrix in="SourceAlpha" type="matrix" values="0 0 0 0 0 0 0 0 0 0 0 0 0 0 0 0 0 0 127 0" result="hardAlpha"/>
<feOffset dx="2" dy="20"/>
<feGaussianBlur stdDeviation="4"/>
<feColorMatrix type="matrix" values="0 0 0 0 0.580392 0 0 0 0 0.580392 0 0 0 0 0.580392 0 0 0 0.01 0"/>
<feBlend mode="normal" in2="effect3_dropShadow_8814_27197" result="effect4_dropShadow_8814_27197"/>
<feBlend mode="normal" in="SourceGraphic" in2="effect4_dropShadow_8814_27197" result="shape"/>
</filter>
<filter id="filter2_dddd_8814_27197" x="31.6811" y="26.9469" width="44.6377" height="54.1161" filterUnits="userSpaceOnUse" color-interpolation-filters="sRGB">
<feFlood flood-opacity="0" result="BackgroundImageFix"/>
<feColorMatrix in="SourceAlpha" type="matrix" values="0 0 0 0 0 0 0 0 0 0 0 0 0 0 0 0 0 0 127 0" result="hardAlpha"/>
<feOffset dy="1.05315"/>
<feGaussianBlur stdDeviation="1.05315"/>
<feColorMatrix type="matrix" values="0 0 0 0 0 0 0 0 0 0.407843 0 0 0 0 1 0 0 0 0.1 0"/>
<feBlend mode="normal" in2="BackgroundImageFix" result="effect1_dropShadow_8814_27197"/>
<feColorMatrix in="SourceAlpha" type="matrix" values="0 0 0 0 0 0 0 0 0 0 0 0 0 0 0 0 0 0 127 0" result="hardAlpha"/>
<feOffset dy="4.21258"/>
<feGaussianBlur stdDeviation="2.10629"/>
<feColorMatrix type="matrix" values="0 0 0 0 0 0 0 0 0 0.407843 0 0 0 0 1 0 0 0 0.09 0"/>
<feBlend mode="normal" in2="effect1_dropShadow_8814_27197" result="effect2_dropShadow_8814_27197"/>
<feColorMatrix in="SourceAlpha" type="matrix" values="0 0 0 0 0 0 0 0 0 0 0 0 0 0 0 0 0 0 127 0" result="hardAlpha"/>
<feOffset dy="8.42516"/>
<feGaussianBlur stdDeviation="2.63286"/>
<feColorMatrix type="matrix" values="0 0 0 0 0 0 0 0 0 0.407843 0 0 0 0 1 0 0 0 0.05 0"/>
<feBlend mode="normal" in2="effect2_dropShadow_8814_27197" result="effect3_dropShadow_8814_27197"/>
<feColorMatrix in="SourceAlpha" type="matrix" values="0 0 0 0 0 0 0 0 0 0 0 0 0 0 0 0 0 0 127 0" result="hardAlpha"/>
<feOffset dy="14.744"/>
<feGaussianBlur stdDeviation="3.15944"/>
<feColorMatrix type="matrix" values="0 0 0 0 0 0 0 0 0 0.407843 0 0 0 0 1 0 0 0 0.01 0"/>
<feBlend mode="normal" in2="effect3_dropShadow_8814_27197" result="effect4_dropShadow_8814_27197"/>
<feBlend mode="normal" in="SourceGraphic" in2="effect4_dropShadow_8814_27197" result="shape"/>
</filter>
<linearGradient id="paint0_linear_8814_27197" x1="54" y1="4" x2="54" y2="84" gradientUnits="userSpaceOnUse">
<stop stop-color="white"/>
<stop offset="1" stop-color="#FAFAFA" stop-opacity="0"/>
</linearGradient>
<radialGradient id="paint1_radial_8814_27197" cx="0" cy="0" r="1" gradientUnits="userSpaceOnUse" gradientTransform="translate(53.5984 43.2012) rotate(90) scale(14.4933 29.4575)">
<stop stop-color="#0068FF"/>
<stop offset="1" stop-color="#5297FF"/>
</radialGradient>
<radialGradient id="paint2_radial_8814_27197" cx="0" cy="0" r="1" gradientUnits="userSpaceOnUse" gradientTransform="translate(49.3333 36) rotate(90) scale(6.66667 7.43876)">
<stop stop-color="#0068FF"/>
<stop offset="1" stop-color="#5297FF"/>
</radialGradient>
<linearGradient id="paint3_linear_8814_27197" x1="53.9996" y1="12.4258" x2="53.9996" y2="75.5755" gradientUnits="userSpaceOnUse">
<stop stop-color="white"/>
<stop offset="1" stop-color="#D4D4D4"/>
</linearGradient>
<linearGradient id="paint4_linear_8814_27197" x1="104.965" y1="20.8167" x2="184.891" y2="29.7584" gradientUnits="userSpaceOnUse">
<stop stop-color="#0E213D" stop-opacity="0.4"/>
<stop offset="0.273774" stop-color="#0E213D" stop-opacity="0.6"/>
<stop offset="0.580674" stop-color="#0E213D" stop-opacity="0.6"/>
<stop offset="1" stop-color="#0E213D" stop-opacity="0.4"/>
</linearGradient>
<linearGradient id="paint5_linear_8814_27197" x1="104.316" y1="39.9667" x2="236.039" y2="56.4997" gradientUnits="userSpaceOnUse">
<stop stop-color="#0E213D" stop-opacity="0.7"/>
<stop offset="0.273774" stop-color="#0E213D"/>
<stop offset="0.580674" stop-color="#0E213D"/>
<stop offset="0.717622" stop-color="#0E213D" stop-opacity="0.969127"/>
<stop offset="1" stop-color="#0E213D" stop-opacity="0.7"/>
</linearGradient>
<clipPath id="clip0_8814_27197">
<rect x="22.4248" y="12.4258" width="63.1497" height="63.1497" rx="31.5748" fill="white"/>
</clipPath>
</defs>
</svg>
