<svg width="20" height="20" viewBox="0 0 20 20" fill="none" xmlns="http://www.w3.org/2000/svg">
<path opacity="0.4" d="M6.66699 4.99935C6.66699 3.1584 8.15938 1.66602 10.0003 1.66602H15.0004C16.8413 1.66602 18.3337 3.1584 18.3337 4.99935V9.99935C18.3337 11.8403 16.8413 13.3327 15.0004 13.3327H10.0003C8.15938 13.3327 6.66699 11.8403 6.66699 9.99935V4.99935Z" fill="#94A3B8"/>
<path d="M1.66699 9.99935C1.66699 8.1584 3.15938 6.66602 5.00033 6.66602H10.0004C11.8413 6.66602 13.3337 8.1584 13.3337 9.99935V14.9993C13.3337 16.8403 11.8413 18.3327 10.0004 18.3327H5.00033C3.15938 18.3327 1.66699 16.8403 1.66699 14.9993V9.99935Z" fill="#7B8594"/>
</svg>
