<svg width="96" height="26" viewBox="0 0 96 26" fill="none" xmlns="http://www.w3.org/2000/svg">
<g clip-path="url(#clip0_8919_34833)">
<mask id="mask0_8919_34833" style="mask-type:alpha" maskUnits="userSpaceOnUse" x="-1" y="-1" width="101" height="27">
<path d="M-0.5 24.9922L99.5 24.9922" stroke="url(#paint0_linear_8919_34833)" stroke-width="2"/>
<path d="M-0.5 0.992188L99.5 0.99219" stroke="url(#paint1_linear_8919_34833)" stroke-width="2"/>
</mask>
<g mask="url(#mask0_8919_34833)">
<g filter="url(#filter0_f_8919_34833)">
<rect width="408" height="182" transform="matrix(1.19249e-08 1 1 -1.19249e-08 -15.9922 -193.508)" fill="url(#paint2_linear_8919_34833)"/>
<rect x="0.5" y="0.5" width="407" height="181" transform="matrix(1.19249e-08 1 1 -1.19249e-08 -15.9922 -193.508)" stroke="url(#paint3_radial_8919_34833)"/>
</g>
</g>
</g>
<defs>
<filter id="filter0_f_8919_34833" x="-125.192" y="-302.708" width="400.4" height="626.4" filterUnits="userSpaceOnUse" color-interpolation-filters="sRGB">
<feFlood flood-opacity="0" result="BackgroundImageFix"/>
<feBlend mode="normal" in="SourceGraphic" in2="BackgroundImageFix" result="shape"/>
<feGaussianBlur stdDeviation="54.6" result="effect1_foregroundBlur_8919_34833"/>
</filter>
<linearGradient id="paint0_linear_8919_34833" x1="-12.3936" y1="24.4477" x2="76.0835" y2="80.3861" gradientUnits="userSpaceOnUse">
<stop stop-color="#E2EDFF"/>
<stop offset="1" stop-color="#FAFCFF" stop-opacity="0"/>
</linearGradient>
<linearGradient id="paint1_linear_8919_34833" x1="-12.3936" y1="0.447726" x2="76.0835" y2="56.3861" gradientUnits="userSpaceOnUse">
<stop stop-color="#E2EDFF"/>
<stop offset="1" stop-color="#FAFCFF" stop-opacity="0"/>
</linearGradient>
<linearGradient id="paint2_linear_8919_34833" x1="203.508" y1="21.9922" x2="203.508" y2="122.492" gradientUnits="userSpaceOnUse">
<stop stop-color="#CEE2FF"/>
<stop offset="1" stop-color="#CEE2FF" stop-opacity="0"/>
</linearGradient>
<radialGradient id="paint3_radial_8919_34833" cx="0" cy="0" r="1" gradientUnits="userSpaceOnUse" gradientTransform="translate(204 91) rotate(-1.83536) scale(252.655 112.64)">
<stop stop-color="#E2EDFF"/>
<stop offset="1" stop-color="#FAFCFF"/>
</radialGradient>
<clipPath id="clip0_8919_34833">
<rect width="96" height="26" fill="white" transform="matrix(-1 0 0 1 96 0)"/>
</clipPath>
</defs>
</svg>
