<svg width="804" height="75" viewBox="0 0 804 75" fill="none" xmlns="http://www.w3.org/2000/svg">
<g clip-path="url(#clip0_14030_29086)">
<mask id="mask0_14030_29086" style="mask-type:alpha" maskUnits="userSpaceOnUse" x="43" y="0" width="761" height="132">
<rect x="43" width="761" height="132" fill="#D9D9D9"/>
</mask>
<g mask="url(#mask0_14030_29086)">
<mask id="mask1_14030_29086" style="mask-type:alpha" maskUnits="userSpaceOnUse" x="43" y="-39" width="709" height="222">
<path d="M185.158 -36.8952V-33.829C181.887 -33.7268 179.434 -33.3179 177.799 -32.6025C176.163 -31.9892 175.039 -30.7628 174.426 -28.923C173.915 -27.1855 173.659 -24.4259 173.659 -20.6443V55.3976C173.659 59.077 173.915 61.8366 174.426 63.6763C175.039 65.516 176.163 66.7425 177.799 67.3558C179.434 67.969 181.887 68.3778 185.158 68.5822V71.6484C182.296 71.444 178.668 71.3418 174.273 71.3418C169.98 71.2396 165.585 71.1885 161.088 71.1885C156.182 71.1885 151.583 71.2396 147.29 71.3418C142.997 71.3418 139.522 71.444 136.865 71.6484V68.5822C140.34 68.3778 142.946 67.969 144.684 67.3558C146.524 66.7425 147.75 65.516 148.363 63.6763C148.976 61.8366 149.283 59.077 149.283 55.3976V-27.5432H150.356L112.335 71.8017H109.882L68.4886 -26.93V46.5056C68.4886 52.1269 68.7953 56.4707 69.4085 59.5369C70.0217 62.5009 71.3504 64.6473 73.3946 65.976C75.5409 67.2024 78.8626 68.0712 83.3597 68.5822V71.6484C81.4178 71.444 78.8626 71.3418 75.6942 71.3418C72.5258 71.2396 69.5618 71.1885 66.8022 71.1885C64.4515 71.1885 62.0496 71.2396 59.5967 71.3418C57.1437 71.3418 55.0996 71.444 53.4642 71.6484V68.5822C56.7349 68.0712 59.1878 67.2024 60.8231 65.976C62.4584 64.7495 63.5316 62.7564 64.0426 59.9969C64.6559 57.1351 64.9625 53.2512 64.9625 48.3453V-20.6443C64.9625 -24.4259 64.6559 -27.1855 64.0426 -28.923C63.5316 -30.7628 62.4073 -31.9892 60.6698 -32.6025C59.0345 -33.3179 56.6327 -33.7268 53.4642 -33.829V-36.8952C55.0996 -36.793 57.1437 -36.6907 59.5967 -36.5885C62.0496 -36.4863 64.4515 -36.4352 66.8022 -36.4352C71.1971 -36.4352 75.4898 -36.4863 79.6803 -36.5885C83.973 -36.6907 87.7546 -36.793 91.0252 -36.8952L123.22 40.8331L119.388 44.3592L150.203 -36.4352C151.94 -36.4352 153.729 -36.4352 155.569 -36.4352C157.409 -36.4352 159.248 -36.4352 161.088 -36.4352C165.585 -36.4352 169.98 -36.4863 174.273 -36.5885C178.668 -36.6907 182.296 -36.793 185.158 -36.8952ZM293.051 -36.8952V-33.829C289.78 -33.4201 287.276 -32.5514 285.539 -31.2227C283.903 -29.9962 282.83 -28.0032 282.319 -25.2436C281.808 -22.484 281.553 -18.6002 281.553 -13.592V27.0352C281.553 33.6786 281.093 39.7599 280.173 45.2791C279.253 50.7983 277.618 55.5509 275.267 59.5369C272.61 63.9318 268.726 67.4069 263.615 69.962C258.505 72.5172 252.015 73.7948 244.145 73.7948C239.443 73.7948 234.64 73.2326 229.734 72.1084C224.828 71.0863 220.433 69.0933 216.549 66.1293C213.279 63.3697 210.774 60.2524 209.037 56.7774C207.299 53.3023 206.124 49.214 205.511 44.5125C204.898 39.7088 204.591 34.0363 204.591 27.4951V-20.6443C204.591 -24.4259 204.284 -27.1855 203.671 -28.923C203.16 -30.7628 202.087 -31.9892 200.452 -32.6025C198.816 -33.3179 196.363 -33.7268 193.093 -33.829V-36.8952C195.648 -36.793 199.072 -36.6907 203.364 -36.5885C207.759 -36.4863 212.308 -36.4352 217.009 -36.4352C221.711 -36.4352 226.208 -36.4863 230.5 -36.5885C234.895 -36.6907 238.524 -36.793 241.385 -36.8952V-33.829C237.91 -33.7268 235.253 -33.3179 233.413 -32.6025C231.676 -31.9892 230.5 -30.7628 229.887 -28.923C229.274 -27.1855 228.967 -24.4259 228.967 -20.6443V37.1536C228.967 42.264 229.274 46.8122 229.887 50.7983C230.603 54.6821 231.727 57.9527 233.26 60.6101C234.895 63.1653 237.093 65.1072 239.852 66.4359C242.612 67.7646 246.036 68.4289 250.124 68.4289C257.279 68.4289 262.849 66.7425 266.835 63.3697C270.923 59.9969 273.785 55.3465 275.42 49.4185C277.158 43.3883 278.027 36.4893 278.027 28.7216V-11.7523C278.027 -17.3737 277.669 -21.6664 276.953 -24.6303C276.238 -27.6966 274.807 -29.894 272.661 -31.2227C270.617 -32.5514 267.448 -33.4201 263.155 -33.829V-36.8952C265.097 -36.793 267.653 -36.6907 270.821 -36.5885C273.989 -36.4863 276.953 -36.4352 279.713 -36.4352C282.166 -36.4352 284.568 -36.4863 286.918 -36.5885C289.371 -36.6907 291.416 -36.793 293.051 -36.8952ZM339.42 -38.8882C345.45 -38.8882 350.101 -38.2238 353.371 -36.8952C356.642 -35.6687 359.453 -34.34 361.803 -32.9091C363.03 -32.1937 364.001 -31.6315 364.716 -31.2227C365.534 -30.9161 366.3 -30.7628 367.016 -30.7628C368.038 -30.7628 368.753 -31.3249 369.162 -32.4492C369.673 -33.5734 370.082 -35.2599 370.389 -37.5084H373.915C373.813 -35.5665 373.659 -33.2157 373.455 -30.4561C373.353 -27.7988 373.25 -24.2726 373.148 -19.8777C373.148 -15.4828 373.148 -9.70816 373.148 -2.55369H369.622C369.213 -7.86844 367.987 -13.0299 365.943 -18.038C363.899 -23.0461 360.986 -27.1344 357.204 -30.3028C353.525 -33.5734 348.976 -35.2088 343.559 -35.2088C338.653 -35.2088 334.616 -33.829 331.448 -31.0694C328.279 -28.3098 326.695 -24.477 326.695 -19.5711C326.695 -15.4828 327.717 -11.9567 329.761 -8.99271C331.806 -6.13092 334.77 -3.32024 338.653 -0.560653C342.64 2.19893 347.443 5.52065 353.065 9.40451C357.971 12.5729 362.365 15.7413 366.249 18.9097C370.133 22.0781 373.25 25.6554 375.601 29.6414C377.952 33.6275 379.127 38.3801 379.127 43.8993C379.127 50.6449 377.339 56.2152 373.762 60.6101C370.286 65.005 365.687 68.3267 359.964 70.5753C354.24 72.7216 347.954 73.7948 341.106 73.7948C334.77 73.7948 329.71 73.1815 325.929 71.9551C322.147 70.7286 318.979 69.451 316.424 68.1223C314.175 66.6914 312.437 65.976 311.211 65.976C310.189 65.976 309.422 66.5381 308.911 67.6624C308.502 68.7866 308.145 70.4731 307.838 72.7216H304.312C304.516 70.2686 304.619 67.4069 304.619 64.1362C304.721 60.8656 304.772 56.624 304.772 51.4115C304.874 46.0967 304.925 39.4022 304.925 31.3279H308.451C308.86 38.0735 309.984 44.4103 311.824 50.3383C313.766 56.1641 316.679 60.8656 320.563 64.4429C324.549 68.0201 329.813 69.8087 336.354 69.8087C339.931 69.8087 343.099 69.1955 345.859 67.969C348.721 66.6403 351.021 64.6984 352.758 62.1432C354.496 59.588 355.364 56.4196 355.364 52.638C355.364 48.3453 354.342 44.6147 352.298 41.4463C350.356 38.2779 347.648 35.3139 344.173 32.5543C340.8 29.7948 336.865 26.9841 332.368 24.1223C327.564 20.9539 323.067 17.7855 318.876 14.6171C314.686 11.4486 311.313 7.8203 308.758 3.73203C306.305 -0.356239 305.079 -5.21106 305.079 -10.8324C305.079 -17.2715 306.663 -22.5351 309.831 -26.6234C313.102 -30.8139 317.343 -33.8801 322.556 -35.822C327.871 -37.8661 333.492 -38.8882 339.42 -38.8882ZM439.883 -37.2018L477.137 58.7704C478.568 62.4498 480.152 65.005 481.889 66.4359C483.729 67.7646 485.365 68.48 486.795 68.5822V71.6484C483.729 71.444 480.101 71.3418 475.91 71.3418C471.822 71.2396 467.683 71.1885 463.492 71.1885C458.791 71.1885 454.345 71.2396 450.154 71.3418C445.964 71.3418 442.642 71.444 440.189 71.6484V68.5822C445.402 68.3778 448.672 67.5091 450.001 65.976C451.432 64.3407 451.125 60.9167 449.081 55.7042L423.018 -15.585L425.778 -19.5711L402.475 41.1397C400.226 46.7611 398.846 51.3604 398.335 54.9376C397.927 58.5149 398.182 61.2744 399.102 63.2164C400.124 65.1583 401.708 66.5381 403.855 67.3558C406.103 68.0712 408.761 68.48 411.827 68.5822V71.6484C408.454 71.444 405.234 71.3418 402.168 71.3418C399.102 71.2396 395.985 71.1885 392.816 71.1885C390.568 71.1885 388.421 71.2396 386.377 71.3418C384.435 71.3418 382.698 71.444 381.165 71.6484V68.5822C383.311 68.1734 385.508 66.7936 387.757 64.4429C390.006 62.0921 392.203 58.106 394.349 52.4847L429.304 -37.2018C430.939 -37.0996 432.677 -37.0485 434.517 -37.0485C436.459 -37.0485 438.247 -37.0996 439.883 -37.2018ZM450.614 27.4951V30.5613H404.928L406.461 27.4951H450.614ZM529.261 -38.8882C535.291 -38.8882 539.942 -38.2238 543.212 -36.8952C546.483 -35.6687 549.294 -34.34 551.644 -32.9091C552.871 -32.1937 553.842 -31.6315 554.557 -31.2227C555.375 -30.9161 556.142 -30.7628 556.857 -30.7628C557.879 -30.7628 558.595 -31.3249 559.003 -32.4492C559.514 -33.5734 559.923 -35.2599 560.23 -37.5084H563.756C563.654 -35.5665 563.5 -33.2157 563.296 -30.4561C563.194 -27.7988 563.092 -24.2726 562.989 -19.8777C562.989 -15.4828 562.989 -9.70816 562.989 -2.55369H559.463C559.054 -7.86844 557.828 -13.0299 555.784 -18.038C553.74 -23.0461 550.827 -27.1344 547.045 -30.3028C543.366 -33.5734 538.817 -35.2088 533.401 -35.2088C528.495 -35.2088 524.457 -33.829 521.289 -31.0694C518.121 -28.3098 516.536 -24.477 516.536 -19.5711C516.536 -15.4828 517.558 -11.9567 519.603 -8.99271C521.647 -6.13092 524.611 -3.32024 528.495 -0.560653C532.481 2.19893 537.284 5.52065 542.906 9.40451C547.812 12.5729 552.207 15.7413 556.09 18.9097C559.974 22.0781 563.092 25.6554 565.442 29.6414C567.793 33.6275 568.968 38.3801 568.968 43.8993C568.968 50.6449 567.18 56.2152 563.603 60.6101C560.128 65.005 555.528 68.3267 549.805 70.5753C544.081 72.7216 537.795 73.7948 530.948 73.7948C524.611 73.7948 519.552 73.1815 515.77 71.9551C511.988 70.7286 508.82 69.451 506.265 68.1223C504.016 66.6914 502.279 65.976 501.052 65.976C500.03 65.976 499.263 66.5381 498.752 67.6624C498.344 68.7866 497.986 70.4731 497.679 72.7216H494.153C494.358 70.2686 494.46 67.4069 494.46 64.1362C494.562 60.8656 494.613 56.624 494.613 51.4115C494.715 46.0967 494.766 39.4022 494.766 31.3279H498.293C498.701 38.0735 499.826 44.4103 501.665 50.3383C503.607 56.1641 506.52 60.8656 510.404 64.4429C514.39 68.0201 519.654 69.8087 526.195 69.8087C529.772 69.8087 532.941 69.1955 535.7 67.969C538.562 66.6403 540.862 64.6984 542.599 62.1432C544.337 59.588 545.205 56.4196 545.205 52.638C545.205 48.3453 544.183 44.6147 542.139 41.4463C540.197 38.2779 537.489 35.3139 534.014 32.5543C530.641 29.7948 526.706 26.9841 522.209 24.1223C517.405 20.9539 512.908 17.7855 508.718 14.6171C504.527 11.4486 501.154 7.8203 498.599 3.73203C496.146 -0.356239 494.92 -5.21106 494.92 -10.8324C494.92 -17.2715 496.504 -22.5351 499.672 -26.6234C502.943 -30.8139 507.184 -33.8801 512.397 -35.822C517.712 -37.8661 523.333 -38.8882 529.261 -38.8882ZM645.468 71.6484V68.5822C648.738 68.3778 651.191 67.969 652.827 67.3558C654.462 66.7425 655.535 65.516 656.046 63.6763C656.659 61.8366 656.966 59.077 656.966 55.3976V-20.6443C656.966 -24.4259 656.659 -27.1855 656.046 -28.923C655.535 -30.7628 654.411 -31.9892 652.673 -32.6025C651.038 -33.3179 648.636 -33.7268 645.468 -33.829V-36.8952C648.227 -36.793 651.805 -36.6907 656.2 -36.5885C660.697 -36.4863 665.143 -36.4352 669.538 -36.4352C674.239 -36.4352 678.634 -36.4863 682.722 -36.5885C686.913 -36.6907 690.286 -36.793 692.841 -36.8952V-33.829C689.57 -33.7268 687.066 -33.3179 685.328 -32.6025C683.693 -31.9892 682.62 -30.7628 682.109 -28.923C681.598 -27.1855 681.342 -24.4259 681.342 -20.6443V55.3976C681.342 59.077 681.598 61.8366 682.109 63.6763C682.722 65.516 683.846 66.7425 685.482 67.3558C687.117 67.969 689.57 68.3778 692.841 68.5822V71.6484C690.286 71.444 686.913 71.3418 682.722 71.3418C678.634 71.2396 674.239 71.1885 669.538 71.1885C665.143 71.1885 660.697 71.2396 656.2 71.3418C651.805 71.3418 648.227 71.444 645.468 71.6484ZM580.464 71.6484V68.5822C583.735 68.3778 586.188 67.969 587.823 67.3558C589.459 66.7425 590.532 65.516 591.043 63.6763C591.656 61.8366 591.963 59.077 591.963 55.3976V-20.6443C591.963 -24.4259 591.656 -27.1855 591.043 -28.923C590.532 -30.7628 589.407 -31.9892 587.67 -32.6025C586.035 -33.3179 583.633 -33.7268 580.464 -33.829V-36.8952C583.122 -36.793 586.546 -36.6907 590.736 -36.5885C595.029 -36.4863 599.679 -36.4352 604.687 -36.4352C608.98 -36.4352 613.222 -36.4863 617.412 -36.5885C621.603 -36.6907 625.078 -36.793 627.837 -36.8952V-33.829C624.567 -33.7268 622.062 -33.3179 620.325 -32.6025C618.69 -31.9892 617.616 -30.7628 617.105 -28.923C616.594 -27.1855 616.339 -24.4259 616.339 -20.6443V55.3976C616.339 59.077 616.594 61.8366 617.105 63.6763C617.719 65.516 618.843 66.7425 620.478 67.3558C622.114 67.969 624.567 68.3778 627.837 68.5822V71.6484C625.078 71.444 621.603 71.3418 617.412 71.3418C613.222 71.2396 608.98 71.1885 604.687 71.1885C599.679 71.1885 595.029 71.2396 590.736 71.3418C586.546 71.3418 583.122 71.444 580.464 71.6484ZM606.374 18.6031V15.5369H666.931V18.6031H606.374ZM750.455 -36.8952V-33.829C747.185 -33.7268 744.681 -33.3179 742.943 -32.6025C741.308 -31.9892 740.235 -30.7628 739.724 -28.923C739.213 -27.1855 738.957 -24.4259 738.957 -20.6443V55.3976C738.957 59.077 739.213 61.8366 739.724 63.6763C740.337 65.516 741.461 66.7425 743.096 67.3558C744.732 67.969 747.185 68.3778 750.455 68.5822V71.6484C747.696 71.444 744.221 71.3418 740.03 71.3418C735.84 71.2396 731.598 71.1885 727.306 71.1885C722.297 71.1885 717.647 71.2396 713.354 71.3418C709.164 71.3418 705.74 71.444 703.083 71.6484V68.5822C706.353 68.3778 708.806 67.969 710.441 67.3558C712.077 66.7425 713.15 65.516 713.661 63.6763C714.274 61.8366 714.581 59.077 714.581 55.3976V-20.6443C714.581 -24.4259 714.274 -27.1855 713.661 -28.923C713.15 -30.7628 712.026 -31.9892 710.288 -32.6025C708.653 -33.3179 706.251 -33.7268 703.083 -33.829V-36.8952C705.74 -36.793 709.164 -36.6907 713.354 -36.5885C717.647 -36.4863 722.297 -36.4352 727.306 -36.4352C731.598 -36.4352 735.84 -36.4863 740.03 -36.5885C744.221 -36.6907 747.696 -36.793 750.455 -36.8952Z" fill="#27231C"/>
</mask>
<g mask="url(#mask1_14030_29086)">
<rect x="-33" y="-121" width="837" height="195" fill="url(#paint0_linear_14030_29086)"/>
</g>
</g>
<path d="M0 0H804" stroke="#E7DBC4" stroke-width="1.5"/>
</g>
<defs>
<linearGradient id="paint0_linear_14030_29086" x1="402.783" y1="73.7316" x2="402.783" y2="-173.749" gradientUnits="userSpaceOnUse">
<stop stop-color="#B99855" stop-opacity="0.15"/>
<stop offset="1" stop-color="#B99855" stop-opacity="0"/>
</linearGradient>
<clipPath id="clip0_14030_29086">
<rect width="804" height="75" fill="white"/>
</clipPath>
</defs>
</svg>
