<svg width="24" height="24" viewBox="0 0 24 24" fill="none" xmlns="http://www.w3.org/2000/svg">
<path d="M4.00195 10.4102H20.002M4.00195 10.4102C2.89738 10.4102 2.00195 9.51473 2.00195 8.41016V7.41016C2.00195 6.30559 2.89738 5.41016 4.00195 5.41016H20.002C21.1065 5.41016 22.002 6.30559 22.002 7.41016V8.41016C22.002 9.51473 21.1065 10.4102 20.002 10.4102M4.00195 10.4102L4.00195 19.4102C4.00195 20.5147 4.89738 21.4102 6.00195 21.4102H18.002C19.1065 21.4102 20.002 20.5147 20.002 19.4102V10.4102M12.002 5.41016H16.002C17.1065 5.41016 18.002 4.51473 18.002 3.41016C18.002 2.30559 17.1065 1.41016 16.002 1.41016C13.7928 1.41016 12.002 3.20102 12.002 5.41016ZM12.002 5.41016H8.00195C6.89738 5.41016 6.00195 4.51473 6.00195 3.41016C6.00195 2.30559 6.89738 1.41016 8.00195 1.41016C10.2111 1.41016 12.002 3.20102 12.002 5.41016Z" stroke="white" stroke-width="1.5" stroke-linecap="round"/>
</svg>
