<svg width="26" height="18" viewBox="0 0 26 18" fill="none" xmlns="http://www.w3.org/2000/svg">
<mask id="path-1-inside-1_13971_24327" fill="white">
<rect width="25.875" height="18" rx="0.225"/>
</mask>
<rect width="25.875" height="18" rx="0.225" fill="white" stroke="#EBEBEB" stroke-width="2.25" mask="url(#path-1-inside-1_13971_24327)"/>
<path d="M20.3281 10.7393H20.3408L21.4199 7.99219H22.1787L19.8477 13.5H19.1279L19.9941 11.5732L18.4648 7.99219H19.2236L20.3281 10.7393ZM16.6836 7.875C17.1992 7.87501 17.6063 8.01786 17.9053 8.29883C18.2042 8.57979 18.3515 8.97183 18.3516 9.4668V11.8262H17.6846V11.2959H17.6543C17.3641 11.7327 16.9827 11.951 16.502 11.9512C16.0946 11.9512 15.7476 11.8259 15.4746 11.5762C15.206 11.3442 15.0538 11.0009 15.0625 10.6396C15.0626 10.2428 15.2107 9.93067 15.501 9.69434C15.7912 9.45814 16.1809 9.34183 16.666 9.3418C17.0819 9.3418 17.4198 9.42264 17.6885 9.57422V9.40918C17.6885 9.16407 17.5851 8.93203 17.4033 8.77148C17.217 8.60206 16.9784 8.50787 16.7314 8.50781C16.3415 8.50781 16.0339 8.67769 15.8086 9.0166L15.1924 8.61914C15.5217 8.12409 16.0206 7.875 16.6836 7.875ZM13.374 6.22656C13.8202 6.21771 14.2531 6.39191 14.5693 6.71289C15.202 7.31946 15.2411 8.34046 14.6475 8.99609L14.5693 9.07617C14.2444 9.39275 13.8462 9.55366 13.374 9.55371H12.2207V11.8193H11.5234V6.22656H13.374ZM16.7734 9.92188C16.4919 9.92193 16.2531 9.99265 16.0625 10.1309C15.8762 10.2691 15.7812 10.4437 15.7812 10.6533C15.7813 10.8404 15.8679 11.0141 16.0107 11.1211C16.1668 11.246 16.3577 11.3131 16.5527 11.3086C16.8473 11.3086 17.1289 11.1885 17.3369 10.9746C17.5666 10.7516 17.6836 10.4879 17.6836 10.1846C17.4669 10.0063 17.1633 9.91742 16.7734 9.92188ZM12.2227 8.86719H13.3926C13.6526 8.87611 13.9043 8.76893 14.082 8.57715C14.4459 8.18919 14.4374 7.56506 14.0605 7.19043C13.8829 7.01203 13.644 6.91406 13.3926 6.91406H12.2227V8.86719Z" fill="#3C4043"/>
<path d="M9.81076 9.06523C9.81076 8.84669 9.79343 8.62815 9.75876 8.41406H6.81641V9.6495H8.50209C8.43275 10.0464 8.20742 10.4033 7.87808 10.6263V11.4291H8.88342C9.47276 10.8716 9.81076 10.0464 9.81076 9.06523Z" fill="#4285F4"/>
<path d="M6.8176 12.2051C7.65828 12.2051 8.36895 11.9197 8.88462 11.4291L7.87928 10.6263C7.59761 10.8225 7.23794 10.934 6.8176 10.934C6.00293 10.934 5.31393 10.3676 5.06692 9.60938H4.03125V10.4389C4.55992 11.5227 5.63893 12.2051 6.8176 12.2051Z" fill="#34A853"/>
<path d="M5.06596 9.60297C4.93594 9.20602 4.93594 8.77339 5.06596 8.37199V7.54688H4.03012C3.58371 8.45227 3.58371 9.52269 4.03012 10.4281L5.06596 9.60297Z" fill="#FBBC04"/>
<path d="M6.81761 7.05256C7.26394 7.04364 7.69295 7.21759 8.01361 7.53425L8.90629 6.61548C8.33862 6.07135 7.59328 5.77252 6.81761 5.78144C5.63893 5.78144 4.55992 6.4683 4.03125 7.55209L5.06692 8.38167C5.31393 7.61899 6.00293 7.05256 6.81761 7.05256Z" fill="#EA4335"/>
</svg>
