<svg width="21" height="18" viewBox="0 0 21 18" fill="none" xmlns="http://www.w3.org/2000/svg">
<path d="M20.9337 0L20.5063 0.09271C18.8779 0.449287 14.5453 1.87559 9.79264 7.27417C8.88632 8.28685 8.12001 9.42789 7.47895 10.6403C5.87264 8.62203 3.69158 7.11014 2.14421 6.41125L0 10.7615L0.338952 10.8827C0.58211 10.9754 2.65264 12.0666 4.09685 13.8494C4.72317 14.6197 5.54106 15.9889 5.96843 17.5008L6.02737 17.7361L9.47579 17.9857L9.8 18L9.85895 17.7005C10.1463 16.0103 10.6695 12.8653 13.1526 10.0555C16.2621 6.52536 18.4284 5.46989 20.7274 4.96355L21 4.9065L20.9263 0.00713154L20.9337 0Z" fill="#0068FF"/>
</svg>
