<svg width="22" height="21" viewBox="0 0 22 21" fill="none" xmlns="http://www.w3.org/2000/svg">
<path d="M10.5037 0.20624C10.5936 -0.0701528 10.9846 -0.070153 11.0744 0.20624L13.4159 7.41263C13.456 7.53623 13.5712 7.61992 13.7012 7.61992H21.2784C21.5691 7.61992 21.6899 7.99181 21.4548 8.16263L15.3247 12.6164C15.2195 12.6928 15.1755 12.8282 15.2157 12.9518L17.5572 20.1582C17.647 20.4346 17.3306 20.6644 17.0955 20.4936L10.9654 16.0398C10.8603 15.9634 10.7179 15.9634 10.6127 16.0398L4.48261 20.4936C4.2475 20.6644 3.93115 20.4346 4.02096 20.1582L6.36245 12.9518C6.40262 12.8282 6.35862 12.6928 6.25347 12.6164L0.123354 8.16263C-0.11176 7.99181 0.00907266 7.61992 0.29969 7.61992H7.87693C8.0069 7.61992 8.12209 7.53623 8.16225 7.41263L10.5037 0.20624Z" fill="#B29757"/>
</svg>
