<svg width="20" height="20" viewBox="0 0 20 20" fill="none" xmlns="http://www.w3.org/2000/svg">
<path opacity="0.4" d="M3.33594 9.9974C3.33594 8.15645 4.82832 6.66406 6.66927 6.66406H13.3359C15.1769 6.66406 16.6693 8.15645 16.6693 9.9974V14.9974C16.6693 16.8383 15.1769 18.3307 13.3359 18.3307H6.66927C4.82832 18.3307 3.33594 16.8383 3.33594 14.9974V9.9974Z" fill="#85827A"/>
<path fill-rule="evenodd" clip-rule="evenodd" d="M10 11.0391C10.3452 11.0391 10.625 11.3189 10.625 11.6641V13.3307C10.625 13.6759 10.3452 13.9557 10 13.9557C9.65482 13.9557 9.375 13.6759 9.375 13.3307V11.6641C9.375 11.3189 9.65482 11.0391 10 11.0391Z" fill="#85827A"/>
<path d="M10.002 1.03906C12.1879 1.03929 13.96 2.81108 13.96 4.99707V6.73926C13.7277 6.6896 13.4863 6.66406 13.2393 6.66406H12.71V4.99707C12.71 3.50144 11.4975 2.28929 10.002 2.28906C8.50618 2.28906 7.29297 3.5013 7.29297 4.99707V6.66406H6.76367C6.51655 6.66406 6.27526 6.68958 6.04297 6.73926V4.99707C6.04297 2.81094 7.81583 1.03906 10.002 1.03906Z" fill="#85827A"/>
</svg>
