<svg width="26" height="18" viewBox="0 0 26 18" fill="none" xmlns="http://www.w3.org/2000/svg">
<mask id="path-1-inside-1_13971_24317" fill="white">
<rect width="25.875" height="18" rx="0.225"/>
</mask>
<rect width="25.875" height="18" rx="0.225" fill="white" stroke="#EBEBEB" stroke-width="2.25" mask="url(#path-1-inside-1_13971_24317)"/>
<path d="M9.43652 3.375C12.4737 3.375 14.9365 5.86605 14.9365 8.93848C14.9363 12.0107 12.4736 14.501 9.43652 14.501C6.39959 14.5008 3.93769 12.0107 3.9375 8.93848C3.9375 5.86614 6.39947 3.37514 9.43652 3.375Z" fill="#ED0006"/>
<path d="M16.5693 3.375C19.6065 3.375 22.0693 5.86605 22.0693 8.93848C22.0691 12.0107 19.6064 14.501 16.5693 14.501C13.5324 14.5008 11.0705 12.0107 11.0703 8.93848C11.0703 5.86614 13.5323 3.37514 16.5693 3.375Z" fill="#0099DF"/>
<path d="M13.0029 4.70312C14.1853 5.7235 14.9365 7.24106 14.9365 8.93652C14.9364 10.6316 14.1849 12.1477 13.0029 13.168C11.8211 12.1477 11.0704 10.6314 11.0703 8.93652C11.0703 7.2412 11.8207 5.7235 13.0029 4.70312Z" fill="#6C6BBD"/>
</svg>
