<svg width="26" height="18" viewBox="0 0 26 18" fill="none" xmlns="http://www.w3.org/2000/svg">
<mask id="path-1-inside-1_13971_24305" fill="white">
<rect width="25.875" height="18" rx="0.225"/>
</mask>
<rect width="25.875" height="18" rx="0.225" fill="white" stroke="#EBEBEB" stroke-width="2.25" mask="url(#path-1-inside-1_13971_24305)"/>
<path d="M16.8457 3.36719C19.9681 3.36736 22.4989 5.85682 22.499 8.92773C22.499 11.9987 19.9681 14.4881 16.8457 14.4883C15.4452 14.4883 14.1644 13.9867 13.1768 13.1572C12.1894 13.9862 10.9097 14.4882 9.50977 14.4883C6.38717 14.4883 3.85547 11.9988 3.85547 8.92773C3.85556 5.85671 6.38723 3.36719 9.50977 3.36719C10.9094 3.3673 12.1895 3.8686 13.1768 4.69727C14.1643 3.86817 15.4455 3.36719 16.8457 3.36719Z" fill="#ED0006"/>
<path d="M16.8447 3.36719C19.9671 3.36736 22.498 5.85682 22.498 8.92773C22.498 11.9987 19.9672 14.4881 16.8447 14.4883C15.4443 14.4883 14.1634 13.9867 13.1758 13.1572C14.3906 12.1373 15.1621 10.6218 15.1621 8.92773C15.1621 7.23343 14.391 5.71716 13.1758 4.69727C14.1633 3.86817 15.4446 3.36719 16.8447 3.36719Z" fill="#F9A000"/>
<path d="M13.1787 4.69531C14.3951 5.71523 15.1669 7.23245 15.167 8.92773C15.167 10.6228 14.3948 12.1392 13.1787 13.1592C11.9631 12.1392 11.1914 10.6224 11.1914 8.92773C11.1915 7.2328 11.9627 5.71522 13.1787 4.69531Z" fill="#FF5E00"/>
</svg>
