<svg width="26" height="18" viewBox="0 0 26 18" fill="none" xmlns="http://www.w3.org/2000/svg">
<mask id="path-1-inside-1_13971_24354" fill="white">
<rect width="25.875" height="18" rx="0.225"/>
</mask>
<rect width="25.875" height="18" rx="0.225" fill="white" stroke="#EBEBEB" stroke-width="2.25" mask="url(#path-1-inside-1_13971_24354)"/>
<path fill-rule="evenodd" clip-rule="evenodd" d="M7.425 11.4219H6.25829C6.17845 11.4219 6.11055 11.4799 6.0981 11.5587L5.62622 14.5505C5.61684 14.6095 5.66256 14.6628 5.72245 14.6628H6.27944C6.35928 14.6628 6.42719 14.6047 6.43964 14.5258L6.56691 13.7189C6.57918 13.6398 6.64725 13.5819 6.72693 13.5819H7.09627C7.86482 13.5819 8.30835 13.21 8.42424 12.473C8.47643 12.1506 8.42645 11.8972 8.27543 11.7197C8.10964 11.525 7.81548 11.4219 7.425 11.4219ZM7.55961 12.5146C7.49582 12.9332 7.17594 12.9332 6.86665 12.9332H6.69059L6.8141 12.1514C6.82144 12.1041 6.86238 12.0693 6.91015 12.0693H6.99084C7.20153 12.0693 7.40029 12.0693 7.50301 12.1894C7.56419 12.2611 7.58298 12.3675 7.55961 12.5146ZM10.9126 12.5012H10.3539C10.3063 12.5012 10.2651 12.536 10.2578 12.5833L10.2331 12.7395L10.194 12.6829C10.0731 12.5073 9.80338 12.4487 9.53417 12.4487C8.91672 12.4487 8.38943 12.9163 8.28672 13.5722C8.23335 13.8994 8.30922 14.2123 8.49482 14.4305C8.66511 14.6311 8.90874 14.7147 9.19856 14.7147C9.69601 14.7147 9.97193 14.3948 9.97193 14.3948L9.94698 14.5501C9.93759 14.6095 9.9833 14.6627 10.0428 14.6627H10.5461C10.6262 14.6627 10.6937 14.6046 10.7063 14.5257L11.0083 12.6134C11.0178 12.5546 10.9723 12.5012 10.9126 12.5012ZM10.1338 13.5886C10.0799 13.9078 9.82651 14.122 9.50346 14.122C9.34122 14.122 9.21151 14.07 9.1283 13.9714C9.04572 13.8735 9.0143 13.7341 9.04059 13.5789C9.09096 13.2624 9.34856 13.0412 9.66672 13.0412C9.82533 13.0412 9.95433 13.0938 10.0393 13.1933C10.1244 13.2938 10.1582 13.434 10.1338 13.5886ZM13.3267 12.5011H13.8882C13.9668 12.5011 14.0127 12.5893 13.968 12.6538L12.1007 15.3492C12.0704 15.3929 12.0206 15.4188 11.9674 15.4188H11.4066C11.3277 15.4188 11.2816 15.3299 11.3273 15.2653L11.9088 14.4445L11.2904 12.6297C11.269 12.5666 11.3155 12.5011 11.3826 12.5011H11.9343C12.006 12.5011 12.0693 12.5481 12.0899 12.6167L12.4181 13.7129L13.1925 12.5722C13.2228 12.5277 13.2732 12.5011 13.3267 12.5011Z" fill="#253B80"/>
<path fill-rule="evenodd" clip-rule="evenodd" d="M19.4124 14.5506L19.8912 11.5041C19.8986 11.4568 19.9395 11.422 19.9871 11.4219H20.5262C20.5857 11.4219 20.6314 11.4752 20.622 11.5343L20.1498 14.5259C20.1375 14.6049 20.0696 14.6629 19.9897 14.6629H19.5082C19.4487 14.6629 19.403 14.6097 19.4124 14.5506ZM15.7454 11.422H14.5784C14.4988 11.422 14.4309 11.4801 14.4184 11.5588L13.9465 14.5506C13.9371 14.6097 13.9829 14.6629 14.0425 14.6629H14.6412C14.6969 14.6629 14.7445 14.6223 14.7531 14.5671L14.887 13.719C14.8994 13.64 14.9674 13.582 15.0471 13.582H15.4162C16.1849 13.582 16.6284 13.2101 16.7444 12.4731C16.7967 12.1507 16.7464 11.8974 16.5955 11.7199C16.4298 11.5251 16.1358 11.422 15.7454 11.422ZM15.88 12.5147C15.8163 12.9334 15.4964 12.9334 15.187 12.9334H15.0111L15.1348 12.1515C15.1421 12.1043 15.1827 12.0695 15.2306 12.0695H15.3113C15.5219 12.0695 15.7208 12.0695 15.8234 12.1896C15.8847 12.2612 15.9033 12.3677 15.88 12.5147ZM19.2326 12.5013H18.6743C18.6263 12.5013 18.5856 12.5361 18.5784 12.5834L18.5537 12.7397L18.5144 12.6831C18.3935 12.5075 18.124 12.4488 17.8548 12.4488C17.2373 12.4488 16.7102 12.9164 16.6075 13.5724C16.5543 13.8996 16.6298 14.2124 16.8154 14.4306C16.986 14.6313 17.2293 14.7149 17.5192 14.7149C18.0166 14.7149 18.2924 14.395 18.2924 14.395L18.2676 14.5503C18.2582 14.6096 18.3039 14.6628 18.3638 14.6628H18.8669C18.9465 14.6628 19.0144 14.6048 19.0269 14.5259L19.329 12.6136C19.3383 12.5548 19.2926 12.5013 19.2326 12.5013ZM18.4539 13.5887C18.4003 13.9079 18.1466 14.1222 17.8235 14.1222C17.6616 14.1222 17.5316 14.0702 17.4483 13.9716C17.3658 13.8737 17.3347 13.7342 17.3607 13.579C17.4113 13.2625 17.6686 13.0413 17.9868 13.0413C18.1454 13.0413 18.2744 13.094 18.3594 13.1935C18.4448 13.294 18.4786 13.4342 18.4539 13.5887Z" fill="#179BD7"/>
<path d="M11.7447 10.3633L11.8881 9.45223L11.5686 9.44481H10.043L11.1032 2.72194C11.1065 2.70164 11.1172 2.68272 11.1328 2.66928C11.1485 2.65584 11.1685 2.64844 11.1894 2.64844H13.7619C14.6159 2.64844 15.2053 2.82616 15.513 3.17693C15.6572 3.34149 15.7491 3.51344 15.7936 3.70268C15.8402 3.90125 15.841 4.13848 15.7955 4.42782L15.7922 4.44894V4.63433L15.9365 4.71607C16.058 4.78051 16.1545 4.85429 16.2285 4.93876C16.352 5.07945 16.4318 5.25827 16.4655 5.47027C16.5003 5.68831 16.4888 5.94775 16.4318 6.24148C16.366 6.57937 16.2595 6.87365 16.1159 7.11445C15.9836 7.33632 15.8152 7.52031 15.6153 7.66297C15.4244 7.79844 15.1976 7.90131 14.9412 7.96715C14.6927 8.03181 14.4094 8.06449 14.0987 8.06449H13.8985C13.7553 8.06449 13.6162 8.11604 13.5071 8.20849C13.3977 8.30283 13.3252 8.43168 13.303 8.57268L13.2879 8.6547L13.0345 10.2604L13.023 10.3194C13.02 10.3381 13.0148 10.3474 13.0071 10.3537C13.0003 10.3594 12.9904 10.3633 12.9808 10.3633H11.7447Z" fill="#253B80"/>
<path d="M16.0731 4.46875C16.0655 4.51784 16.0567 4.56803 16.0468 4.61959C15.7075 6.3614 14.5469 6.96312 13.0645 6.96312H12.3098C12.1285 6.96312 11.9757 7.09476 11.9475 7.27357L11.561 9.72437L11.4516 10.419C11.4332 10.5364 11.5238 10.6423 11.6422 10.6423H12.9809C13.1394 10.6423 13.274 10.5271 13.299 10.3708L13.3122 10.3027L13.5642 8.70326L13.5804 8.61555C13.6051 8.45868 13.74 8.34349 13.8985 8.34349H14.0987C15.3957 8.34349 16.411 7.81691 16.7078 6.29311C16.8317 5.65655 16.7675 5.12505 16.4395 4.75123C16.3403 4.63851 16.2171 4.54499 16.0731 4.46875Z" fill="#179BD7"/>
<path d="M15.7161 4.32489C15.6643 4.30981 15.6108 4.29609 15.5559 4.28375C15.5008 4.27169 15.4443 4.26099 15.3862 4.25167C15.1826 4.21876 14.9597 4.20312 14.7208 4.20312H12.7045C12.6548 4.20312 12.6077 4.21437 12.5654 4.23466C12.4724 4.27936 12.4034 4.36741 12.3866 4.47519L11.9576 7.19198L11.9453 7.27124C11.9736 7.09242 12.1263 6.96078 12.3076 6.96078H13.0623C14.5447 6.96078 15.7054 6.35879 16.0447 4.61725C16.0548 4.56569 16.0633 4.5155 16.071 4.46641C15.9851 4.42089 15.8921 4.38194 15.792 4.34875C15.7674 4.34053 15.7419 4.33258 15.7161 4.32489Z" fill="#222D65"/>
<path d="M12.3867 4.4787C12.4034 4.37091 12.4726 4.28287 12.5655 4.23844C12.608 4.21814 12.6549 4.2069 12.7045 4.2069H14.7209C14.9598 4.2069 15.1828 4.22253 15.3862 4.25545C15.4444 4.26477 15.5009 4.27547 15.556 4.28753C15.6109 4.29988 15.6643 4.31359 15.7162 4.32867C15.7419 4.33635 15.7674 4.3443 15.7924 4.35226C15.8925 4.38544 15.9855 4.42466 16.0713 4.46992C16.1723 3.82623 16.0705 3.38797 15.7225 2.99112C15.3388 2.55423 14.6463 2.36719 13.7602 2.36719H11.1876C11.0066 2.36719 10.8523 2.49882 10.8242 2.67792L9.75275 9.4699C9.73159 9.60427 9.83525 9.72553 9.97072 9.72553H11.559L11.9578 7.19549L12.3867 4.4787Z" fill="#253B80"/>
</svg>
