<svg width="20" height="20" viewBox="0 0 20 20" fill="none" xmlns="http://www.w3.org/2000/svg">
<path d="M18.3346 9.9974C18.3346 14.5998 14.6037 18.3307 10.0013 18.3307C5.39893 18.3307 1.66797 14.5998 1.66797 9.9974C1.66797 5.39502 5.39893 1.66406 10.0013 1.66406C14.6037 1.66406 18.3346 5.39502 18.3346 9.9974Z" fill="#F0E9DB"/>
<path fill-rule="evenodd" clip-rule="evenodd" d="M13.7184 7.00668C13.9908 7.2186 14.0399 7.61127 13.828 7.88374L10.4888 12.177C9.96906 12.8452 8.99138 12.9319 8.36211 12.3656L6.24987 10.4646C5.9933 10.2337 5.9725 9.83849 6.20342 9.58193C6.43433 9.32536 6.82951 9.30456 7.08608 9.53547L9.19831 11.4365C9.28821 11.5174 9.42788 11.505 9.50213 11.4095L12.8413 7.11632C13.0532 6.84385 13.4459 6.79476 13.7184 7.00668Z" fill="#796233"/>
</svg>
