<svg width="20" height="20" viewBox="0 0 20 20" fill="none" xmlns="http://www.w3.org/2000/svg">
<path d="M18.3337 10.0003C18.3337 14.6027 14.6027 18.3337 10.0003 18.3337C5.39795 18.3337 1.66699 14.6027 1.66699 10.0003C1.66699 5.39795 5.39795 1.66699 10.0003 1.66699C14.6027 1.66699 18.3337 5.39795 18.3337 10.0003Z" fill="#FEE2E2"/>
<path fill-rule="evenodd" clip-rule="evenodd" d="M11.9147 12.7986C12.1588 13.0426 12.5545 13.0426 12.7986 12.7986C13.0427 12.5545 13.0427 12.1588 12.7986 11.9147L10.8835 9.99965L12.7986 8.08463C13.0426 7.84055 13.0426 7.44482 12.7986 7.20075C12.5545 6.95667 12.1588 6.95667 11.9147 7.20075L9.99966 9.11577L8.08453 7.20064C7.84045 6.95656 7.44473 6.95656 7.20065 7.20064C6.95657 7.44471 6.95657 7.84044 7.20065 8.08452L9.11578 9.99965L7.20064 11.9148C6.95656 12.1589 6.95656 12.5546 7.20064 12.7987C7.44471 13.0428 7.84044 13.0428 8.08452 12.7987L9.99966 10.8835L11.9147 12.7986Z" fill="#991B1B"/>
</svg>
