<svg width="26" height="18" viewBox="0 0 26 18" fill="none" xmlns="http://www.w3.org/2000/svg">
<rect width="25.875" height="18" rx="0.225" fill="#5A31F4"/>
<path d="M14.5685 8.29593C14.5685 9.45101 13.7703 10.2756 12.6548 10.2756H11.6039C11.5923 10.2756 11.5808 10.2779 11.5701 10.2824C11.5594 10.2869 11.5496 10.2935 11.5415 10.3019C11.5333 10.3102 11.5268 10.3201 11.5224 10.331C11.518 10.3419 11.5158 10.3536 11.5158 10.3653V11.8835C11.5158 11.9072 11.5065 11.93 11.49 11.9468C11.4735 11.9636 11.4511 11.9731 11.4277 11.9733H10.6923C10.6749 11.9732 10.6578 11.9679 10.6433 11.958C10.6287 11.9481 10.6174 11.9341 10.6107 11.9177C10.6062 11.907 10.6039 11.8955 10.6038 11.8839V6.40565C10.6038 6.39388 10.606 6.38221 10.6104 6.37132C10.6148 6.36043 10.6213 6.35053 10.6295 6.34219C10.6377 6.33384 10.6474 6.32722 10.6581 6.32271C10.6688 6.31819 10.6803 6.31586 10.6919 6.31586H12.6595C13.7703 6.31456 14.5685 7.13912 14.5685 8.29593ZM13.6514 8.29593C13.6514 7.63186 13.2051 7.14649 12.5997 7.14649H11.6039C11.5923 7.14649 11.5808 7.14882 11.5701 7.15334C11.5594 7.15785 11.5496 7.16447 11.5415 7.17282C11.5333 7.18116 11.5268 7.19106 11.5224 7.20195C11.518 7.21284 11.5158 7.22451 11.5158 7.23628V9.35038C11.5158 9.37407 11.5251 9.3968 11.5416 9.41356C11.5581 9.43031 11.5805 9.43973 11.6039 9.43973H12.5997C13.2051 9.44407 13.6514 8.95827 13.6514 8.29593ZM14.7866 10.9223C14.779 10.7451 14.8151 10.5689 14.8917 10.4095C14.9683 10.2501 15.083 10.1127 15.2253 10.0097C15.5122 9.79063 15.9607 9.67742 16.6191 9.654L17.3203 9.62884V9.41891C17.3203 8.99817 17.0424 8.82033 16.596 8.82033C16.1496 8.82033 15.8666 8.98082 15.8016 9.24324C15.7963 9.26169 15.7851 9.27784 15.7698 9.28915C15.7545 9.30045 15.7359 9.30627 15.7169 9.3057H15.0243C15.0116 9.30605 14.9989 9.30355 14.9872 9.29837C14.9755 9.29319 14.9651 9.28546 14.9567 9.27572C14.9483 9.26599 14.9421 9.2545 14.9385 9.24206C14.935 9.22962 14.9342 9.21655 14.9362 9.20377C15.0388 8.58177 15.5489 8.10898 16.6276 8.10898C17.7752 8.10898 18.1895 8.65117 18.1895 9.6861V11.8835C18.1893 11.9074 18.1797 11.9303 18.1629 11.9472C18.146 11.964 18.1233 11.9734 18.0997 11.9733H17.4015C17.3781 11.9732 17.3557 11.9639 17.3391 11.9472C17.3309 11.9389 17.3244 11.929 17.32 11.9182C17.3156 11.9073 17.3134 11.8957 17.3134 11.8839V11.7195C17.3137 11.7059 17.3099 11.6926 17.3025 11.6812C17.2951 11.6699 17.2845 11.6611 17.2721 11.656C17.2597 11.6508 17.2461 11.6497 17.233 11.6526C17.2199 11.6555 17.208 11.6623 17.1988 11.6722C16.9893 11.9034 16.6512 12.0704 16.1094 12.0704C15.3125 12.0704 14.7866 11.6497 14.7866 10.9223ZM17.3203 10.446V10.2756L16.4122 10.3241C15.9337 10.3489 15.6554 10.5506 15.6554 10.8902C15.6554 11.1973 15.9106 11.3673 16.3566 11.3673C16.9624 11.3673 17.3203 11.0355 17.3203 10.446ZM18.8907 13.6337V12.9969C18.8908 12.9836 18.8938 12.9704 18.8995 12.9584C18.9053 12.9463 18.9135 12.9357 18.9237 12.9273C18.9339 12.9188 18.9458 12.9128 18.9586 12.9095C18.9713 12.9062 18.9846 12.9059 18.9976 12.9084C19.1045 12.9288 19.2135 12.9392 19.3225 12.9397C19.5099 12.9489 19.695 12.8941 19.8481 12.784C20.0012 12.6739 20.1135 12.5149 20.1669 12.3324L20.2122 12.1858C20.2188 12.1661 20.2188 12.1448 20.2122 12.1251L18.7573 8.3341C18.752 8.32036 18.7501 8.30552 18.7518 8.29088C18.7534 8.27623 18.7585 8.2622 18.7667 8.25C18.7748 8.2378 18.7858 8.22779 18.7986 8.22083C18.8114 8.21387 18.8257 8.21017 18.8402 8.21005H19.5457C19.5637 8.21024 19.5813 8.21592 19.5961 8.22636C19.6108 8.23681 19.6222 8.25153 19.6286 8.2686L20.6167 10.9422C20.6229 10.96 20.6344 10.9754 20.6495 10.9863C20.6647 10.9971 20.6828 11.003 20.7014 11.003C20.7199 11.003 20.738 10.9971 20.7532 10.9863C20.7684 10.9754 20.7798 10.96 20.786 10.9422L21.6441 8.27598C21.6501 8.25775 21.6615 8.2419 21.6769 8.23068C21.6922 8.21947 21.7107 8.21346 21.7296 8.21352H22.4595C22.4741 8.21361 22.4885 8.21728 22.5014 8.22424C22.5143 8.23119 22.5254 8.2412 22.5336 8.25343C22.5419 8.26566 22.5472 8.27974 22.5489 8.29447C22.5507 8.30919 22.5489 8.32413 22.5437 8.338L20.9874 12.548C20.6291 13.5265 20.0147 13.7768 19.3383 13.7768C19.2101 13.7803 19.0818 13.7646 18.9578 13.7304C18.9372 13.7248 18.9192 13.7121 18.9069 13.6944C18.8946 13.6767 18.8889 13.6552 18.8907 13.6337ZM5.8781 6.00009C4.9512 5.99339 4.05701 6.34731 3.37948 6.98904C3.3505 7.01596 3.33244 7.05286 3.3288 7.09255C3.32517 7.13223 3.33622 7.17187 3.35981 7.20375L3.77924 7.78497C3.79284 7.80432 3.81045 7.82042 3.83084 7.83212C3.85122 7.84383 3.87389 7.85086 3.89724 7.85272C3.9206 7.85458 3.94407 7.85122 3.96601 7.84289C3.98795 7.83456 4.00782 7.82145 4.02423 7.80449C4.26785 7.5574 4.55758 7.36205 4.87647 7.22986C5.19537 7.09766 5.53704 7.03128 5.88152 7.03459C7.31981 7.03459 8.07102 8.13284 8.07102 9.21721C8.07102 10.3961 7.28175 11.2255 6.14746 11.242C5.27097 11.242 4.6104 10.6525 4.6104 9.87391C4.61132 9.67722 4.65524 9.48318 4.73901 9.30579C4.82278 9.1284 4.9443 8.97208 5.09482 8.84809C5.12664 8.82113 5.14675 8.78257 5.15083 8.74071C5.15491 8.69885 5.14263 8.65704 5.11663 8.62428L4.67582 8.05954C4.66249 8.04246 4.64592 8.02826 4.62709 8.01779C4.60826 8.00731 4.58756 8.00077 4.5662 7.99854C4.54483 7.99632 4.52325 7.99846 4.50272 8.00484C4.48219 8.01122 4.46312 8.0217 4.44665 8.03568C4.17593 8.25695 3.95746 8.5369 3.80728 8.85498C3.65709 9.17307 3.579 9.52122 3.57872 9.87391C3.57872 11.2142 4.70147 12.2656 6.13976 12.2743H6.159C7.86665 12.2517 9.10142 10.9687 9.10142 9.21505C9.10142 7.65788 7.97097 6.00009 5.87852 6.00009H5.8781Z" fill="white"/>
</svg>
