<svg width="132" height="30" viewBox="0 0 132 30" fill="none" xmlns="http://www.w3.org/2000/svg">
<mask id="mask0_8779_19281" style="mask-type:luminance" maskUnits="userSpaceOnUse" x="0" y="0" width="132" height="30">
<path d="M0 0H132V30H0V0Z" fill="white"/>
</mask>
<g mask="url(#mask0_8779_19281)">
<path d="M131.947 0L131.64 0.068C130.468 0.328 127.35 1.368 123.93 5.306C123.278 6.05403 122.719 6.87838 122.265 7.761C121.109 6.289 119.539 5.186 118.426 4.677L116.883 7.85L117.127 7.938C117.302 8.006 118.792 8.802 119.831 10.102C120.282 10.664 120.87 11.662 121.178 12.766L121.22 12.937L123.702 13.12L123.935 13.13L123.978 12.911C124.184 11.679 124.561 9.384 126.348 7.335C128.585 4.76 130.144 3.99 131.799 3.621L131.995 3.579L131.942 0.005L131.947 0Z" fill="#0068FF"/>
<path d="M131.947 0L131.64 0.068C130.468 0.328 127.35 1.368 123.93 5.306C123.278 6.05403 122.719 6.87838 122.265 7.761C121.109 6.289 119.539 5.186 118.426 4.677L116.883 7.85L117.127 7.938C117.302 8.006 118.792 8.802 119.831 10.102C120.282 10.664 120.87 11.662 121.178 12.766L121.22 12.937L123.702 13.12L123.935 13.13L123.978 12.911C124.184 11.679 124.561 9.384 126.348 7.335C128.585 4.76 130.144 3.99 131.799 3.621L131.995 3.579L131.942 0.005L131.947 0Z" fill="url(#paint0_radial_8779_19281)"/>
<path d="M10.8518 15.0486L6.58381 14.5076C4.42581 14.2476 4.25081 13.6596 4.25081 12.9726C4.25081 11.5326 6.22881 11.0226 8.08381 11.0226C10.7088 11.0226 12.3948 11.9796 12.4858 13.5136L12.5018 13.8056H16.1548L16.1278 13.4726C15.9638 11.5006 14.7128 8.19258 8.10581 8.18658C3.41781 8.18658 0.618812 10.0906 0.612812 13.2856C0.612812 15.9586 2.95681 17.2386 5.15781 17.5406L10.1148 18.1706C12.6128 18.4976 12.8148 19.1216 12.8148 19.8506C12.8148 21.1246 11.1808 21.8576 8.31781 21.8576C6.66281 21.8576 5.41181 21.5456 4.60081 20.9316C3.79481 20.3236 3.67781 19.5796 3.67781 19.1896V18.8776H0.0078125L0.0348125 19.2156C0.310813 22.8516 3.12681 24.6926 8.40281 24.7036H8.41881C13.7098 24.7036 16.6268 22.7936 16.6318 19.3246C16.6318 16.9576 14.8018 15.6046 10.8578 15.0696L10.8518 15.0486ZM17.5828 8.69958L17.5628 24.1816L21.2058 24.1856L21.2258 8.70458L17.5828 8.69958ZM19.4048 3.01758C18.1748 3.01758 17.1728 3.84458 17.1728 4.86358V5.04058C17.1728 6.06058 18.1748 6.88758 19.4048 6.89258C20.6348 6.89258 21.6378 6.06558 21.6378 5.04558V4.86958C21.6378 3.84958 20.6348 3.02358 19.4048 3.01858V3.01758ZM30.4808 21.6976C28.6208 21.6976 28.3658 21.0676 28.3658 20.3916L28.3758 11.5486H32.0238V8.71858H28.3758V4.14558H24.7328V8.70958H22.3528V11.5446H24.7388L24.7288 20.8766C24.7288 22.6246 25.5018 24.7056 29.2088 24.7106H29.4308C30.6298 24.7106 31.6268 24.6946 32.6178 24.5076L32.8778 24.4606V21.4546L32.5118 21.5166C31.7058 21.6466 31.0858 21.7096 30.4918 21.7096L30.4818 21.6996L30.4808 21.6976Z" fill="#0E213D" fill-opacity="0.85"/>
<path d="M41.054 8.21471C35.635 8.21471 32.13 11.4507 32.125 16.4547C32.125 21.4697 35.625 24.7097 41.055 24.7147H41.06C43.87 24.7147 47.433 23.3477 49.008 19.5077L49.183 19.0817H45.503L45.418 19.2587C44.422 21.3917 42.173 21.7087 40.916 21.7087C38.61 21.7087 36.176 20.3037 35.805 17.6197L49.432 17.6357V16.9537C49.432 12.9277 47.248 8.21971 41.06 8.21371H41.054V8.21471ZM40.922 10.9087V11.2217C43.392 11.2217 45.201 12.5847 45.726 14.8007L35.932 14.7907C36.478 12.6407 38.435 11.2207 40.927 11.2207V10.9087H40.922ZM67.216 8.75071L61.6 8.74571L54.028 14.7487L54.039 3.17871H50.396L50.375 24.2167L54.018 24.2217L54.023 18.7017L56.425 16.9127L62.597 24.2327H67.523L59.336 14.6917L67.216 8.75071Z" fill="#0E213D" fill-opacity="0.85"/>
<path d="M74.1876 8.25C68.7476 8.25 65.2316 11.486 65.2266 16.49C65.2266 18.769 66.0166 20.828 67.4586 22.285C69.0486 23.898 71.3766 24.745 74.1876 24.751H74.1976C77.0186 24.751 80.5976 23.383 82.1726 19.544L82.3476 19.117H78.6576L78.5726 19.294C77.5706 21.427 75.3116 21.744 74.0496 21.744C71.7326 21.744 69.2876 20.34 68.9166 17.655L82.6026 17.671V16.989C82.6026 12.963 80.4126 8.255 74.1976 8.25H74.1876ZM69.0386 14.825C69.5846 12.677 71.5516 11.257 74.0486 11.257V10.945L74.0596 11.257C76.5366 11.257 78.3496 12.62 78.8746 14.836L69.0386 14.826V14.825ZM92.4546 8.267C86.9666 8.267 83.4186 11.503 83.4146 16.507C83.4146 21.522 86.9556 24.762 92.4486 24.767H92.4596C95.3016 24.767 98.9126 23.4 100.499 19.561L100.679 19.129H96.9616L96.8766 19.306C95.8696 21.438 93.5896 21.756 92.3116 21.756C89.9726 21.756 87.5076 20.351 87.1316 17.667L100.933 17.683V17C100.933 12.974 98.7226 8.266 92.4546 8.26V8.266V8.267ZM87.2576 14.842C87.8096 12.694 89.7976 11.274 92.3166 11.274V10.962L92.3266 11.274C94.8246 11.274 96.6536 12.637 97.1896 14.853L87.2636 14.843H87.2576V14.842ZM117.411 10.595C115.82 9.217 113.593 8.457 111.138 8.457C108.853 8.457 106.705 9.207 105.422 10.418V8.795H101.779L101.758 30.004H105.401L105.406 22.825C106.694 24.053 108.81 24.791 111.138 24.797C116.366 24.797 120.02 21.441 120.025 16.64C120.025 14.174 119.123 12.088 117.411 10.605V10.595ZM110.746 11.459V11.146L110.756 11.459C114.775 11.459 116.207 14.127 116.202 16.624C116.202 19.854 114.16 21.779 110.74 21.779C109.096 21.779 107.713 21.301 106.737 20.401C105.751 19.491 105.231 18.18 105.231 16.614C105.231 14.122 106.684 11.459 110.74 11.459H110.746Z" fill="#0E213D" fill-opacity="0.85"/>
</g>
<defs>
<radialGradient id="paint0_radial_8779_19281" cx="0" cy="0" r="1" gradientUnits="userSpaceOnUse" gradientTransform="translate(124.439) rotate(90) scale(13.13 16.8622)">
<stop stop-color="#5297FF"/>
<stop offset="1" stop-color="#3386FF"/>
</radialGradient>
</defs>
</svg>
