<svg width="78" height="25" viewBox="0 0 78 25" fill="none" xmlns="http://www.w3.org/2000/svg">
<path d="M15.4048 0.412795V0.746737C15.0486 0.757869 14.7814 0.802394 14.6033 0.880315C14.4252 0.947103 14.3028 1.08068 14.236 1.28105C14.1803 1.47028 14.1525 1.77083 14.1525 2.18269V10.4645C14.1525 10.8652 14.1803 11.1658 14.236 11.3661C14.3028 11.5665 14.4252 11.7001 14.6033 11.7669C14.7814 11.8336 15.0486 11.8782 15.4048 11.9004V12.2344C15.0931 12.2121 14.6979 12.201 14.2193 12.201C13.7518 12.1898 13.2731 12.1843 12.7833 12.1843C12.249 12.1843 11.7481 12.1898 11.2806 12.201C10.8131 12.201 10.4346 12.2121 10.1452 12.2344V11.9004C10.5236 11.8782 10.8075 11.8336 10.9967 11.7669C11.1971 11.7001 11.3307 11.5665 11.3975 11.3661C11.4643 11.1658 11.4976 10.8652 11.4976 10.4645V1.43132H11.6145L7.47363 12.2511H7.20648L2.69825 1.49811V9.49604C2.69825 10.1083 2.73164 10.5814 2.79843 10.9153C2.86522 11.2381 3.00993 11.4719 3.23256 11.6166C3.46632 11.7502 3.82809 11.8448 4.31787 11.9004V12.2344C4.10637 12.2121 3.82809 12.201 3.48301 12.201C3.13794 12.1898 2.81513 12.1843 2.51458 12.1843C2.25856 12.1843 1.99697 12.1898 1.72981 12.201C1.46266 12.201 1.24003 12.2121 1.06193 12.2344V11.9004C1.41813 11.8448 1.68529 11.7502 1.86339 11.6166C2.04149 11.483 2.15837 11.2659 2.21403 10.9654C2.28082 10.6537 2.31421 10.2307 2.31421 9.69641V2.18269C2.31421 1.77083 2.28082 1.47028 2.21403 1.28105C2.15837 1.08068 2.03593 0.947103 1.84669 0.880315C1.66859 0.802394 1.407 0.757869 1.06193 0.746737V0.412795C1.24003 0.423926 1.46266 0.435057 1.72981 0.446188C1.99697 0.45732 2.25856 0.462885 2.51458 0.462885C2.99323 0.462885 3.46075 0.45732 3.91714 0.446188C4.38466 0.435057 4.79652 0.423926 5.15273 0.412795L8.65913 8.87825L8.2417 9.26228L11.5978 0.462885C11.7871 0.462885 11.9819 0.462885 12.1822 0.462885C12.3826 0.462885 12.583 0.462885 12.7833 0.462885C13.2731 0.462885 13.7518 0.45732 14.2193 0.446188C14.6979 0.435057 15.0931 0.423926 15.4048 0.412795ZM27.1555 0.412795V0.746737C26.7993 0.791263 26.5266 0.88588 26.3374 1.03059C26.1593 1.16417 26.0424 1.38123 25.9867 1.68178C25.9311 1.98233 25.9032 2.40532 25.9032 2.95076V7.3755C25.9032 8.09905 25.8531 8.76137 25.753 9.36247C25.6528 9.96356 25.4747 10.4812 25.2187 10.9153C24.9292 11.394 24.5062 11.7724 23.9497 12.0507C23.3931 12.329 22.6863 12.4681 21.8291 12.4681C21.3171 12.4681 20.7939 12.4069 20.2596 12.2845C19.7253 12.1732 19.2466 11.9561 18.8236 11.6333C18.4674 11.3327 18.1947 10.9932 18.0055 10.6148C17.8163 10.2363 17.6882 9.79103 17.6215 9.27898C17.5547 8.7558 17.5213 8.13801 17.5213 7.4256V2.18269C17.5213 1.77083 17.4879 1.47028 17.4211 1.28105C17.3654 1.08068 17.2486 0.947103 17.0704 0.880315C16.8923 0.802394 16.6252 0.757869 16.269 0.746737V0.412795C16.5473 0.423926 16.9202 0.435057 17.3877 0.446188C17.8663 0.45732 18.3617 0.462885 18.8737 0.462885C19.3858 0.462885 19.8756 0.45732 20.3431 0.446188C20.8217 0.435057 21.2169 0.423926 21.5286 0.412795V0.746737C21.1501 0.757869 20.8607 0.802394 20.6603 0.880315C20.4711 0.947103 20.3431 1.08068 20.2763 1.28105C20.2095 1.47028 20.1761 1.77083 20.1761 2.18269V8.47752C20.1761 9.03409 20.2095 9.52944 20.2763 9.96356C20.3542 10.3866 20.4767 10.7428 20.6436 11.0322C20.8217 11.3105 21.0611 11.522 21.3616 11.6667C21.6622 11.8114 22.0351 11.8837 22.4803 11.8837C23.2595 11.8837 23.8662 11.7001 24.3003 11.3327C24.7456 10.9654 25.0573 10.4589 25.2354 9.81329C25.4246 9.15653 25.5192 8.40516 25.5192 7.55917V3.15113C25.5192 2.5389 25.4802 2.07138 25.4023 1.74857C25.3244 1.41462 25.1686 1.1753 24.9348 1.03059C24.7122 0.88588 24.3671 0.791263 23.8996 0.746737V0.412795C24.1111 0.423926 24.3894 0.435057 24.7344 0.446188C25.0795 0.45732 25.4023 0.462885 25.7029 0.462885C25.97 0.462885 26.2316 0.45732 26.4876 0.446188C26.7548 0.435057 26.9774 0.423926 27.1555 0.412795ZM32.2056 0.195731C32.8624 0.195731 33.3689 0.268086 33.7251 0.412795C34.0813 0.546371 34.3874 0.69108 34.6434 0.84692C34.777 0.92484 34.8827 0.986063 34.9607 1.03059C35.0497 1.06398 35.1332 1.08068 35.2111 1.08068C35.3224 1.08068 35.4004 1.01946 35.4449 0.897012C35.5005 0.774565 35.5451 0.590897 35.5785 0.346006H35.9625C35.9514 0.557503 35.9347 0.813526 35.9124 1.11407C35.9013 1.40349 35.8901 1.78753 35.879 2.26618C35.879 2.74483 35.879 3.37376 35.879 4.15296H35.495C35.4504 3.57412 35.3169 3.01198 35.0942 2.46654C34.8716 1.9211 34.5544 1.47585 34.1425 1.13077C33.7418 0.774566 33.2464 0.596463 32.6565 0.596463C32.1221 0.596463 31.6825 0.746737 31.3374 1.04729C30.9923 1.34783 30.8198 1.76526 30.8198 2.29957C30.8198 2.74483 30.9311 3.12886 31.1537 3.45168C31.3763 3.76336 31.6992 4.06947 32.1221 4.37002C32.5563 4.67057 33.0794 5.03234 33.6917 5.45533C34.226 5.80041 34.7046 6.14548 35.1276 6.49056C35.5506 6.83563 35.8901 7.22523 36.1462 7.65936C36.4022 8.09348 36.5302 8.61109 36.5302 9.21219C36.5302 9.94687 36.3354 10.5535 35.9458 11.0322C35.5673 11.5108 35.0664 11.8726 34.443 12.1175C33.8197 12.3513 33.1351 12.4681 32.3893 12.4681C31.6992 12.4681 31.1481 12.4013 30.7363 12.2678C30.3244 12.1342 29.9793 11.995 29.7011 11.8503C29.4562 11.6945 29.2669 11.6166 29.1334 11.6166C29.022 11.6166 28.9386 11.6778 28.8829 11.8002C28.8384 11.9227 28.7994 12.1064 28.766 12.3513H28.382C28.4042 12.0841 28.4154 11.7724 28.4154 11.4162C28.4265 11.06 28.4321 10.5981 28.4321 10.0304C28.4432 9.45152 28.4488 8.72241 28.4488 7.84303H28.8328C28.8773 8.5777 28.9998 9.26785 29.2001 9.91347C29.4116 10.548 29.7289 11.06 30.1519 11.4496C30.586 11.8392 31.1593 12.034 31.8717 12.034C32.2613 12.034 32.6064 11.9672 32.9069 11.8336C33.2186 11.6889 33.469 11.4774 33.6583 11.1992C33.8475 10.9209 33.9421 10.5758 33.9421 10.1639C33.9421 9.69641 33.8308 9.29011 33.6082 8.94504C33.3967 8.59996 33.1017 8.27715 32.7232 7.9766C32.3559 7.67605 31.9273 7.36994 31.4376 7.05826C30.9144 6.71318 30.4246 6.36811 29.9682 6.02304C29.5118 5.67796 29.1445 5.2828 28.8662 4.83754C28.599 4.39228 28.4655 3.86354 28.4655 3.25131C28.4655 2.55003 28.638 1.97676 28.9831 1.5315C29.3393 1.07511 29.8012 0.741171 30.3689 0.529674C30.9478 0.307046 31.56 0.195731 32.2056 0.195731ZM43.1471 0.3794L47.2045 10.8318C47.3603 11.2325 47.5329 11.5108 47.7221 11.6667C47.9225 11.8114 48.1006 11.8893 48.2564 11.9004V12.2344C47.9225 12.2121 47.5273 12.201 47.0709 12.201C46.6257 12.1898 46.1748 12.1843 45.7184 12.1843C45.2064 12.1843 44.7222 12.1898 44.2658 12.201C43.8094 12.201 43.4476 12.2121 43.1805 12.2344V11.9004C43.7482 11.8782 44.1044 11.7836 44.2491 11.6166C44.4049 11.4385 44.3715 11.0656 44.1489 10.4979L41.3104 2.7337L41.6109 2.29957L39.073 8.91164C38.8281 9.52387 38.6778 10.0248 38.6222 10.4144C38.5776 10.804 38.6055 11.1045 38.7056 11.316C38.817 11.5275 38.9895 11.6778 39.2233 11.7669C39.4681 11.8448 39.7576 11.8893 40.0915 11.9004V12.2344C39.7242 12.2121 39.3735 12.201 39.0396 12.201C38.7056 12.1898 38.3661 12.1843 38.0211 12.1843C37.7762 12.1843 37.5424 12.1898 37.3198 12.201C37.1083 12.201 36.9191 12.2121 36.7521 12.2344V11.9004C36.9858 11.8559 37.2252 11.7056 37.4701 11.4496C37.7149 11.1936 37.9543 10.7595 38.188 10.1472L41.995 0.3794C42.1731 0.390531 42.3623 0.396097 42.5627 0.396097C42.7742 0.396097 42.969 0.390531 43.1471 0.3794ZM44.3159 7.4256V7.75954H39.3401L39.5071 7.4256H44.3159ZM52.8814 0.195731C53.5381 0.195731 54.0446 0.268086 54.4008 0.412795C54.757 0.546371 55.0632 0.69108 55.3192 0.84692C55.4528 0.92484 55.5585 0.986063 55.6364 1.03059C55.7255 1.06398 55.809 1.08068 55.8869 1.08068C55.9982 1.08068 56.0761 1.01946 56.1206 0.897012C56.1763 0.774565 56.2208 0.590897 56.2542 0.346006H56.6383C56.6271 0.557503 56.6104 0.813526 56.5882 1.11407C56.577 1.40349 56.5659 1.78753 56.5548 2.26618C56.5548 2.74483 56.5548 3.37376 56.5548 4.15296H56.1707C56.1262 3.57412 55.9926 3.01198 55.77 2.46654C55.5474 1.9211 55.2301 1.47585 54.8183 1.13077C54.4175 0.774566 53.9222 0.596463 53.3322 0.596463C52.7979 0.596463 52.3582 0.746737 52.0131 1.04729C51.6681 1.34783 51.4955 1.76526 51.4955 2.29957C51.4955 2.74483 51.6068 3.12886 51.8295 3.45168C52.0521 3.76336 52.3749 4.06947 52.7979 4.37002C53.232 4.67057 53.7552 5.03234 54.3674 5.45533C54.9017 5.80041 55.3804 6.14548 55.8034 6.49056C56.2264 6.83563 56.5659 7.22523 56.8219 7.65936C57.0779 8.09348 57.206 8.61109 57.206 9.21219C57.206 9.94687 57.0112 10.5535 56.6216 11.0322C56.2431 11.5108 55.7422 11.8726 55.1188 12.1175C54.4955 12.3513 53.8109 12.4681 53.0651 12.4681C52.3749 12.4681 51.8239 12.4013 51.412 12.2678C51.0002 12.1342 50.6551 11.995 50.3768 11.8503C50.1319 11.6945 49.9427 11.6166 49.8091 11.6166C49.6978 11.6166 49.6143 11.6778 49.5587 11.8002C49.5141 11.9227 49.4752 12.1064 49.4418 12.3513H49.0577C49.08 12.0841 49.0911 11.7724 49.0911 11.4162C49.1023 11.06 49.1078 10.5981 49.1078 10.0304C49.119 9.45152 49.1245 8.72241 49.1245 7.84303H49.5086C49.5531 8.5777 49.6755 9.26785 49.8759 9.91347C50.0874 10.548 50.4047 11.06 50.8276 11.4496C51.2618 11.8392 51.835 12.034 52.5475 12.034C52.9371 12.034 53.2821 11.9672 53.5827 11.8336C53.8944 11.6889 54.1448 11.4774 54.334 11.1992C54.5233 10.9209 54.6179 10.5758 54.6179 10.1639C54.6179 9.69641 54.5066 9.29011 54.284 8.94504C54.0725 8.59996 53.7775 8.27715 53.399 7.9766C53.0317 7.67605 52.6031 7.36994 52.1133 7.05826C51.5901 6.71318 51.1004 6.36811 50.644 6.02304C50.1876 5.67796 49.8203 5.2828 49.542 4.83754C49.2748 4.39228 49.1412 3.86354 49.1412 3.25131C49.1412 2.55003 49.3138 1.97676 49.6588 1.5315C50.0151 1.07511 50.477 0.741171 51.0447 0.529674C51.6235 0.307046 52.2358 0.195731 52.8814 0.195731ZM65.5376 12.2344V11.9004C65.8938 11.8782 66.1609 11.8336 66.339 11.7669C66.5171 11.7001 66.634 11.5665 66.6897 11.3661C66.7565 11.1658 66.7899 10.8652 66.7899 10.4645V2.18269C66.7899 1.77083 66.7565 1.47028 66.6897 1.28105C66.634 1.08068 66.5116 0.947103 66.3223 0.880315C66.1442 0.802394 65.8826 0.757869 65.5376 0.746737V0.412795C65.8381 0.423926 66.2277 0.435057 66.7064 0.446188C67.1962 0.45732 67.6804 0.462885 68.159 0.462885C68.6711 0.462885 69.1497 0.45732 69.595 0.446188C70.0514 0.435057 70.4187 0.423926 70.697 0.412795V0.746737C70.3408 0.757869 70.0681 0.802394 69.8788 0.880315C69.7007 0.947103 69.5838 1.08068 69.5282 1.28105C69.4725 1.47028 69.4447 1.77083 69.4447 2.18269V10.4645C69.4447 10.8652 69.4725 11.1658 69.5282 11.3661C69.595 11.5665 69.7174 11.7001 69.8955 11.7669C70.0736 11.8336 70.3408 11.8782 70.697 11.9004V12.2344C70.4187 12.2121 70.0514 12.201 69.595 12.201C69.1497 12.1898 68.6711 12.1843 68.159 12.1843C67.6804 12.1843 67.1962 12.1898 66.7064 12.201C66.2277 12.201 65.8381 12.2121 65.5376 12.2344ZM58.458 12.2344V11.9004C58.8142 11.8782 59.0813 11.8336 59.2594 11.7669C59.4375 11.7001 59.5544 11.5665 59.6101 11.3661C59.6769 11.1658 59.7103 10.8652 59.7103 10.4645V2.18269C59.7103 1.77083 59.6769 1.47028 59.6101 1.28105C59.5544 1.08068 59.432 0.947103 59.2427 0.880315C59.0646 0.802394 58.8031 0.757869 58.458 0.746737V0.412795C58.7474 0.423926 59.1203 0.435057 59.5767 0.446188C60.0442 0.45732 60.5507 0.462885 61.0961 0.462885C61.5637 0.462885 62.0256 0.45732 62.482 0.446188C62.9384 0.435057 63.3169 0.423926 63.6174 0.412795V0.746737C63.2612 0.757869 62.9885 0.802394 62.7992 0.880315C62.6211 0.947103 62.5043 1.08068 62.4486 1.28105C62.3929 1.47028 62.3651 1.77083 62.3651 2.18269V10.4645C62.3651 10.8652 62.3929 11.1658 62.4486 11.3661C62.5154 11.5665 62.6378 11.7001 62.8159 11.7669C62.994 11.8336 63.2612 11.8782 63.6174 11.9004V12.2344C63.3169 12.2121 62.9384 12.201 62.482 12.201C62.0256 12.1898 61.5637 12.1843 61.0961 12.1843C60.5507 12.1843 60.0442 12.1898 59.5767 12.201C59.1203 12.201 58.7474 12.2121 58.458 12.2344ZM61.2798 6.45716V6.12322H67.8752V6.45716H61.2798ZM76.9719 0.412795V0.746737C76.6157 0.757869 76.3429 0.802394 76.1537 0.880315C75.9756 0.947103 75.8587 1.08068 75.8031 1.28105C75.7474 1.47028 75.7196 1.77083 75.7196 2.18269V10.4645C75.7196 10.8652 75.7474 11.1658 75.8031 11.3661C75.8698 11.5665 75.9923 11.7001 76.1704 11.7669C76.3485 11.8336 76.6157 11.8782 76.9719 11.9004V12.2344C76.6713 12.2121 76.2928 12.201 75.8365 12.201C75.3801 12.1898 74.9181 12.1843 74.4506 12.1843C73.9051 12.1843 73.3987 12.1898 72.9311 12.201C72.4748 12.201 72.1019 12.2121 71.8124 12.2344V11.9004C72.1686 11.8782 72.4358 11.8336 72.6139 11.7669C72.792 11.7001 72.9089 11.5665 72.9645 11.3661C73.0313 11.1658 73.0647 10.8652 73.0647 10.4645V2.18269C73.0647 1.77083 73.0313 1.47028 72.9645 1.28105C72.9089 1.08068 72.7864 0.947103 72.5972 0.880315C72.4191 0.802394 72.1575 0.757869 71.8124 0.746737V0.412795C72.1019 0.423926 72.4748 0.435057 72.9311 0.446188C73.3987 0.45732 73.9051 0.462885 74.4506 0.462885C74.9181 0.462885 75.3801 0.45732 75.8365 0.446188C76.2928 0.435057 76.6713 0.423926 76.9719 0.412795Z" fill="#27231C"/>
<path d="M5.08325 14.8258C5.65186 14.8258 6.11709 14.9119 6.47894 15.0842C6.8494 15.2479 7.17679 15.4418 7.46109 15.6658C7.6334 15.795 7.76263 15.8122 7.84879 15.7175C7.94355 15.6141 8.00817 15.3772 8.04263 15.0067H8.33986C8.32263 15.3341 8.30971 15.7304 8.30109 16.1956C8.29248 16.6522 8.28817 17.2639 8.28817 18.0307H7.99094C7.93063 17.6516 7.87032 17.3415 7.81002 17.1003C7.75832 16.859 7.68509 16.6522 7.59032 16.4799C7.50417 16.3076 7.38355 16.1396 7.22848 15.9759C6.97863 15.6658 6.67279 15.4418 6.31094 15.3039C5.94909 15.1661 5.56571 15.0972 5.16079 15.0972C4.7214 15.0972 4.33371 15.2092 3.99771 15.4332C3.66171 15.6486 3.3774 15.9587 3.14479 16.3636C2.92079 16.7686 2.74848 17.2467 2.62786 17.7981C2.50725 18.3495 2.44694 18.9526 2.44694 19.6073C2.44694 20.2793 2.51155 20.891 2.64079 21.4424C2.77002 21.9852 2.95525 22.4547 3.19648 22.851C3.44632 23.2387 3.74355 23.5402 4.08817 23.7556C4.4414 23.9624 4.8334 24.0658 5.26417 24.0658C5.6174 24.0658 5.98355 23.9969 6.36263 23.859C6.74171 23.7126 7.04325 23.4929 7.26725 23.1999C7.50848 22.9415 7.67217 22.6529 7.75832 22.3341C7.85309 22.0067 7.93063 21.563 7.99094 21.003H8.28817C8.28817 21.7956 8.29248 22.4375 8.30109 22.9286C8.30971 23.411 8.32263 23.8203 8.33986 24.1562H8.04263C8.00817 23.7858 7.94786 23.5532 7.86171 23.4584C7.78417 23.3636 7.65063 23.3766 7.46109 23.4972C7.14232 23.7212 6.80202 23.9193 6.44017 24.0916C6.08694 24.2553 5.63032 24.3372 5.07032 24.3372C4.2174 24.3372 3.47217 24.1519 2.83463 23.7815C2.19709 23.411 1.70171 22.8769 1.34848 22.179C0.995247 21.4812 0.818632 20.6412 0.818632 19.659C0.818632 18.6941 0.999555 17.8498 1.3614 17.1261C1.73186 16.4024 2.23586 15.8381 2.8734 15.4332C3.51094 15.0282 4.24755 14.8258 5.08325 14.8258ZM15.0771 24.1562V23.8978C15.37 23.8806 15.5897 23.8461 15.7362 23.7944C15.8827 23.7427 15.9774 23.6393 16.0205 23.4843C16.0722 23.3292 16.0981 23.0966 16.0981 22.7864V16.3766C16.0981 16.0578 16.0722 15.8252 16.0205 15.6787C15.9774 15.5236 15.8784 15.4202 15.7233 15.3686C15.5768 15.3082 15.3614 15.2738 15.0771 15.2652V15.0067C15.2925 15.0153 15.5596 15.0239 15.8784 15.0326C16.2057 15.0412 16.5288 15.0455 16.8476 15.0455C17.2094 15.0455 17.5454 15.0412 17.8556 15.0326C18.1657 15.0239 18.4156 15.0153 18.6051 15.0067V15.2652C18.3208 15.2738 18.1054 15.3082 17.959 15.3686C17.8125 15.4202 17.7134 15.5236 17.6617 15.6787C17.6101 15.8252 17.5842 16.0578 17.5842 16.3766V22.7864C17.5842 23.0966 17.6101 23.3292 17.6617 23.4843C17.7134 23.6393 17.8125 23.7427 17.959 23.7944C18.1054 23.8461 18.3208 23.8806 18.6051 23.8978V24.1562C18.4156 24.139 18.1657 24.1304 17.8556 24.1304C17.5454 24.1218 17.2094 24.1175 16.8476 24.1175C16.5288 24.1175 16.2057 24.1218 15.8784 24.1304C15.5596 24.1304 15.2925 24.139 15.0771 24.1562ZM9.64943 24.1562V23.8978C9.94236 23.8806 10.162 23.8461 10.3085 23.7944C10.455 23.7427 10.5497 23.6393 10.5928 23.4843C10.6445 23.3292 10.6704 23.0966 10.6704 22.7864V16.3766C10.6704 16.0578 10.6445 15.8252 10.5928 15.6787C10.5497 15.5236 10.4507 15.4202 10.2956 15.3686C10.1491 15.3082 9.93374 15.2738 9.64943 15.2652V15.0067C9.84759 15.0153 10.1017 15.0239 10.4119 15.0326C10.7307 15.0412 11.071 15.0455 11.4328 15.0455C11.7602 15.0455 12.079 15.0412 12.3891 15.0326C12.7079 15.0239 12.9707 15.0153 13.1774 15.0067V15.2652C12.8931 15.2738 12.6777 15.3082 12.5313 15.3686C12.3848 15.4202 12.2857 15.5236 12.234 15.6787C12.1824 15.8252 12.1565 16.0578 12.1565 16.3766V22.7864C12.1565 23.0966 12.1824 23.3292 12.234 23.4843C12.2857 23.6393 12.3848 23.7427 12.5313 23.7944C12.6777 23.8461 12.8931 23.8806 13.1774 23.8978V24.1562C12.9707 24.139 12.7079 24.1304 12.3891 24.1304C12.079 24.1218 11.7602 24.1175 11.4328 24.1175C11.071 24.1175 10.7307 24.1218 10.4119 24.1304C10.1017 24.1304 9.84759 24.139 9.64943 24.1562ZM11.575 19.6849V19.4264H16.6796V19.6849H11.575ZM23.4834 14.955L26.6366 23.0707C26.7572 23.3895 26.8951 23.6049 27.0502 23.7169C27.2138 23.8289 27.3646 23.8892 27.5025 23.8978V24.1562C27.2957 24.139 27.0502 24.1304 26.7658 24.1304C26.4902 24.1218 26.2102 24.1175 25.9258 24.1175C25.564 24.1175 25.228 24.1218 24.9178 24.1304C24.6077 24.1304 24.3578 24.139 24.1683 24.1562V23.8978C24.6077 23.8806 24.8834 23.8073 24.9954 23.6781C25.116 23.5402 25.0902 23.2516 24.9178 22.8123L22.5917 16.5316L22.7985 16.299L20.6532 21.9076C20.4982 22.2953 20.4034 22.6184 20.3689 22.8769C20.3431 23.1353 20.3646 23.3378 20.4335 23.4843C20.5111 23.6307 20.6403 23.7341 20.8212 23.7944C21.0022 23.8547 21.2262 23.8892 21.4932 23.8978V24.1562C21.2348 24.139 20.972 24.1304 20.7049 24.1304C20.4465 24.1218 20.2009 24.1175 19.9683 24.1175C19.7615 24.1175 19.5763 24.1218 19.4126 24.1304C19.2575 24.1304 19.1154 24.139 18.9862 24.1562V23.8978C19.1671 23.8547 19.348 23.747 19.5289 23.5747C19.7098 23.4024 19.8822 23.1095 20.0458 22.6959L23.044 14.955C23.1129 14.955 23.1862 14.955 23.2637 14.955C23.3412 14.955 23.4145 14.955 23.4834 14.955ZM24.8403 20.4344V20.6929H20.9892L21.1185 20.4344H24.8403ZM31.2123 15.0067V15.2652C30.9194 15.2738 30.6954 15.3082 30.5403 15.3686C30.3938 15.4202 30.2948 15.5236 30.2431 15.6787C30.1914 15.8252 30.1655 16.0578 30.1655 16.3766V22.8381C30.1655 23.131 30.1871 23.3507 30.2301 23.4972C30.2818 23.6436 30.3766 23.7427 30.5144 23.7944C30.6609 23.8375 30.8677 23.859 31.1348 23.859H31.9748C32.3452 23.859 32.6554 23.8073 32.9052 23.7039C33.1637 23.6006 33.3791 23.4455 33.5514 23.2387C33.7237 23.0319 33.8572 22.7649 33.952 22.4375C34.0468 22.1101 34.12 21.7267 34.1717 21.2873H34.4689C34.4431 21.563 34.4301 21.9249 34.4301 22.3729C34.4301 22.5452 34.4344 22.7993 34.4431 23.1353C34.4603 23.4627 34.4861 23.803 34.5206 24.1562C34.0812 24.139 33.5858 24.1304 33.0344 24.1304C32.4831 24.1218 31.992 24.1175 31.5612 24.1175C31.3631 24.1175 31.1089 24.1175 30.7988 24.1175C30.4886 24.1175 30.1526 24.1218 29.7908 24.1304C29.4375 24.1304 29.0757 24.1347 28.7052 24.1433C28.3434 24.1433 27.9944 24.1476 27.6584 24.1562V23.8978C27.9514 23.8806 28.1711 23.8461 28.3175 23.7944C28.464 23.7427 28.5588 23.6393 28.6018 23.4843C28.6535 23.3292 28.6794 23.0966 28.6794 22.7864V16.3766C28.6794 16.0578 28.6535 15.8252 28.6018 15.6787C28.5588 15.5236 28.4597 15.4202 28.3046 15.3686C28.1581 15.3082 27.9428 15.2738 27.6584 15.2652V15.0067C27.8566 15.0153 28.1108 15.0239 28.4209 15.0326C28.7397 15.0412 29.08 15.0455 29.4418 15.0455C29.7692 15.0455 30.0923 15.0412 30.4111 15.0326C30.7384 15.0239 31.0055 15.0153 31.2123 15.0067ZM38.9106 15.0067V15.2652C38.6177 15.2738 38.3937 15.3082 38.2386 15.3686C38.0921 15.4202 37.9931 15.5236 37.9414 15.6787C37.8897 15.8252 37.8638 16.0578 37.8638 16.3766V22.8381C37.8638 23.131 37.8854 23.3507 37.9285 23.4972C37.9801 23.6436 38.0749 23.7427 38.2128 23.7944C38.3592 23.8375 38.566 23.859 38.8331 23.859H39.6731C40.0435 23.859 40.3537 23.8073 40.6035 23.7039C40.862 23.6006 41.0774 23.4455 41.2497 23.2387C41.422 23.0319 41.5555 22.7649 41.6503 22.4375C41.7451 22.1101 41.8183 21.7267 41.87 21.2873H42.1672C42.1414 21.563 42.1285 21.9249 42.1285 22.3729C42.1285 22.5452 42.1328 22.7993 42.1414 23.1353C42.1586 23.4627 42.1845 23.803 42.2189 24.1562C41.7795 24.139 41.2841 24.1304 40.7328 24.1304C40.1814 24.1218 39.6903 24.1175 39.2595 24.1175C39.0614 24.1175 38.8072 24.1175 38.4971 24.1175C38.1869 24.1175 37.8509 24.1218 37.4891 24.1304C37.1358 24.1304 36.774 24.1347 36.4035 24.1433C36.0417 24.1433 35.6928 24.1476 35.3568 24.1562V23.8978C35.6497 23.8806 35.8694 23.8461 36.0158 23.7944C36.1623 23.7427 36.2571 23.6393 36.3001 23.4843C36.3518 23.3292 36.3777 23.0966 36.3777 22.7864V16.3766C36.3777 16.0578 36.3518 15.8252 36.3001 15.6787C36.2571 15.5236 36.158 15.4202 36.0029 15.3686C35.8565 15.3082 35.6411 15.2738 35.3568 15.2652V15.0067C35.5549 15.0153 35.8091 15.0239 36.1192 15.0326C36.438 15.0412 36.7783 15.0455 37.1401 15.0455C37.4675 15.0455 37.7906 15.0412 38.1094 15.0326C38.4368 15.0239 38.7038 15.0153 38.9106 15.0067ZM49.6588 15.0067C49.6243 15.3341 49.5985 15.6529 49.5812 15.963C49.5726 16.2646 49.5683 16.4972 49.5683 16.6609C49.5683 16.8246 49.5726 16.9796 49.5812 17.1261C49.5899 17.2726 49.5985 17.3932 49.6071 17.4879H49.3099C49.2495 16.9366 49.1548 16.5015 49.0255 16.1827C48.9049 15.8639 48.7197 15.6399 48.4699 15.5107C48.2286 15.3729 47.8883 15.3039 47.4489 15.3039H46.5572C46.2815 15.3039 46.0705 15.3298 45.924 15.3815C45.7862 15.4246 45.6914 15.5193 45.6397 15.6658C45.588 15.8036 45.5622 16.0233 45.5622 16.3249V22.8381C45.5622 23.131 45.588 23.3507 45.6397 23.4972C45.6914 23.6436 45.7862 23.7427 45.924 23.7944C46.0705 23.8375 46.2815 23.859 46.5572 23.859H47.3972C47.8883 23.859 48.276 23.7815 48.5603 23.6264C48.8532 23.4713 49.0729 23.2172 49.2194 22.8639C49.3745 22.5107 49.4908 22.0282 49.5683 21.4166H49.8655C49.8397 21.6664 49.8268 21.9938 49.8268 22.3987C49.8268 22.571 49.8311 22.8209 49.8397 23.1483C49.8569 23.4756 49.8828 23.8116 49.9172 24.1562C49.4779 24.139 48.9825 24.1304 48.4311 24.1304C47.8797 24.1218 47.3886 24.1175 46.9579 24.1175C46.7597 24.1175 46.5055 24.1175 46.1954 24.1175C45.8852 24.1175 45.5492 24.1218 45.1874 24.1304C44.8342 24.1304 44.4723 24.1347 44.1019 24.1433C43.74 24.1433 43.3911 24.1476 43.0551 24.1562V23.8978C43.348 23.8806 43.5677 23.8461 43.7142 23.7944C43.8606 23.7427 43.9554 23.6393 43.9985 23.4843C44.0502 23.3292 44.076 23.0966 44.076 22.7864V16.3766C44.076 16.0578 44.0502 15.8252 43.9985 15.6787C43.9554 15.5236 43.8563 15.4202 43.7012 15.3686C43.5548 15.3082 43.3394 15.2738 43.0551 15.2652V15.0067C43.3911 15.0153 43.74 15.0239 44.1019 15.0326C44.4723 15.0326 44.8342 15.0369 45.1874 15.0455C45.5492 15.0455 45.8852 15.0455 46.1954 15.0455C46.5055 15.0455 46.7597 15.0455 46.9579 15.0455C47.3542 15.0455 47.8022 15.0455 48.3019 15.0455C48.8102 15.0369 49.2625 15.0239 49.6588 15.0067ZM47.5135 19.4264C47.5135 19.4264 47.5135 19.4695 47.5135 19.5556C47.5135 19.6418 47.5135 19.6849 47.5135 19.6849H45.1745C45.1745 19.6849 45.1745 19.6418 45.1745 19.5556C45.1745 19.4695 45.1745 19.4264 45.1745 19.4264H47.5135ZM47.8883 17.7206C47.8539 18.2116 47.8366 18.5864 47.8366 18.8449C47.8452 19.1033 47.8495 19.3402 47.8495 19.5556C47.8495 19.771 47.8539 20.0079 47.8625 20.2664C47.8711 20.5249 47.8926 20.8996 47.9271 21.3907H47.6299C47.5868 21.1064 47.5308 20.835 47.4619 20.5766C47.3929 20.3095 47.268 20.0941 47.0871 19.9304C46.9148 19.7667 46.6434 19.6849 46.2729 19.6849V19.4264C46.5486 19.4264 46.764 19.3704 46.9191 19.2584C47.0828 19.1464 47.2077 18.9999 47.2939 18.819C47.38 18.6381 47.4403 18.4529 47.4748 18.2633C47.5179 18.0652 47.5566 17.8842 47.5911 17.7206H47.8883ZM59.2889 15.0067V15.2652C58.996 15.2824 58.7763 15.3341 58.6298 15.4202C58.4834 15.5064 58.3843 15.6486 58.3326 15.8467C58.2895 16.0362 58.268 16.3076 58.268 16.6609V24.2079C58.199 24.2079 58.1301 24.2079 58.0612 24.2079C57.9923 24.2079 57.919 24.2079 57.8415 24.2079L52.3621 16.2473V22.4504C52.3621 22.8123 52.388 23.0966 52.4397 23.3033C52.4914 23.5015 52.6034 23.6436 52.7757 23.7298C52.948 23.8159 53.2107 23.8719 53.564 23.8978V24.1562C53.4003 24.139 53.1892 24.1304 52.9307 24.1304C52.6809 24.1218 52.444 24.1175 52.22 24.1175C52.0046 24.1175 51.7892 24.1218 51.5738 24.1304C51.3584 24.1304 51.1818 24.139 51.044 24.1562V23.8978C51.3283 23.8719 51.5437 23.8202 51.6901 23.7427C51.8366 23.6566 51.9357 23.5144 51.9874 23.3162C52.039 23.1181 52.0649 22.8467 52.0649 22.5021V16.3766C52.0649 16.0578 52.039 15.8252 51.9874 15.6787C51.9357 15.5236 51.8366 15.4202 51.6901 15.3686C51.5437 15.3082 51.3283 15.2738 51.044 15.2652V15.0067C51.1818 15.0153 51.3584 15.0239 51.5738 15.0326C51.7892 15.0412 52.0046 15.0455 52.22 15.0455C52.4095 15.0455 52.5947 15.0412 52.7757 15.0326C52.9566 15.0239 53.116 15.0153 53.2538 15.0067L57.9707 21.7526V16.7126C57.9707 16.3421 57.9406 16.0578 57.8803 15.8596C57.8286 15.6615 57.7166 15.5193 57.5443 15.4332C57.372 15.3384 57.1135 15.2824 56.7689 15.2652V15.0067C56.924 15.0153 57.1307 15.0239 57.3892 15.0326C57.6477 15.0412 57.8889 15.0455 58.1129 15.0455C58.3283 15.0455 58.5437 15.0412 58.759 15.0326C58.9744 15.0239 59.151 15.0153 59.2889 15.0067ZM64.6145 14.8258C65.1831 14.8258 65.644 14.9119 65.9973 15.0842C66.3505 15.2479 66.6736 15.4418 66.9665 15.6658C67.0785 15.7519 67.1647 15.795 67.225 15.795C67.3887 15.795 67.4964 15.5323 67.548 15.0067H67.8453C67.828 15.3341 67.8151 15.7304 67.8065 16.1956C67.7979 16.6522 67.7936 17.2639 67.7936 18.0307H67.4964C67.436 17.6172 67.3542 17.2338 67.2508 16.8806C67.156 16.5273 66.988 16.2258 66.7468 15.9759C66.5142 15.7002 66.2084 15.4849 65.8293 15.3298C65.4588 15.1747 65.0797 15.0972 64.692 15.0972C64.244 15.0972 63.8477 15.2092 63.5031 15.4332C63.1585 15.6486 62.8656 15.9587 62.6244 16.3636C62.3917 16.7686 62.2108 17.2467 62.0816 17.7981C61.961 18.3409 61.9007 18.9396 61.9007 19.5944C61.9007 21.1452 62.1376 22.2824 62.6114 23.0061C63.0939 23.7212 63.8176 24.0787 64.7825 24.0787C65.0582 24.0787 65.2951 24.0399 65.4933 23.9624C65.7 23.8849 65.8637 23.8073 65.9844 23.7298C66.1308 23.6264 66.2256 23.5273 66.2687 23.4326C66.3117 23.3292 66.3333 23.1956 66.3333 23.0319V21.7784C66.3333 21.4079 66.2988 21.1366 66.2299 20.9642C66.1696 20.7833 66.0447 20.6627 65.8551 20.6024C65.6656 20.5335 65.3899 20.4947 65.028 20.4861V20.2276C65.1917 20.2362 65.3856 20.2449 65.6096 20.2535C65.8336 20.2535 66.0662 20.2578 66.3074 20.2664C66.5573 20.2664 66.7813 20.2664 66.9794 20.2664C67.2896 20.2664 67.5696 20.2621 67.8194 20.2535C68.0779 20.2449 68.289 20.2362 68.4527 20.2276V20.4861C68.2717 20.4947 68.1339 20.5249 68.0391 20.5766C67.953 20.6282 67.8927 20.7316 67.8582 20.8867C67.8324 21.0418 67.8194 21.2787 67.8194 21.5975V24.1562H67.561C67.5524 24.0098 67.5179 23.8504 67.4576 23.6781C67.4059 23.5058 67.324 23.4196 67.212 23.4196C67.1517 23.4196 67.0871 23.4326 67.0182 23.4584C66.9579 23.4842 66.8502 23.5489 66.6951 23.6523C66.3936 23.859 66.0791 24.027 65.7517 24.1562C65.4244 24.2769 65.0539 24.3372 64.6404 24.3372C63.7185 24.3372 62.9302 24.1562 62.2754 23.7944C61.6207 23.4239 61.121 22.8941 60.7764 22.2049C60.4404 21.507 60.2724 20.6799 60.2724 19.7236C60.2724 18.7242 60.4576 17.8584 60.828 17.1261C61.2071 16.3938 61.7197 15.8295 62.3659 15.4332C63.0207 15.0282 63.7702 14.8258 64.6145 14.8258ZM75.9593 15.0067C75.9248 15.3341 75.8989 15.6529 75.8817 15.963C75.8731 16.2646 75.8688 16.4972 75.8688 16.6609C75.8688 16.8246 75.8731 16.9796 75.8817 17.1261C75.8903 17.2726 75.8989 17.3932 75.9076 17.4879H75.6103C75.55 16.9366 75.4553 16.5015 75.326 16.1827C75.2054 15.8639 75.0202 15.6399 74.7703 15.5107C74.5291 15.3729 74.1888 15.3039 73.7494 15.3039H72.8577C72.582 15.3039 72.3709 15.3298 72.2245 15.3815C72.0866 15.4246 71.9919 15.5193 71.9402 15.6658C71.8885 15.8036 71.8626 16.0233 71.8626 16.3249V22.8381C71.8626 23.131 71.8885 23.3507 71.9402 23.4972C71.9919 23.6436 72.0866 23.7427 72.2245 23.7944C72.3709 23.8375 72.582 23.859 72.8577 23.859H73.6977C74.1888 23.859 74.5765 23.7815 74.8608 23.6264C75.1537 23.4713 75.3734 23.2172 75.5199 22.8639C75.6749 22.5107 75.7913 22.0282 75.8688 21.4166H76.166C76.1402 21.6664 76.1273 21.9938 76.1273 22.3987C76.1273 22.571 76.1316 22.8209 76.1402 23.1483C76.1574 23.4756 76.1833 23.8116 76.2177 24.1562C75.7783 24.139 75.2829 24.1304 74.7316 24.1304C74.1802 24.1218 73.6891 24.1175 73.2583 24.1175C73.0602 24.1175 72.806 24.1175 72.4959 24.1175C72.1857 24.1175 71.8497 24.1218 71.4879 24.1304C71.1346 24.1304 70.7728 24.1347 70.4023 24.1433C70.0405 24.1433 69.6916 24.1476 69.3556 24.1562V23.8978C69.6485 23.8806 69.8682 23.8461 70.0146 23.7944C70.1611 23.7427 70.2559 23.6393 70.2989 23.4843C70.3506 23.3292 70.3765 23.0966 70.3765 22.7864V16.3766C70.3765 16.0578 70.3506 15.8252 70.2989 15.6787C70.2559 15.5236 70.1568 15.4202 70.0017 15.3686C69.8553 15.3082 69.6399 15.2738 69.3556 15.2652V15.0067C69.6916 15.0153 70.0405 15.0239 70.4023 15.0326C70.7728 15.0326 71.1346 15.0369 71.4879 15.0455C71.8497 15.0455 72.1857 15.0455 72.4959 15.0455C72.806 15.0455 73.0602 15.0455 73.2583 15.0455C73.6546 15.0455 74.1026 15.0455 74.6023 15.0455C75.1106 15.0369 75.5629 15.0239 75.9593 15.0067ZM73.814 19.4264C73.814 19.4264 73.814 19.4695 73.814 19.5556C73.814 19.6418 73.814 19.6849 73.814 19.6849H71.4749C71.4749 19.6849 71.4749 19.6418 71.4749 19.5556C71.4749 19.4695 71.4749 19.4264 71.4749 19.4264H73.814ZM74.1888 17.7206C74.1543 18.2116 74.1371 18.5864 74.1371 18.8449C74.1457 19.1033 74.15 19.3402 74.15 19.5556C74.15 19.771 74.1543 20.0079 74.1629 20.2664C74.1716 20.5249 74.1931 20.8996 74.2276 21.3907H73.9303C73.8873 21.1064 73.8313 20.835 73.7623 20.5766C73.6934 20.3095 73.5685 20.0941 73.3876 19.9304C73.2153 19.7667 72.9439 19.6849 72.5734 19.6849V19.4264C72.8491 19.4264 73.0645 19.3704 73.2196 19.2584C73.3833 19.1464 73.5082 18.9999 73.5943 18.819C73.6805 18.6381 73.7408 18.4529 73.7753 18.2633C73.8183 18.0652 73.8571 17.8842 73.8916 17.7206H74.1888Z" fill="#43413D"/>
</svg>
