<svg width="20" height="20" viewBox="0 0 20 20" fill="none" xmlns="http://www.w3.org/2000/svg">
<path d="M6.66699 4.99935C6.66699 3.1584 8.15938 1.66602 10.0003 1.66602H15.0004C16.8413 1.66602 18.3337 3.1584 18.3337 4.99935V9.99935C18.3337 11.8403 16.8413 13.3327 15.0004 13.3327H10.8403V9.99935H6.66699V4.99935Z" fill="#D4DAE3"/>
<path fill-rule="evenodd" clip-rule="evenodd" d="M5.00033 6.66602C3.15938 6.66602 1.66699 8.1584 1.66699 9.99935V14.9993C1.66699 16.8403 3.15938 18.3327 5.00033 18.3327H10.0004C11.8413 18.3327 13.3337 16.8403 13.3337 14.9993V9.99935C13.3337 8.1584 11.8413 6.66602 10.0004 6.66602H5.00033ZM10.4707 11.4021C10.698 11.1424 10.6717 10.7475 10.4119 10.5202C10.1521 10.2929 9.75729 10.3192 9.52999 10.579L7.1384 13.3122C7.06498 13.3962 6.93853 13.4074 6.85147 13.3377L5.39078 12.1692C5.12124 11.9536 4.72794 11.9973 4.51231 12.2668C4.29667 12.5363 4.34038 12.9296 4.60991 13.1453L6.0706 14.3138C6.68 14.8013 7.56521 14.7227 8.07912 14.1354L10.4707 11.4021Z" fill="#7B8594"/>
</svg>
