<svg width="16" height="17" viewBox="0 0 16 17" fill="none" xmlns="http://www.w3.org/2000/svg">
<path d="M8 15.1419C11.6819 15.1419 14.6667 12.1572 14.6667 8.47526C14.6667 4.79336 11.6819 1.80859 8 1.80859" stroke="#0E213D" stroke-opacity="0.7" stroke-width="1.25" stroke-linecap="round"/>
<path d="M7.99967 15.1419C4.31778 15.1419 1.33301 12.1572 1.33301 8.47526C1.33301 4.79336 4.31778 1.80859 7.99967 1.80859" stroke="#0E213D" stroke-opacity="0.7" stroke-width="1.25" stroke-linecap="round" stroke-linejoin="round" stroke-dasharray="0.5 3"/>
<path d="M9 8.47461C9 9.02689 8.55228 9.47461 8 9.47461C7.44772 9.47461 7 9.02689 7 8.47461C7 7.92232 7.44772 7.47461 8 7.47461C8.55228 7.47461 9 7.92232 9 8.47461Z" stroke="#0E213D" stroke-opacity="0.7" stroke-width="1.25"/>
<path d="M8 9.47461L8 10.6413V11.1413" stroke="#0E213D" stroke-opacity="0.7" stroke-width="1.25" stroke-linecap="round" stroke-linejoin="round"/>
<path d="M8 4.47461V6.14128L8 7.47461" stroke="#0E213D" stroke-opacity="0.7" stroke-width="1.25" stroke-linecap="round" stroke-linejoin="round"/>
</svg>
