<svg width="26" height="18" viewBox="0 0 26 18" fill="none" xmlns="http://www.w3.org/2000/svg">
<mask id="path-1-inside-1_13971_24297" fill="white">
<rect width="25.875" height="18" rx="0.225"/>
</mask>
<rect width="25.875" height="18" rx="0.225" fill="white" stroke="#EBEBEB" stroke-width="2.25" mask="url(#path-1-inside-1_13971_24297)"/>
<path fill-rule="evenodd" clip-rule="evenodd" d="M7.90332 12.1875H6.33579L5.16034 7.63811C5.10455 7.42884 4.98609 7.24383 4.81183 7.15663C4.37696 6.9375 3.89776 6.76311 3.375 6.67515V6.5H5.90016C6.24867 6.5 6.51005 6.76311 6.55361 7.06868L7.1635 10.3503L8.73026 6.5H10.2542L7.90332 12.1875ZM11.1249 12.1875H9.64453L10.8635 6.5H12.3439L11.1249 12.1875ZM14.2587 8.07397C14.3022 7.76765 14.5636 7.59249 14.8686 7.59249C15.3478 7.54852 15.8698 7.63647 16.3054 7.85484L16.5668 6.63029C16.1311 6.45514 15.6519 6.36719 15.2171 6.36719C13.7802 6.36719 12.7347 7.15499 12.7347 8.24837C12.7347 9.08015 13.4753 9.51689 13.9981 9.78C14.5636 10.0423 14.7814 10.2175 14.7379 10.4798C14.7379 10.8734 14.3022 11.0485 13.8674 11.0485C13.3446 11.0485 12.8218 10.9174 12.3434 10.6982L12.082 11.9235C12.6048 12.1419 13.1704 12.2299 13.6931 12.2299C15.3042 12.2731 16.3054 11.486 16.3054 10.3047C16.3054 8.81704 14.2587 8.72985 14.2587 8.07397ZM21.4863 12.1875L20.3108 6.5H19.0483C18.7869 6.5 18.5255 6.67515 18.4384 6.9375L16.2617 12.1875H17.7857L18.0899 11.3565H19.9623L20.1366 12.1875H21.4863ZM19.2685 8.03125L19.7034 10.1748H18.4844L19.2685 8.03125Z" fill="#172B85"/>
</svg>
