<svg width="256" height="256" viewBox="0 0 256 256" fill="none" xmlns="http://www.w3.org/2000/svg">
<rect width="256" height="256" fill="white"/>
<mask id="mask0_9023_4436" style="mask-type:luminance" maskUnits="userSpaceOnUse" x="16" y="101" width="226" height="53">
<path d="M16 101.773H242V153.136H16V101.773Z" fill="white"/>
</mask>
<g mask="url(#mask0_9023_4436)">
<path d="M241.909 101.773L241.384 101.889C239.377 102.334 234.039 104.115 228.183 110.857C227.067 112.138 226.11 113.549 225.333 115.06C223.353 112.54 220.665 110.652 218.76 109.78L216.118 115.213L216.536 115.363C216.835 115.48 219.386 116.843 221.165 119.068C221.938 120.031 222.944 121.739 223.472 123.629L223.544 123.922L227.793 124.236L228.192 124.253L228.266 123.878C228.618 121.768 229.264 117.839 232.323 114.331C236.153 109.922 238.822 108.604 241.656 107.972L241.992 107.9L241.901 101.781L241.909 101.773Z" fill="#0068FF"/>
<path d="M241.909 101.773L241.384 101.889C239.377 102.334 234.039 104.115 228.183 110.857C227.067 112.138 226.11 113.549 225.333 115.06C223.353 112.54 220.665 110.652 218.76 109.78L216.118 115.213L216.536 115.363C216.835 115.48 219.386 116.843 221.165 119.068C221.938 120.031 222.944 121.739 223.472 123.629L223.544 123.922L227.793 124.236L228.192 124.253L228.266 123.878C228.618 121.768 229.264 117.839 232.323 114.331C236.153 109.922 238.822 108.604 241.656 107.972L241.992 107.9L241.901 101.781L241.909 101.773Z" fill="url(#paint0_radial_9023_4436)"/>
<path d="M34.5799 127.537L27.2725 126.61C23.5778 126.165 23.2781 125.159 23.2781 123.982C23.2781 121.517 26.6647 120.644 29.8407 120.644C34.335 120.644 37.2217 122.282 37.3775 124.909L37.4049 125.409H43.6592L43.613 124.838C43.3322 121.462 41.1904 115.798 29.8784 115.788C21.8519 115.788 17.0597 119.048 17.0494 124.518C17.0494 129.095 21.0627 131.286 24.831 131.803L33.318 132.882C37.5949 133.442 37.9407 134.51 37.9407 135.758C37.9407 137.94 35.1431 139.195 30.2413 139.195C27.4078 139.195 25.2659 138.66 23.8774 137.609C22.4974 136.568 22.2971 135.294 22.2971 134.627V134.092H16.0136L16.0598 134.671C16.5324 140.896 21.3537 144.048 30.3869 144.067H30.4143C39.4731 144.067 44.4674 140.797 44.4759 134.858C44.4759 130.805 41.3427 128.489 34.5901 127.573L34.5799 127.537ZM46.1041 116.666L46.0699 143.173L52.3072 143.18L52.3414 116.675L46.1041 116.666ZM49.2236 106.938C47.1177 106.938 45.4022 108.354 45.4022 110.099V110.402C45.4022 112.148 47.1177 113.564 49.2236 113.573C51.3295 113.573 53.0468 112.157 53.0468 110.41V110.109C53.0468 108.363 51.3295 106.948 49.2236 106.94V106.938ZM68.1871 138.921C65.0025 138.921 64.5659 137.842 64.5659 136.685L64.5831 121.544H70.8289V116.699H64.5831V108.869H58.3458V116.684H54.271V121.537H58.3561L58.339 137.515C58.339 140.508 59.6624 144.071 66.0093 144.079H66.3894C68.4422 144.079 70.1492 144.052 71.8459 143.732L72.291 143.651V138.505L71.6644 138.611C70.2844 138.833 69.2229 138.941 68.2059 138.941L68.1888 138.924L68.1871 138.921Z" fill="#0E213D" fill-opacity="0.85"/>
<path d="M86.2899 115.839C77.0119 115.839 71.0109 121.38 71.0023 129.947C71.0023 138.533 76.9947 144.081 86.2916 144.089H86.3001C91.1112 144.089 97.2115 141.749 99.9081 135.174L100.208 134.445H93.9071L93.7615 134.748C92.0563 138.4 88.2057 138.943 86.0536 138.943C82.1054 138.943 77.9381 136.537 77.3029 131.942L100.634 131.969V130.801C100.634 123.908 96.8947 115.848 86.3001 115.838H86.2899V115.839ZM86.0639 120.452V120.988C90.2928 120.988 93.39 123.321 94.2889 127.115L77.5204 127.098C78.4552 123.417 81.8058 120.986 86.0724 120.986V120.452H86.0639ZM131.082 116.757L121.467 116.748L108.503 127.026L108.522 107.217H102.284L102.249 143.237L108.486 143.245L108.494 133.794L112.607 130.731L123.174 143.264H131.608L117.591 126.929L131.082 116.757Z" fill="#0E213D" fill-opacity="0.85"/>
<path d="M143.018 115.897C133.705 115.897 127.685 121.438 127.676 130.005C127.676 133.907 129.029 137.432 131.498 139.927C134.22 142.688 138.206 144.139 143.018 144.149H143.036C147.865 144.149 153.993 141.807 156.69 135.234L156.989 134.503H150.672L150.526 134.806C148.811 138.458 144.943 139.001 142.782 139.001C138.815 139.001 134.629 136.597 133.994 132L157.426 132.027V130.859C157.426 123.966 153.676 115.906 143.036 115.897H143.018ZM134.203 127.154C135.138 123.477 138.505 121.046 142.78 121.046V120.511L142.799 121.046C147.04 121.046 150.144 123.379 151.043 127.173L134.203 127.156V127.154ZM174.294 115.926C164.898 115.926 158.823 121.467 158.816 130.034C158.816 138.62 164.879 144.168 174.283 144.176H174.302C179.168 144.176 185.351 141.836 188.066 135.263L188.374 134.523H182.01L181.865 134.826C180.141 138.477 176.237 139.021 174.049 139.021C170.044 139.021 165.824 136.616 165.18 132.02L188.809 132.048V130.878C188.809 123.985 185.025 115.925 174.294 115.914V115.925V115.926ZM165.396 127.184C166.341 123.506 169.745 121.075 174.057 121.075V120.54L174.075 121.075C178.351 121.075 181.483 123.408 182.401 127.202L165.406 127.185H165.396V127.184ZM217.021 119.912C214.297 117.553 210.485 116.252 206.281 116.252C202.369 116.252 198.691 117.536 196.495 119.609V116.83H190.258L190.222 153.143H196.459L196.467 140.851C198.673 142.954 202.295 144.217 206.281 144.228C215.232 144.228 221.488 138.482 221.497 130.262C221.497 126.04 219.953 122.468 217.021 119.929V119.912ZM205.61 121.391V120.856L205.627 121.391C212.508 121.391 214.96 125.959 214.952 130.235C214.952 135.765 211.455 139.06 205.6 139.06C202.785 139.06 200.417 138.242 198.746 136.701C197.058 135.143 196.168 132.899 196.168 130.217C196.168 125.951 198.656 121.391 205.6 121.391H205.61Z" fill="#0E213D" fill-opacity="0.85"/>
</g>
<defs>
<radialGradient id="paint0_radial_9023_4436" cx="0" cy="0" r="1" gradientUnits="userSpaceOnUse" gradientTransform="translate(229.055 101.773) rotate(90) scale(22.4802 28.8701)">
<stop stop-color="#5297FF"/>
<stop offset="1" stop-color="#3386FF"/>
</radialGradient>
</defs>
</svg>
